<svg xmlns="http://www.w3.org/2000/svg" width="16" height="16" fill="currentColor" class="bi bi-amazon" viewBox="0 0 16 16">
  <path d="M13.618 13.171c-6.603 3.143-10.702.514-13.325-1.084-.163-.1-.439.024-.2.299C.969 13.446 3.834 16 7.572 16c3.741 0 5.967-2.041 6.246-2.398.276-.353.08-.547-.199-.43Zm1.855-1.024c-.177-.231-1.078-.274-1.645-.204-.568.067-1.42.414-1.346.623.038.078.115.043.505.008.392-.04 1.487-.178 1.716.12.23.301-.35 1.733-.455 1.964-.103.231.039.29.23.137.19-.154.532-.552.762-1.115.229-.567.368-1.357.233-1.533ZM9.178 6.758V6.3c-1.53 0-3.147.327-3.147 2.131 0 .914.474 1.533 1.286 1.533.596 0 1.129-.366 1.465-.961.417-.733.396-1.42.396-2.245Zm2.135 5.16a.442.442 0 0 1-.5.05c-.703-.584-.828-.854-1.215-1.411-1.161 1.185-1.983 1.539-3.49 1.539-1.78 0-3.167-1.098-3.167-3.299 0-1.717.932-2.887 2.257-3.459 1.149-.506 2.753-.595 3.98-.735v-.274c0-.503.039-1.099-.256-1.533-.259-.39-.753-.551-1.188-.551-.807 0-1.527.414-1.703 1.271-.036.19-.175.378-.366.387l-2.054-.22c-.173-.039-.363-.179-.316-.444C3.77.75 6.016 0 8.03 0c1.03 0 2.376.274 3.188 1.054 1.03.962.932 2.245.932 3.64v3.3c0 .99.411 1.426.798 1.962.137.19.167.42-.006.562-.432.36-1.2 1.03-1.623 1.405l-.005-.006Z"/>
  <path d="M13.618 13.171c-6.603 3.143-10.702.514-13.325-1.084-.163-.1-.439.024-.2.299C.969 13.446 3.834 16 7.572 16c3.741 0 5.967-2.041 6.246-2.398.276-.353.08-.547-.199-.43Zm1.855-1.024c-.177-.231-1.078-.274-1.645-.204-.568.067-1.42.414-1.346.623.038.078.115.043.505.008.392-.04 1.487-.178 1.716.12.23.301-.35 1.733-.455 1.964-.103.231.039.29.23.137.19-.154.532-.552.762-1.115.229-.567.368-1.357.233-1.533Z"/>
  <path fill-rule="evenodd" d="M9.178 6.758c0 .825.02 1.512-.396 2.245-.336.595-.87.961-1.465.961-.812 0-1.286-.619-1.286-1.533 0-1.804 1.617-2.131 3.147-2.131v.458Zm2.135 5.16a.442.442 0 0 1-.5.05c-.703-.584-.828-.854-1.215-1.411-1.161 1.185-1.983 1.539-3.49 1.539-1.78 0-3.167-1.098-3.167-3.299 0-1.717.932-2.887 2.257-3.459 1.149-.506 2.753-.595 3.98-.735v-.274c0-.503.039-1.099-.256-1.533-.259-.39-.753-.551-1.188-.551-.807 0-1.527.414-1.703 1.271-.036.19-.175.378-.366.387l-2.054-.22c-.173-.039-.363-.179-.316-.444C3.77.75 6.016 0 8.03 0c1.03 0 2.376.274 3.188 1.054 1.03.962.932 2.245.932 3.64v3.3c0 .99.411 1.426.798 1.962.137.19.167.42-.006.562-.432.36-1.2 1.03-1.623 1.405l-.005-.006Z"/>
</svg>