<svg class="bi bi-arrow-right-square" width="1em" height="1em" viewBox="0 0 16 16" fill="currentColor" xmlns="http://www.w3.org/2000/svg">
  <path fill-rule="evenodd" d="M14 1H2a1 1 0 00-1 1v12a1 1 0 001 1h12a1 1 0 001-1V2a1 1 0 00-1-1zM2 0a2 2 0 00-2 2v12a2 2 0 002 2h12a2 2 0 002-2V2a2 2 0 00-2-2H2z" clip-rule="evenodd"/>
  <path fill-rule="evenodd" d="M7.646 11.354a.5.5 0 010-.708L10.293 8 7.646 5.354a.5.5 0 11.708-.708l3 3a.5.5 0 010 .708l-3 3a.5.5 0 01-.708 0z" clip-rule="evenodd"/>
  <path fill-rule="evenodd" d="M4.5 8a.5.5 0 01.5-.5h5a.5.5 0 010 1H5a.5.5 0 01-.5-.5z" clip-rule="evenodd"/>
</svg>