<svg class="bi bi-arrows-fullscreen" width="1em" height="1em" viewBox="0 0 16 16" fill="currentColor" xmlns="http://www.w3.org/2000/svg">
  <path fill-rule="evenodd" d="M1.464 10.536a.5.5 0 0 1 .5.5v3h3a.5.5 0 0 1 0 1h-3.5a.5.5 0 0 1-.5-.5v-3.5a.5.5 0 0 1 .5-.5z"/>
  <path fill-rule="evenodd" d="M5.964 10a.5.5 0 0 1 0 .707l-4.146 4.147a.5.5 0 0 1-.707-.708L5.257 10a.5.5 0 0 1 .707 0zm8.854-8.854a.5.5 0 0 1 0 .708L10.672 6a.5.5 0 0 1-.708-.707l4.147-4.147a.5.5 0 0 1 .707 0z"/>
  <path fill-rule="evenodd" d="M10.5 1.5A.5.5 0 0 1 11 1h3.5a.5.5 0 0 1 .5.5V5a.5.5 0 0 1-1 0V2h-3a.5.5 0 0 1-.5-.5zm4 9a.5.5 0 0 0-.5.5v3h-3a.5.5 0 0 0 0 1h3.5a.5.5 0 0 0 .5-.5V11a.5.5 0 0 0-.5-.5z"/>
  <path fill-rule="evenodd" d="M10 9.964a.5.5 0 0 0 0 .708l4.146 4.146a.5.5 0 0 0 .708-.707l-4.147-4.147a.5.5 0 0 0-.707 0zM1.182 1.146a.5.5 0 0 0 0 .708L5.328 6a.5.5 0 0 0 .708-.707L1.889 1.146a.5.5 0 0 0-.707 0z"/>
  <path fill-rule="evenodd" d="M5.5 1.5A.5.5 0 0 0 5 1H1.5a.5.5 0 0 0-.5.5V5a.5.5 0 0 0 1 0V2h3a.5.5 0 0 0 .5-.5z"/>
</svg>