<svg class="bi bi-arrow-up-right-square" width="1em" height="1em" viewBox="0 0 16 16" fill="currentColor" xmlns="http://www.w3.org/2000/svg">
  <path fill-rule="evenodd" d="M14 1H2a1 1 0 0 0-1 1v12a1 1 0 0 0 1 1h12a1 1 0 0 0 1-1V2a1 1 0 0 0-1-1zM2 0a2 2 0 0 0-2 2v12a2 2 0 0 0 2 2h12a2 2 0 0 0 2-2V2a2 2 0 0 0-2-2H2z" clip-rule="evenodd"/>
  <path fill-rule="evenodd" d="M10.5 5h-4a.5.5 0 0 0 0 1h2.793l-4.147 4.146a.5.5 0 0 0 .708.708L10 6.707V9.5a.5.5 0 0 0 1 0v-4a.5.5 0 0 0-.5-.5z" clip-rule="evenodd"/>
</svg>