<svg class="bi bi-arrows-expand" width="1em" height="1em" viewBox="0 0 16 16" fill="currentColor" xmlns="http://www.w3.org/2000/svg">
  <path fill-rule="evenodd" d="M2 8a.5.5 0 01.5-.5h11a.5.5 0 010 1h-11A.5.5 0 012 8zm6-1.5a.5.5 0 00.5-.5V1.5a.5.5 0 00-1 0V6a.5.5 0 00.5.5z" clip-rule="evenodd"/>
  <path fill-rule="evenodd" d="M10.354 3.854a.5.5 0 000-.708l-2-2a.5.5 0 00-.708 0l-2 2a.5.5 0 10.708.708L8 2.207l1.646 1.647a.5.5 0 00.708 0zM8 9.5a.5.5 0 01.5.5v4.5a.5.5 0 01-1 0V10a.5.5 0 01.5-.5z" clip-rule="evenodd"/>
  <path fill-rule="evenodd" d="M10.354 12.146a.5.5 0 010 .708l-2 2a.5.5 0 01-.708 0l-2-2a.5.5 0 01.708-.708L8 13.793l1.646-1.647a.5.5 0 01.708 0z" clip-rule="evenodd"/>
</svg>