<svg class="bi bi-arrow-right-circle" width="1em" height="1em" viewBox="0 0 16 16" fill="currentColor" xmlns="http://www.w3.org/2000/svg">
  <path fill-rule="evenodd" d="M8 15A7 7 0 108 1a7 7 0 000 14zm0 1A8 8 0 108 0a8 8 0 000 16z" clip-rule="evenodd"/>
  <path fill-rule="evenodd" d="M7.646 11.354a.5.5 0 010-.708L10.293 8 7.646 5.354a.5.5 0 11.708-.708l3 3a.5.5 0 010 .708l-3 3a.5.5 0 01-.708 0z" clip-rule="evenodd"/>
  <path fill-rule="evenodd" d="M4.5 8a.5.5 0 01.5-.5h5a.5.5 0 010 1H5a.5.5 0 01-.5-.5z" clip-rule="evenodd"/>
</svg>