<svg width="1em" height="1em" viewBox="0 0 16 16" class="bi bi-arrows-angle-expand" fill="currentColor" xmlns="http://www.w3.org/2000/svg">
  <path fill-rule="evenodd" d="M1.5 10.036a.5.5 0 0 1 .5.5v3.5h3.5a.5.5 0 0 1 0 1h-4a.5.5 0 0 1-.5-.5v-4a.5.5 0 0 1 .5-.5z"/>
  <path fill-rule="evenodd" d="M6.354 9.646a.5.5 0 0 1 0 .708l-4.5 4.5a.5.5 0 0 1-.708-.708l4.5-4.5a.5.5 0 0 1 .708 0zm8.5-8.5a.5.5 0 0 1 0 .708l-4.5 4.5a.5.5 0 0 1-.708-.708l4.5-4.5a.5.5 0 0 1 .708 0z"/>
  <path fill-rule="evenodd" d="M10.036 1.5a.5.5 0 0 1 .5-.5h4a.5.5 0 0 1 .5.5v4a.5.5 0 1 1-1 0V2h-3.5a.5.5 0 0 1-.5-.5z"/>
</svg>