<svg class="bi bi-arrows-fullscreen" width="1em" height="1em" viewBox="0 0 16 16" fill="currentColor" xmlns="http://www.w3.org/2000/svg">
  <path fill-rule="evenodd" d="M2 9.5a.5.5 0 01.5.5v3.5H6a.5.5 0 010 1H2a.5.5 0 01-.5-.5v-4a.5.5 0 01.5-.5z" clip-rule="evenodd"/>
  <path fill-rule="evenodd" d="M6.854 9.11a.5.5 0 010 .708l-4.5 4.5a.5.5 0 11-.708-.707l4.5-4.5a.5.5 0 01.708 0zm7.464-7.464a.5.5 0 010 .708l-4.5 4.5a.5.5 0 11-.707-.708l4.5-4.5a.5.5 0 01.707 0z" clip-rule="evenodd"/>
  <path fill-rule="evenodd" d="M9.5 2a.5.5 0 01.5-.5h4a.5.5 0 01.5.5v4a.5.5 0 01-1 0V2.5H10a.5.5 0 01-.5-.5zM14 9.5a.5.5 0 00-.5.5v3.5H10a.5.5 0 000 1h4a.5.5 0 00.5-.5v-4a.5.5 0 00-.5-.5z" clip-rule="evenodd"/>
  <path fill-rule="evenodd" d="M9.146 9.11a.5.5 0 000 .708l4.5 4.5a.5.5 0 00.708-.707l-4.5-4.5a.5.5 0 00-.708 0zM1.682 1.646a.5.5 0 000 .708l4.5 4.5a.5.5 0 10.707-.708l-4.5-4.5a.5.5 0 00-.707 0z" clip-rule="evenodd"/>
  <path fill-rule="evenodd" d="M6.5 2a.5.5 0 00-.5-.5H2a.5.5 0 00-.5.5v4a.5.5 0 001 0V2.5H6a.5.5 0 00.5-.5z" clip-rule="evenodd"/>
</svg>