<svg class="bi bi-arrow-left-circle" width="1em" height="1em" viewBox="0 0 16 16" fill="currentColor" xmlns="http://www.w3.org/2000/svg">
  <path fill-rule="evenodd" d="M8 15A7 7 0 108 1a7 7 0 000 14zm0 1A8 8 0 108 0a8 8 0 000 16z" clip-rule="evenodd"/>
  <path fill-rule="evenodd" d="M8.354 11.354a.5.5 0 000-.708L5.707 8l2.647-2.646a.5.5 0 10-.708-.708l-3 3a.5.5 0 000 .708l3 3a.5.5 0 00.708 0z" clip-rule="evenodd"/>
  <path fill-rule="evenodd" d="M11.5 8a.5.5 0 00-.5-.5H6a.5.5 0 000 1h5a.5.5 0 00.5-.5z" clip-rule="evenodd"/>
</svg>