<?xml version="1.0" encoding="UTF-8"?>
<svg id="Layer_1" data-name="Layer 1" xmlns="http://www.w3.org/2000/svg" viewBox="0 0 16 16">
  <path d="m7.36,7.1c-.1-.33-.19-.7-.27-1.01h-.01c-.08.31-.17.69-.26,1.01l-.42,1.32h1.39l-.43-1.32Zm0,0c-.1-.33-.19-.7-.27-1.01h-.01c-.08.31-.17.69-.26,1.01l-.42,1.32h1.39l-.43-1.32Zm0,0c-.1-.33-.19-.7-.27-1.01h-.01c-.08.31-.17.69-.26,1.01l-.42,1.32h1.39l-.43-1.32Zm0,0c-.1-.33-.19-.7-.27-1.01h-.01c-.08.31-.17.69-.26,1.01l-.42,1.32h1.39l-.43-1.32Zm8.46.92c-.06-.05-.13-.1-.2-.13h-.01c-.07-.03-.15-.04-.23-.04-.09,0-.17.02-.24.04-.07.03-.14.08-.2.13-.03.03-.06.07-.08.1-.01.02-.02.04-.04.06h-1v-.93h1.53c.08,0,.14-.03.2-.08.05-.05.08-.11.08-.19v-1.99s.05-.02.07-.03c.04-.03.08-.06.12-.09.06-.06.1-.12.13-.2.03-.07.05-.15.05-.23s-.02-.16-.05-.23c-.03-.07-.07-.14-.13-.19-.06-.06-.13-.1-.2-.13-.08-.03-.16-.05-.24-.05s-.16.02-.24.05c-.07.03-.14.07-.2.13-.05.05-.1.12-.13.19-.03.07-.05.15-.05.23s.02.16.05.23c.03.08.08.14.13.2.03.02.06.05.09.07,0,.01.03.02.04.03v1.75h-1.25v-3.72c0-.45-.37-.82-.82-.82h-3.72V.93h1.75s.02.03.03.04c.02.03.05.06.07.09.06.05.12.1.2.13.07.03.15.05.23.05s.16-.02.23-.05c.07-.03.14-.08.19-.13.06-.06.1-.13.13-.2.03-.08.05-.16.05-.24s-.02-.16-.05-.24c-.03-.07-.07-.14-.13-.2-.05-.06-.12-.1-.19-.13-.07-.03-.15-.05-.23-.05s-.16.02-.23.05c-.08.03-.14.07-.2.13-.03.04-.06.08-.09.12,0,.02-.02.05-.03.07h-1.99c-.08,0-.14.03-.19.08-.05.06-.08.12-.08.2v1.53h-.93v-1s.04-.03.06-.04c.03-.02.07-.05.1-.08.05-.06.1-.13.13-.2.02-.07.04-.15.04-.24,0-.08-.01-.16-.04-.23h0c-.03-.08-.08-.15-.13-.21-.06-.05-.13-.1-.2-.13-.07-.03-.15-.05-.23-.05s-.16.02-.23.05c-.07.03-.14.08-.2.13-.05.06-.1.13-.13.2-.02.08-.04.16-.04.24s.01.16.04.23h0c.03.08.08.15.13.21.03.03.07.06.1.08.02,0,.04.02.06.04v1h-.8v-.99c0-.08-.03-.15-.08-.2-.05-.05-.12-.08-.19-.08h-1.23s-.02-.04-.04-.06c-.02-.03-.04-.06-.07-.09-.06-.06-.12-.11-.2-.14-.07-.03-.15-.04-.23-.04s-.15.01-.22.04h0c-.07.03-.14.08-.19.14-.06.05-.1.12-.13.2-.03.07-.05.15-.05.24,0,.08.02.16.05.23.03.08.07.15.13.2.05.06.12.11.19.14.08.03.15.04.24.04.08,0,.15-.01.23-.04.07-.03.13-.08.18-.13h.01s.06-.07.08-.11c.01-.02.03-.05.04-.07h.95v.72h-2.94c-.45,0-.82.37-.82.82v2.94h-.72v-.95s.05-.03.07-.04c.04-.02.07-.05.1-.08h.01c.05-.06.1-.12.13-.19.03-.08.04-.15.04-.23,0-.09-.01-.16-.04-.24-.03-.07-.08-.14-.14-.19-.05-.06-.12-.1-.2-.13-.07-.03-.15-.05-.23-.05-.09,0-.17.02-.24.05-.08.03-.15.07-.2.13-.06.05-.11.12-.14.19h0c-.03.08-.04.15-.04.23s.01.16.04.23c.03.08.08.14.14.2.03.03.06.05.09.07.02.02.04.03.06.04v1.23c0,.07.03.14.08.19.05.05.12.08.2.08h.99v.8h-1s-.03-.04-.04-.06c-.02-.03-.05-.07-.08-.1-.06-.05-.13-.1-.2-.13h-.01c-.07-.03-.15-.04-.23-.04s-.16.02-.24.04c-.07.03-.14.08-.2.13-.05.06-.1.13-.13.2-.03.07-.05.15-.05.23s.02.16.05.23c.03.07.08.14.13.2.06.05.13.1.2.13h.01c.07.03.15.04.23.04.09,0,.17-.02.24-.04.07-.03.14-.08.2-.13.03-.03.06-.07.08-.1.01-.02.02-.04.04-.06h1v.93H.65c-.08,0-.14.03-.2.08-.05.05-.08.11-.08.19v1.99s-.05.02-.07.03c-.04.03-.08.06-.12.09-.06.06-.1.12-.13.2-.03.07-.05.15-.05.23s.02.16.05.23c.03.07.07.14.13.19.06.06.13.1.2.13.08.03.16.05.24.05s.16-.02.24-.05c.07-.03.14-.07.2-.13.05-.05.1-.12.13-.19.03-.07.05-.15.05-.23s-.02-.16-.05-.23c-.03-.08-.08-.14-.13-.2-.03-.02-.06-.05-.09-.07,0-.01-.03-.02-.04-.03v-1.75h1.25v3.72c0,.45.37.82.82.82h3.72v1.25h-1.75s-.02-.03-.03-.04c-.02-.03-.05-.06-.07-.09-.06-.05-.12-.1-.2-.13-.07-.03-.15-.05-.23-.05s-.16.02-.23.05c-.07.03-.14.08-.19.13-.06.06-.1.13-.13.2-.03.08-.05.16-.05.24s.02.16.05.24c.03.07.07.14.13.2.05.06.12.1.19.13.07.03.15.05.23.05s.16-.02.23-.05c.08-.03.14-.07.2-.13.03-.04.06-.08.09-.12,0-.02.02-.05.03-.07h1.99c.08,0,.14-.03.19-.08.05-.06.08-.12.08-.2v-1.53h.93v1s-.04.03-.06.04c-.03.02-.07.05-.1.08-.05.06-.1.13-.13.2-.02.07-.04.15-.04.24,0,.08.01.16.04.23h0c.03.08.08.15.13.21.06.05.13.1.2.13.07.03.15.05.23.05s.16-.02.23-.05c.07-.03.14-.08.2-.13.05-.06.1-.13.13-.2.02-.08.04-.16.04-.24s-.01-.16-.04-.23h0c-.03-.08-.08-.15-.13-.21-.03-.03-.07-.06-.1-.08-.02-.01-.04-.02-.06-.04v-1h.8v.99c0,.08.03.15.08.2.05.05.12.08.19.08h1.23s.02.04.04.06c.02.03.04.06.07.09.06.06.12.11.2.14.07.03.15.04.23.04s.15-.01.22-.04h0c.07-.03.14-.08.19-.14.06-.05.1-.12.13-.2.03-.07.05-.15.05-.24,0-.08-.02-.16-.05-.23-.03-.08-.07-.15-.13-.2-.05-.06-.12-.11-.19-.14-.08-.03-.15-.04-.24-.04-.08,0-.15.01-.23.04-.07.03-.13.08-.18.13h-.01s-.06.07-.08.11c-.01.02-.03.05-.04.07h-.95v-.72h2.94c.45,0,.82-.37.82-.82v-2.94h.72v.95s-.05.03-.07.04c-.04.02-.07.05-.1.08h-.01c-.05.06-.1.12-.13.19-.03.08-.04.15-.04.23,0,.09.01.16.04.24.03.07.08.14.14.19.05.06.12.1.2.13.07.03.15.05.23.05.09,0,.17-.02.24-.05.08-.03.15-.07.2-.13.06-.05.11-.12.14-.19h0c.03-.08.04-.15.04-.23s-.01-.16-.04-.23c-.03-.08-.08-.14-.14-.2-.03-.03-.06-.05-.09-.07-.02-.02-.04-.03-.06-.04v-1.23c0-.07-.03-.14-.08-.19s-.12-.08-.2-.08h-.99v-.8h1s.03.04.04.06c.02.03.05.07.08.1.06.05.13.1.2.13h.01c.07.03.15.04.23.04s.16-.02.24-.04c.07-.03.14-.08.2-.13.05-.06.1-.13.13-.2.03-.07.05-.15.05-.23s-.02-.16-.05-.23c-.03-.07-.08-.14-.13-.2ZM3.5,13c-.28,0-.5-.22-.5-.5s.22-.5.5-.5.5.22.5.5-.22.5-.5.5Zm0-9c-.28,0-.5-.22-.5-.5s.22-.5.5-.5.5.22.5.5-.22.5-.5.5Zm4.93,6.69l-.48-1.52h-1.71l-.46,1.52h-1.02l1.73-5.38h1.26l1.75,5.38h-1.07Zm2.81,0h-.99v-5.38h.99v5.38Zm1.26,2.31c-.28,0-.5-.22-.5-.5s.22-.5.5-.5.5.22.5.5-.22.5-.5.5Zm0-9c-.28,0-.5-.22-.5-.5s.22-.5.5-.5.5.22.5.5-.22.5-.5.5Zm-5.41,2.09h-.01c-.08.31-.17.69-.26,1.01l-.42,1.32h1.39l-.43-1.32c-.1-.33-.19-.7-.27-1.01Zm.27,1.01c-.1-.33-.19-.7-.27-1.01h-.01c-.08.31-.17.69-.26,1.01l-.42,1.32h1.39l-.43-1.32Zm0,0c-.1-.33-.19-.7-.27-1.01h-.01c-.08.31-.17.69-.26,1.01l-.42,1.32h1.39l-.43-1.32Zm0,0c-.1-.33-.19-.7-.27-1.01h-.01c-.08.31-.17.69-.26,1.01l-.42,1.32h1.39l-.43-1.32Zm0,0c-.1-.33-.19-.7-.27-1.01h-.01c-.08.31-.17.69-.26,1.01l-.42,1.32h1.39l-.43-1.32Z"/>
</svg>