<svg xmlns="http://www.w3.org/2000/svg" width="20" height="20" class="bi bi-at" viewBox="0 0 20 20">
  <path d="M9.624 4.19c3.233 0 5.482 2.065 5.482 5.032 0 2.228-.998 3.643-2.57 3.643-.8 0-1.422-.478-1.504-1.148h-.11c-.293.697-.908 1.087-1.708 1.087-1.422 0-2.379-1.17-2.379-2.906 0-1.66.978-2.823 2.379-2.823.718 0 1.333.37 1.6.964h.109v-.834h1.032v4.013c0 .478.28.759.773.759.86 0 1.415-1.087 1.415-2.769 0-2.468-1.873-4.156-4.608-4.156-2.673 0-4.594 2.037-4.594 4.88 0 2.92 1.887 4.8 4.813 4.8.936 0 1.86-.13 2.29-.329v.862c-.615.212-1.442.335-2.304.335-3.527 0-5.762-2.215-5.762-5.708 0-3.384 2.296-5.702 5.646-5.702zm-.24 3.829c-.915 0-1.455.71-1.455 1.907 0 1.19.547 1.914 1.442 1.914.937 0 1.538-.745 1.538-1.914 0-1.17-.595-1.907-1.524-1.907z"/>
</svg>
