<svg xmlns="http://www.w3.org/2000/svg" width="16" height="16" fill="currentColor" class="bi bi-aztec-code" viewBox="0 0 16 16">
  <path d="M0 0v1h1v1h1V0H0zm2 2v2h1v9h11v-1h-1V4h1V2h-1v1H4V2H2zm12 0h2V0h-1v1h-1v1zm0-1V0h-1v1h1zm0 11h1v-1h-1v1zm1-1h1V8h-1V7h1V6h-1V5h-1v4h1v2zm0 1v2h1v-2h-1zm0 2h-3v1h1v1h3v-1h-1v-1zm-3 1h-1v1h1v-1zM2 4H1V3H0v2h2V4zm1-4v1h2v1h3V0H7v1H6V0H3zm6 0v2h3V1h-1V0H9zm6 3v1h1V3h-1zM4 4h8v8H4V4zm1 1v6h6V5H5zM0 6v2h1v1H0v1h2V7H1V6H0zm6 0h4v4H6V6zm1 1v2h2V7H7zm-6 4v1H0v2h1v-1h1v-2H1zm0 3v1h1v1h4v-1h1v-1H5v1H4v-1H1zm6 1v1h3v-2H9v1H7zm-6 0H0v1h1v-1z"/>
</svg>