<svg xmlns="http://www.w3.org/2000/svg" width="16" height="16" fill="currentColor" class="bi bi-aztec-code-scan" viewBox="0 0 16 16">
  <path d="M0 .5A.5.5 0 0 1 .5 0h3a.5.5 0 1 1 0 1H1v2.5a.5.5 0 1 1-1 0v-3Zm12 0a.5.5 0 0 1 .5-.5h3a.5.5 0 0 1 .5.5v3a.5.5 0 0 1-1 0V1h-2.5a.5.5 0 0 1-.5-.5ZM.5 12a.5.5 0 0 1 .5.5V15h2.5a.5.5 0 0 1 0 1h-3a.5.5 0 0 1-.5-.5v-3a.5.5 0 0 1 .5-.5Zm15 0a.5.5 0 0 1 .5.5v3a.5.5 0 0 1-.5.5h-3a.5.5 0 0 1 0-1H15v-2.5a.5.5 0 0 1 .5-.5Z"/>
  <path d="M2 2v2h1v1H2v3h1v3H2v1h1v1h1v1h3v-1h1v1h1v-1h2v1h1v-1h2v-1h-1v-1h1V9h-1V8h1V7h-1V6h1V5h-1V4h1V2h-1v1h-1V2h-2v1H9V2H6v1H4V2H2zm2 2h8v8H4V4zm1 1v6h6V5H5zm1 1h4v4H6V6zm1 1v2h2V7H7z"/>
</svg>