<svg width="18" height="18" viewBox="0 0 18 18" fill="none" xmlns="http://www.w3.org/2000/svg">
<path d="M6.39324 15.4965C9.98117 16.9362 14.0568 15.1947 15.4965 11.6068C16.9362 8.01883 15.1947 3.94315 11.6068 2.50348C8.01883 1.0638 3.94315 2.80531 2.50348 6.39324C1.0638 9.98117 2.80531 14.0568 6.39324 15.4965ZM6.02084 16.4246C1.92035 14.7793 -0.069939 10.1213 1.5754 6.02084C3.22075 1.92035 7.87866 -0.069939 11.9792 1.5754C16.0796 3.22075 18.0699 7.87866 16.4246 11.9792C14.7793 16.0796 10.1213 18.0699 6.02084 16.4246Z" fill="black"/>
<path d="M12.4432 1.7616L6.67108 16.1468L5.743 15.7744L11.5151 1.38921L12.4432 1.7616Z" fill="black"/>
<path d="M1.7616 5.55681L16.6108 11.5151L16.2384 12.4432L1.38921 6.48488L1.7616 5.55681Z" fill="black"/>
<path d="M7.46264 4.33096C6.50237 3.68926 5.53277 3.33571 4.46737 3.79094L4.00758 3.9874L3.61466 3.06782L4.07445 2.87136C5.60997 2.21526 6.96055 2.79271 8.01825 3.49952C8.45248 3.78969 8.8619 4.11837 9.22478 4.40968C9.30218 4.47181 9.37745 4.53224 9.4504 4.59023C9.88795 4.93809 10.2206 5.17983 10.4896 5.28776C10.7585 5.39568 11.166 5.45093 11.7226 5.502C11.8154 5.51052 11.9116 5.51889 12.0105 5.52749C12.4741 5.5678 12.9971 5.61329 13.5115 5.70375C14.7644 5.92408 16.1395 6.44034 16.7956 7.97586L16.9921 8.43565L16.0725 8.82858L15.8761 8.36879C15.4208 7.30338 14.4758 6.88867 13.3383 6.68863C12.8712 6.60649 12.4009 6.56545 11.9387 6.52511C11.8358 6.51613 11.7333 6.50718 11.6313 6.49782C11.0999 6.44907 10.5442 6.38721 10.1172 6.21583C9.69006 6.04445 9.24574 5.70504 8.8281 5.37301C8.74793 5.30927 8.66766 5.24488 8.58708 5.18023C8.2252 4.88989 7.85697 4.59448 7.46264 4.33096Z" fill="black"/>
<path d="M4.91854 12.5232C3.79281 12.4345 2.54166 12.0963 1.54357 10.78L1.24146 10.3816L2.03827 9.77741L2.34038 10.1758C3.10389 11.1827 4.034 11.4504 4.99716 11.5263C5.33873 11.5533 5.66213 11.5552 5.99091 11.5572C6.14828 11.5581 6.30688 11.5591 6.46929 11.5628C6.93973 11.5735 7.44361 11.608 7.88282 11.7842C8.32202 11.9605 8.70996 12.2839 9.05734 12.6013C9.17727 12.7109 9.29254 12.8198 9.40692 12.9279C9.64587 13.1537 9.88092 13.3758 10.1464 13.5925C10.8949 14.2033 11.7521 14.6528 12.9998 14.453L13.4935 14.3739L13.6517 15.3613L13.158 15.4404C11.5269 15.7016 10.389 15.0812 9.51411 14.3672C9.22021 14.1274 8.9393 13.8621 8.68756 13.6244C8.58025 13.5231 8.47824 13.4267 8.38279 13.3395C8.0403 13.0265 7.76727 12.8154 7.51042 12.7123C7.25357 12.6092 6.91029 12.5731 6.44648 12.5625C6.31721 12.5596 6.1769 12.5587 6.02932 12.5578C5.68308 12.5555 5.29672 12.5531 4.91854 12.5232Z" fill="black"/>
</svg>
