<svg width="1em" height="1em" viewBox="0 0 16 16" class="bi bi-basket2-fill" fill="currentColor" xmlns="http://www.w3.org/2000/svg">
  <path fill-rule="evenodd" d="M11.314 1.036a.5.5 0 0 1 .65.278l2 5a.5.5 0 1 1-.928.372l-2-5a.5.5 0 0 1 .278-.65zm-6.628 0a.5.5 0 0 0-.65.278l-2 5a.5.5 0 1 0 .928.372l2-5a.5.5 0 0 0-.278-.65z"/>
  <path fill-rule="evenodd" d="M1.5 7a.5.5 0 0 0-.489.605l1.5 7A.5.5 0 0 0 3 15h10a.5.5 0 0 0 .489-.395l1.5-7A.5.5 0 0 0 14.5 7h-13zM4 10a1 1 0 0 1 2 0v2a1 1 0 1 1-2 0v-2zm3 0a1 1 0 0 1 2 0v2a1 1 0 1 1-2 0v-2zm4-1a1 1 0 0 0-1 1v2a1 1 0 1 0 2 0v-2a1 1 0 0 0-1-1z"/>
  <path d="M0 6.5A.5.5 0 0 1 .5 6h15a.5.5 0 0 1 .5.5v1a.5.5 0 0 1-.5.5H.5a.5.5 0 0 1-.5-.5v-1z"/>
</svg>