<svg class="bi bi-basket" width="1em" height="1em" viewBox="0 0 16 16" fill="currentColor" xmlns="http://www.w3.org/2000/svg">
  <path fill-rule="evenodd" d="M10.243 1.071a.5.5 0 01.686.172l3 5a.5.5 0 11-.858.514l-3-5a.5.5 0 01.172-.686zm-4.486 0a.5.5 0 00-.686.172l-3 5a.5.5 0 10.858.514l3-5a.5.5 0 00-.172-.686z" clip-rule="evenodd"/>
  <path fill-rule="evenodd" d="M1 7v1h14V7H1zM.5 6a.5.5 0 00-.5.5v2a.5.5 0 00.5.5h15a.5.5 0 00.5-.5v-2a.5.5 0 00-.5-.5H.5z" clip-rule="evenodd"/>
  <path fill-rule="evenodd" d="M14 9H2v5a1 1 0 001 1h10a1 1 0 001-1V9zM2 8a1 1 0 00-1 1v5a2 2 0 002 2h10a2 2 0 002-2V9a1 1 0 00-1-1H2z" clip-rule="evenodd"/>
  <path fill-rule="evenodd" d="M4 10a.5.5 0 01.5.5v3a.5.5 0 11-1 0v-3A.5.5 0 014 10zm2 0a.5.5 0 01.5.5v3a.5.5 0 11-1 0v-3A.5.5 0 016 10zm2 0a.5.5 0 01.5.5v3a.5.5 0 11-1 0v-3A.5.5 0 018 10zm2 0a.5.5 0 01.5.5v3a.5.5 0 11-1 0v-3a.5.5 0 01.5-.5zm2 0a.5.5 0 01.5.5v3a.5.5 0 11-1 0v-3a.5.5 0 01.5-.5z" clip-rule="evenodd"/>
</svg>