<svg width="1em" height="1em" viewBox="0 0 16 16" class="bi bi-bezier2" fill="currentColor" xmlns="http://www.w3.org/2000/svg">
  <path fill-rule="evenodd" d="M1 2.5A1.5 1.5 0 0 1 2.5 1h1A1.5 1.5 0 0 1 5 2.5v1A1.5 1.5 0 0 1 3.5 5h-1A1.5 1.5 0 0 1 1 3.5v-1zM2.5 2a.5.5 0 0 0-.5.5v1a.5.5 0 0 0 .5.5h1a.5.5 0 0 0 .5-.5v-1a.5.5 0 0 0-.5-.5h-1zM11 12.5a1.5 1.5 0 0 1 1.5-1.5h1a1.5 1.5 0 0 1 1.5 1.5v1a1.5 1.5 0 0 1-1.5 1.5h-1a1.5 1.5 0 0 1-1.5-1.5v-1zm1.5-.5a.5.5 0 0 0-.5.5v1a.5.5 0 0 0 .5.5h1a.5.5 0 0 0 .5-.5v-1a.5.5 0 0 0-.5-.5h-1z"/>
  <path fill-rule="evenodd" d="M6.767 4.645C6.303 3.923 5.592 3.5 4.5 3.5v-1H10v1H7.124c.18.18.34.381.484.605.638.992.892 2.354.892 3.895 0 1.993.257 3.092.713 3.7.418.559 1.089.8 2.287.8v1H6v-1h2.577a2.839 2.839 0 0 1-.165-.2C7.743 11.407 7.5 10.007 7.5 8c0-1.46-.246-2.597-.733-3.355z"/>
  <path d="M11 3a1 1 0 1 1-2 0 1 1 0 0 1 2 0zM7 13a1 1 0 1 1-2 0 1 1 0 0 1 2 0z"/>
</svg>