<svg xmlns="http://www.w3.org/2000/svg" width="16" height="16" fill="currentColor" class="bi bi-blazot" viewBox="0 0 16 16">
  <path d="M11.4 10.3c.5-.3.9-.7 1.4-1.2 3.8-3.8 3.1-9 3.1-9s-5.2-.7-9 3.1c-.4.5-.8.9-1.1 1.4l-3.2.1-2.6 4 3.9.7c0 .2-.1.3-.1.5l2.3 2.3c.2 0 .3-.1.5-.1l.7 3.9 4-2.6.1-3.1zM10.1 6c-1-1-1-2.6 0-3.6s2.6-1 3.6 0 1 2.6 0 3.6-2.6 1-3.6 0z"/>
  <path d="M4.5 11.5c-.8-.8-1.9-.9-2.8 0-.9.9-1.7 2.8-1.3 4.1 1.3.4 3.1-.4 4.1-1.3.9-.9.7-2 0-2.8zm-3.1 3.1c-.2-.9.3-2.2 1-2.8s1.4-.6 1.9-.1.6 1.2-.1 1.9-1.9 1.3-2.8 1z"/>
</svg>