<svg width="1em" height="1em" viewBox="0 0 16 16" class="bi bi-blockquote-right" fill="currentColor" xmlns="http://www.w3.org/2000/svg">
  <path fill-rule="evenodd" d="M2.5 3c-.27614236 0-.5.22385764-.5.5 0 .27614236.22385764.5.5.5h11c.27614212 0 .5-.22385764.5-.5 0-.27614236-.22385788-.5-.5-.5h-11zm0 3c-.27614236 0-.5.2238574-.5.5 0 .27614212.22385764.5.5.5h6c.27614212 0 .5-.22385788.5-.5 0-.2761426-.22385788-.5-.5-.5h-6zM2 9.5c0-.27614212.22385764-.5.5-.5h6c.27614212 0 .5.22385788.5.5s-.22385788.5-.5.5h-6c-.27614236 0-.5-.22385788-.5-.5zm.5 2.5c-.27614236 0-.5.22385788-.5.5s.22385764.5.5.5h11c.27614212 0 .5-.22385788.5-.5s-.22385788-.5-.5-.5h-11z"/>
  <path d="M10.4449997 8.54199982c-.11299992.07800007-.26099968.17000007-.4449997.27499962l.21100044.35200023c.12099934-.07399988.27099991-.17000007.45099926-.28700018.1800003-.11800003.35000038-.25999975.51000023-.42799997.15858936-.1675582.292593-.35677862.39799976-.5619998.11000062-.20700025.16400052-.4380002.16400052-.69199991 0-.3590002-.0720005-.64999962-.21700001-.87300015C11.37300014 6.1079998 11.13300037 6 10.79699993 6c-.21500015 0-.38300037.0699997-.5039997.21000004-.125.1449995-.18700028.29899978-.18700028.46299934 0 .23099995.0699997.40400028.21000003.52100039.13700009.12199974.32699967.18199968.56900025.18199968h.28100014c-.02300072.20300007-.06200028.3670001-.11700058.4920001-.05799961.1290002-.1449995.25500012-.25799942.375-.11700058.125-.23200035.2249999-.34600068.29900027zm2.16800022 0c-.11299992.07800007-.26099968.17000007-.4449997.27499962l.21100044.35200023c.12099934-.07399988.27099991-.17000007.45099926-.28700018.1800003-.11800003.35000039-.25999975.51000023-.42799997.15861035-.16754103.2926159-.3567648.39799977-.5619998.1100006-.20700025.1640005-.4380002.1640005-.69199991 0-.3590002-.0720005-.64999962-.217-.87300015C13.54100037 6.1079998 13.3010006 6 12.96500015 6c-.21500015 0-.38300037.0699997-.5039997.21000004-.125.1449995-.18700028.29899978-.18700028.46299934 0 .23099995.0699997.40400028.21000004.52100039.13700008.12199974.32600021.18199968.56900024.18199968h.28100014c-.02300072.20300007-.06400013.36900044-.12300015.49800015-.05900001.12900018-.1420002.25199985-.25199985.36899995-.11700058.125-.23200035.2249999-.34600067.29900027z"/>
</svg>
