<svg width="16" height="16" viewBox="0 0 16 16" fill="none" xmlns="http://www.w3.org/2000/svg">
<path d="M4.78285 0C4.85386 0 4.92412 0.0144225 4.98939 0.0423927L13.2121 3.5664V14.4706L12.1635 14V4.25785L4.68537 1.05296C4.65195 1.05515 4.6111 1.05844 4.56424 1.06338C4.41804 1.07877 4.21984 1.10946 4.00936 1.1696C3.78092 1.23487 3.56505 1.32658 3.38447 1.45179L10.9535 4.69568V16L2.31777 12.299C2.12499 12.2163 2 12.0268 2 11.817V1.65358C2 1.57218 2.01895 1.49191 2.05535 1.4191C2.43484 0.660118 3.17182 0.318322 3.72128 0.161332C4.00485 0.0803117 4.26542 0.0404253 4.45447 0.0205257C4.54961 0.0105113 4.62824 0.0053935 4.68461 0.00277181C4.71283 0.00145911 4.73559 0.000766776 4.75217 0.000402295L4.77237 6.44397e-05L4.77886 1.15941e-05L4.78117 2.34383e-06L4.78285 0C4.78285 0 4.78285 0 4.78285 0.524306V0ZM3.04861 2.44871V11.4713L9.90492 14.4097V5.38713L3.04861 2.44871Z" fill="black"/>
</svg>
