<svg width="16" height="16" viewBox="0 0 16 16" fill="none" xmlns="http://www.w3.org/2000/svg">
<path fill-rule="evenodd" clip-rule="evenodd" d="M4.98939 0.0423927C4.92412 0.0144225 4.85386 0 4.78285 0L4.78117 2.34383e-06L4.77886 1.15941e-05L4.77237 6.44397e-05L4.75217 0.000402295C4.73559 0.000766776 4.71283 0.00145911 4.68461 0.00277181C4.62824 0.0053935 4.54961 0.0105113 4.45447 0.0205257C4.26542 0.0404253 4.00485 0.0803117 3.72128 0.161332C3.17182 0.318322 2.43484 0.660118 2.05535 1.4191C2.01895 1.49191 2 1.57218 2 1.65358V11.817C2 12.0268 2.12499 12.2163 2.31777 12.299L10.9535 16V4.69568L3.38447 1.45179C3.56505 1.32658 3.78092 1.23487 4.00936 1.1696C4.21984 1.10946 4.41804 1.07877 4.56424 1.06338C4.6111 1.05844 4.65195 1.05515 4.68537 1.05296L12.1635 4.25785V14L13.2121 14.4706V3.5664L4.98939 0.0423927Z" fill="black"/>
</svg>
