<svg class="bi bi-bounding-box-circles" width="1em" height="1em" viewBox="0 0 16 16" fill="currentColor" xmlns="http://www.w3.org/2000/svg">
  <path fill-rule="evenodd" d="M12.5 2h-9V1h9v1zm-10 1.5v9h-1v-9h1zm11 9v-9h1v9h-1zM3.5 14h9v1h-9v-1z" clip-rule="evenodd"/>
  <path fill-rule="evenodd" d="M14 3a1 1 0 100-2 1 1 0 000 2zm0 1a2 2 0 100-4 2 2 0 000 4zm0 11a1 1 0 100-2 1 1 0 000 2zm0 1a2 2 0 100-4 2 2 0 000 4zM2 3a1 1 0 100-2 1 1 0 000 2zm0 1a2 2 0 100-4 2 2 0 000 4zm0 11a1 1 0 100-2 1 1 0 000 2zm0 1a2 2 0 100-4 2 2 0 000 4z" clip-rule="evenodd"/>
</svg>