<svg class="bi bi-box-arrow-down" width="1em" height="1em" viewBox="0 0 16 16" fill="currentColor" xmlns="http://www.w3.org/2000/svg">
  <path fill-rule="evenodd" d="M4.646 11.646a.5.5 0 01.708 0L8 14.293l2.646-2.647a.5.5 0 01.708.708l-3 3a.5.5 0 01-.708 0l-3-3a.5.5 0 010-.708z" clip-rule="evenodd"/>
  <path fill-rule="evenodd" d="M8 4.5a.5.5 0 01.5.5v9a.5.5 0 01-1 0V5a.5.5 0 01.5-.5z" clip-rule="evenodd"/>
  <path fill-rule="evenodd" d="M2.5 2A1.5 1.5 0 014 .5h8A1.5 1.5 0 0113.5 2v7a1.5 1.5 0 01-1.5 1.5h-1.5a.5.5 0 010-1H12a.5.5 0 00.5-.5V2a.5.5 0 00-.5-.5H4a.5.5 0 00-.5.5v7a.5.5 0 00.5.5h1.5a.5.5 0 010 1H4A1.5 1.5 0 012.5 9V2z" clip-rule="evenodd"/>
</svg>