<svg width="1em" height="1em" viewBox="0 0 16 16" class="bi bi-box-arrow-in-left" fill="currentColor" xmlns="http://www.w3.org/2000/svg">
  <path fill-rule="evenodd" d="M7.854 11.354a.5.5 0 0 0 0-.708L5.207 8l2.647-2.646a.5.5 0 1 0-.708-.708l-3 3a.5.5 0 0 0 0 .708l3 3a.5.5 0 0 0 .708 0z"/>
  <path fill-rule="evenodd" d="M15 8a.5.5 0 0 0-.5-.5h-9a.5.5 0 0 0 0 1h9A.5.5 0 0 0 15 8z"/>
  <path fill-rule="evenodd" d="M2.5 14.5A1.5 1.5 0 0 1 1 13V3a1.5 1.5 0 0 1 1.5-1.5h8A1.5 1.5 0 0 1 12 3v1.5a.5.5 0 0 1-1 0V3a.5.5 0 0 0-.5-.5h-8A.5.5 0 0 0 2 3v10a.5.5 0 0 0 .5.5h8a.5.5 0 0 0 .5-.5v-1.5a.5.5 0 0 1 1 0V13a1.5 1.5 0 0 1-1.5 1.5h-8z"/>
</svg>