<svg class="bi bi-box-arrow-in-down" width="1em" height="1em" viewBox="0 0 16 16" fill="currentColor" xmlns="http://www.w3.org/2000/svg">
  <path fill-rule="evenodd" d="M4.646 8.146a.5.5 0 0 1 .708 0L8 10.793l2.646-2.647a.5.5 0 0 1 .708.708l-3 3a.5.5 0 0 1-.708 0l-3-3a.5.5 0 0 1 0-.708z"/>
  <path fill-rule="evenodd" d="M8 1a.5.5 0 0 1 .5.5v9a.5.5 0 0 1-1 0v-9A.5.5 0 0 1 8 1z"/>
  <path fill-rule="evenodd" d="M1.5 13.5A1.5 1.5 0 0 0 3 15h10a1.5 1.5 0 0 0 1.5-1.5v-8A1.5 1.5 0 0 0 13 4h-1.5a.5.5 0 0 0 0 1H13a.5.5 0 0 1 .5.5v8a.5.5 0 0 1-.5.5H3a.5.5 0 0 1-.5-.5v-8A.5.5 0 0 1 3 5h1.5a.5.5 0 0 0 0-1H3a1.5 1.5 0 0 0-1.5 1.5v8z"/>
</svg>