<svg class="bi bi-box-arrow-left" width="1em" height="1em" viewBox="0 0 16 16" fill="currentColor" xmlns="http://www.w3.org/2000/svg">
  <path fill-rule="evenodd" d="M4.354 11.354a.5.5 0 000-.708L1.707 8l2.647-2.646a.5.5 0 10-.708-.708l-3 3a.5.5 0 000 .708l3 3a.5.5 0 00.708 0z" clip-rule="evenodd"/>
  <path fill-rule="evenodd" d="M11.5 8a.5.5 0 00-.5-.5H2a.5.5 0 000 1h9a.5.5 0 00.5-.5z" clip-rule="evenodd"/>
  <path fill-rule="evenodd" d="M14 13.5a1.5 1.5 0 001.5-1.5V4A1.5 1.5 0 0014 2.5H7A1.5 1.5 0 005.5 4v1.5a.5.5 0 001 0V4a.5.5 0 01.5-.5h7a.5.5 0 01.5.5v8a.5.5 0 01-.5.5H7a.5.5 0 01-.5-.5v-1.5a.5.5 0 00-1 0V12A1.5 1.5 0 007 13.5h7z" clip-rule="evenodd"/>
</svg>