<svg class="bi bi-box-arrow-down-right" width="1em" height="1em" viewBox="0 0 16 16" fill="currentColor" xmlns="http://www.w3.org/2000/svg">
  <path fill-rule="evenodd" d="M3 1.5A1.5 1.5 0 001.5 3v8A1.5 1.5 0 003 12.5h4a.5.5 0 000-1H3a.5.5 0 01-.5-.5V3a.5.5 0 01.5-.5h8a.5.5 0 01.5.5v4a.5.5 0 001 0V3A1.5 1.5 0 0011 1.5H3zm11 7a.5.5 0 01.5.5v5a.5.5 0 01-.5.5H9a.5.5 0 010-1h4.5V9a.5.5 0 01.5-.5z" clip-rule="evenodd"/>
  <path fill-rule="evenodd" d="M14.354 14.354a.5.5 0 01-.708 0l-8-8a.5.5 0 11.708-.708l8 8a.5.5 0 010 .708z" clip-rule="evenodd"/>
</svg>