<svg class="bi bi-box-arrow-up" width="1em" height="1em" viewBox="0 0 16 16" fill="currentColor" xmlns="http://www.w3.org/2000/svg">
  <path fill-rule="evenodd" d="M4.646 4.354a.5.5 0 0 0 .708 0L8 1.707l2.646 2.647a.5.5 0 0 0 .708-.708l-3-3a.5.5 0 0 0-.708 0l-3 3a.5.5 0 0 0 0 .708z" clip-rule="evenodd"/>
  <path fill-rule="evenodd" d="M8 11.5a.5.5 0 0 0 .5-.5V2a.5.5 0 0 0-1 0v9a.5.5 0 0 0 .5.5z" clip-rule="evenodd"/>
  <path fill-rule="evenodd" d="M2.5 14A1.5 1.5 0 0 0 4 15.5h8a1.5 1.5 0 0 0 1.5-1.5V7A1.5 1.5 0 0 0 12 5.5h-1.5a.5.5 0 0 0 0 1H12a.5.5 0 0 1 .5.5v7a.5.5 0 0 1-.5.5H4a.5.5 0 0 1-.5-.5V7a.5.5 0 0 1 .5-.5h1.5a.5.5 0 0 0 0-1H4A1.5 1.5 0 0 0 2.5 7v7z" clip-rule="evenodd"/>
</svg>