<svg class="bi bi-box-arrow-in-up" width="1em" height="1em" viewBox="0 0 16 16" fill="currentColor" xmlns="http://www.w3.org/2000/svg">
  <path fill-rule="evenodd" d="M4.646 7.854a.5.5 0 0 0 .708 0L8 5.207l2.646 2.647a.5.5 0 0 0 .708-.708l-3-3a.5.5 0 0 0-.708 0l-3 3a.5.5 0 0 0 0 .708z"/>
  <path fill-rule="evenodd" d="M8 15a.5.5 0 0 0 .5-.5v-9a.5.5 0 0 0-1 0v9a.5.5 0 0 0 .5.5z"/>
  <path fill-rule="evenodd" d="M1.5 2.5A1.5 1.5 0 0 1 3 1h10a1.5 1.5 0 0 1 1.5 1.5v8A1.5 1.5 0 0 1 13 12h-1.5a.5.5 0 0 1 0-1H13a.5.5 0 0 0 .5-.5v-8A.5.5 0 0 0 13 2H3a.5.5 0 0 0-.5.5v8a.5.5 0 0 0 .5.5h1.5a.5.5 0 0 1 0 1H3a1.5 1.5 0 0 1-1.5-1.5v-8z"/>
</svg>