<svg class="bi bi-box-arrow-in-right" width="1em" height="1em" viewBox="0 0 16 16" fill="currentColor" xmlns="http://www.w3.org/2000/svg">
  <path fill-rule="evenodd" d="M8.146 11.354a.5.5 0 010-.708L10.793 8 8.146 5.354a.5.5 0 11.708-.708l3 3a.5.5 0 010 .708l-3 3a.5.5 0 01-.708 0z" clip-rule="evenodd"/>
  <path fill-rule="evenodd" d="M1 8a.5.5 0 01.5-.5h9a.5.5 0 010 1h-9A.5.5 0 011 8z" clip-rule="evenodd"/>
  <path fill-rule="evenodd" d="M13.5 14.5A1.5 1.5 0 0015 13V3a1.5 1.5 0 00-1.5-1.5h-8A1.5 1.5 0 004 3v1.5a.5.5 0 001 0V3a.5.5 0 01.5-.5h8a.5.5 0 01.5.5v10a.5.5 0 01-.5.5h-8A.5.5 0 015 13v-1.5a.5.5 0 00-1 0V13a1.5 1.5 0 001.5 1.5h8z" clip-rule="evenodd"/>
</svg>