<svg class="bi bi-box-arrow-in-up-right" width="1em" height="1em" viewBox="0 0 16 16" fill="currentColor" xmlns="http://www.w3.org/2000/svg">
  <path fill-rule="evenodd" d="M14.5 3A1.5 1.5 0 0013 1.5H3A1.5 1.5 0 001.5 3v5a.5.5 0 001 0V3a.5.5 0 01.5-.5h10a.5.5 0 01.5.5v10a.5.5 0 01-.5.5H9a.5.5 0 000 1h4a1.5 1.5 0 001.5-1.5V3z" clip-rule="evenodd"/>
  <path fill-rule="evenodd" d="M4.5 6a.5.5 0 01.5-.5h5a.5.5 0 01.5.5v5a.5.5 0 01-1 0V6.5H5a.5.5 0 01-.5-.5z" clip-rule="evenodd"/>
  <path fill-rule="evenodd" d="M10.354 5.646a.5.5 0 010 .708l-8 8a.5.5 0 01-.708-.708l8-8a.5.5 0 01.708 0z" clip-rule="evenodd"/>
</svg>