<svg class="bi bi-box-arrow-down-left" width="1em" height="1em" viewBox="0 0 16 16" fill="currentColor" xmlns="http://www.w3.org/2000/svg">
  <path fill-rule="evenodd" d="M13 1.5A1.5 1.5 0 0 1 14.5 3v8a1.5 1.5 0 0 1-1.5 1.5H9a.5.5 0 0 1 0-1h4a.5.5 0 0 0 .5-.5V3a.5.5 0 0 0-.5-.5H5a.5.5 0 0 0-.5.5v4a.5.5 0 0 1-1 0V3A1.5 1.5 0 0 1 5 1.5h8zm-11 7a.5.5 0 0 0-.5.5v5a.5.5 0 0 0 .5.5h5a.5.5 0 0 0 0-1H2.5V9a.5.5 0 0 0-.5-.5z" clip-rule="evenodd"/>
  <path fill-rule="evenodd" d="M1.646 14.354a.5.5 0 0 0 .708 0l8-8a.5.5 0 0 0-.708-.708l-8 8a.5.5 0 0 0 0 .708z" clip-rule="evenodd"/>
</svg>