<svg class="bi bi-box-arrow-up-right" width="1em" height="1em" viewBox="0 0 16 16" fill="currentColor" xmlns="http://www.w3.org/2000/svg">
  <path fill-rule="evenodd" d="M1.5 13A1.5 1.5 0 0 0 3 14.5h8a1.5 1.5 0 0 0 1.5-1.5V9a.5.5 0 0 0-1 0v4a.5.5 0 0 1-.5.5H3a.5.5 0 0 1-.5-.5V5a.5.5 0 0 1 .5-.5h4a.5.5 0 0 0 0-1H3A1.5 1.5 0 0 0 1.5 5v8zm7-11a.5.5 0 0 1 .5-.5h5a.5.5 0 0 1 .5.5v5a.5.5 0 0 1-1 0V2.5H9a.5.5 0 0 1-.5-.5z"/>
  <path fill-rule="evenodd" d="M14.354 1.646a.5.5 0 0 1 0 .708l-8 8a.5.5 0 0 1-.708-.708l8-8a.5.5 0 0 1 .708 0z"/>
</svg>