<svg class="bi bi-box-arrow-in-up-left" width="1em" height="1em" viewBox="0 0 16 16" fill="currentColor" xmlns="http://www.w3.org/2000/svg">
  <path fill-rule="evenodd" d="M1.5 3A1.5 1.5 0 0 1 3 1.5h10A1.5 1.5 0 0 1 14.5 3v5a.5.5 0 0 1-1 0V3a.5.5 0 0 0-.5-.5H3a.5.5 0 0 0-.5.5v10a.5.5 0 0 0 .5.5h4a.5.5 0 0 1 0 1H3A1.5 1.5 0 0 1 1.5 13V3z"/>
  <path fill-rule="evenodd" d="M11.5 6a.5.5 0 0 0-.5-.5H6a.5.5 0 0 0-.5.5v5a.5.5 0 0 0 1 0V6.5H11a.5.5 0 0 0 .5-.5z"/>
  <path fill-rule="evenodd" d="M5.646 5.646a.5.5 0 0 0 0 .708l8 8a.5.5 0 0 0 .708-.708l-8-8a.5.5 0 0 0-.708 0z"/>
</svg>