<svg class="bi bi-box" width="1em" height="1em" viewBox="0 0 16 16" fill="currentColor" xmlns="http://www.w3.org/2000/svg">
  <path fill-rule="evenodd" d="M8.186 1.113a.5.5 0 00-.372 0L1.846 3.5 8 5.961 14.154 3.5 8.186 1.113zM15 4.239l-6.5 2.6v7.922l6.5-2.6V4.24zM7.5 14.762V6.838L1 4.239v7.923l6.5 2.6zM7.443.184a1.5 1.5 0 011.114 0l7.129 2.852A.5.5 0 0116 3.5v8.662a1 1 0 01-.629.928l-7.185 2.874a.5.5 0 01-.372 0L.63 13.09a1 1 0 01-.63-.928V3.5a.5.5 0 01.314-.464L7.443.184z" clip-rule="evenodd"/>
</svg>