<svg class="bi bi-braces" width="1em" height="1em" viewBox="0 0 20 20" fill="currentColor" xmlns="http://www.w3.org/2000/svg">
  <path d="M1.114 6.063V5.9c1.005-.102 1.497-.615 1.497-1.6V2.503c0-1.094.39-1.538 1.354-1.538h.273V0h-.376C2.25 0 1.49.759 1.49 2.352v1.524c0 1.094-.376 1.456-1.49 1.456v1.299c1.114 0 1.49.362 1.49 1.456V9.61c0 1.593.759 2.352 2.372 2.352h.376v-.964h-.273c-.964 0-1.354-.444-1.354-1.538V7.663c0-.984-.492-1.497-1.497-1.6zM12.886 5.9v.163c-1.005.103-1.497.616-1.497 1.6v1.798c0 1.094-.39 1.538-1.354 1.538h-.273v.964h.376c1.613 0 2.372-.759 2.372-2.352V8.087c0-1.094.376-1.456 1.49-1.456V5.332c-1.114 0-1.49-.362-1.49-1.456V2.352C12.51.759 11.75 0 10.138 0h-.376v.964h.273c.964 0 1.354.444 1.354 1.538V4.3c0 .984.492 1.497 1.497 1.6z"/>
</svg>