<svg xmlns="http://www.w3.org/2000/svg" width="16" height="16" fill="currentColor" class="bi bi-brain-circuit-fill" viewBox="0 0 16 16">
  <path d="M15.62 14.02a.837.837 0 0 1-.47 1.54c-.47 0-.84-.37-.84-.84 0-.29.15-.55.37-.7v-.06c0-.56-.46-1.03-1.03-1.03l-5.21.06C8.21 14.73 6.7 16 4.99 16a3.484 3.484 0 0 1-3.48-3.62c-.28-.19-.52-.42-.73-.67a3.49 3.49 0 0 1 .23-4.65C.95 6.92.9 6.77.87 6.62c-.24-.91-.11-1.85.37-2.65.41-.69 1.04-1.21 1.78-1.49C3.15 1.09 4.32 0 5.74 0h.01c.73 0 1.41.29 1.93.81s.79 1.19.79 1.93v1.79l3.2-.06V2.68c0-.81.49-1.51 1.19-1.82a.83.83 0 0 1 .79-.53c.47 0 .84.37.84.84s-.37.85-.84.85c-.22 0-.41-.08-.56-.22-.29.18-.48.51-.48.88v1.79h1.84c.15-.23.41-.38.7-.38a.85.85 0 1 1 0 1.7c-.29 0-.55-.15-.7-.38l-5.98.06v2.81l2.97-.06a.847.847 0 0 1 1.55.47c0 .46-.38.86-.85.86a.81.81 0 0 1-.7-.39l-2.97.06v2.83l5.18-.06c1.09 0 1.97.89 1.97 1.97z"/>
</svg>