<svg xmlns="http://www.w3.org/2000/svg" width="16" height="16" fill="currentColor" class="bi bi-brain-circuit" viewBox="0 0 16 16">
  <path d="M15.62 14.02a.837.837 0 0 1-.47 1.54c-.47 0-.84-.37-.84-.84 0-.29.15-.55.37-.7v-.06c0-.56-.46-1.03-1.03-1.03l-5.21.06C8.21 14.73 6.7 16 4.99 16a3.484 3.484 0 0 1-3.48-3.62c-.28-.19-.52-.42-.73-.67a3.49 3.49 0 0 1 .23-4.65C.95 6.92.9 6.77.87 6.62c-.24-.91-.11-1.85.37-2.65.41-.69 1.04-1.21 1.78-1.49C3.15 1.09 4.32 0 5.74 0h.01c.73 0 1.41.29 1.93.81s.79 1.19.79 1.93v1.79l3.2-.06V2.68c0-.81.49-1.51 1.19-1.82a.83.83 0 0 1 .79-.53c.47 0 .84.37.84.84s-.37.85-.84.85c-.22 0-.41-.08-.56-.22-.29.18-.48.51-.48.88v1.79h1.84c.15-.23.41-.38.7-.38a.85.85 0 1 1 0 1.7c-.29 0-.55-.15-.7-.38l-5.98.06v2.81l2.97-.06a.847.847 0 0 1 1.55.47c0 .46-.38.86-.85.86a.81.81 0 0 1-.7-.39l-2.97.06v2.83l5.18-.06c1.09 0 1.97.89 1.97 1.97zM7.53 2.73c0-.47-.18-.92-.52-1.26S6.22.94 5.75.94c-.98 0-1.79.8-1.79 1.78 0 .02 0 .05-.01.07l.01.02c.02.29.1.57.25.82.12.23.05.51-.18.64-.08.04-.15.07-.24.07-.16 0-.32-.09-.4-.24-.11-.19-.21-.41-.26-.64-.45.22-.81.56-1.07.99-.35.59-.44 1.27-.27 1.93l.03.09c.22-.14.5-.05.63.17.12.23.05.52-.19.64-.12.08-.25.16-.37.26-1.09.88-1.25 2.48-.36 3.58.19.24.44.45.71.61.39.2.82.32 1.25.32.27 0 .47.21.47.47s-.2.47-.47.47c-.34 0-.68-.05-1.01-.16a2.536 2.536 0 0 0 2.19 2.21c1.4.19 2.67-.81 2.85-2.19.01-.12.02-.22.02-.33V8.09c-.42.49-.98.89-1.63 1.11-.05.02-.1.02-.16.02a.45.45 0 0 1-.44-.31c-.09-.24.04-.51.28-.6a2.91 2.91 0 0 0 1.95-2.59V2.74Z"/>
</svg>