<svg xmlns="http://www.w3.org/2000/svg" width="16" height="16" fill="currentColor" class="bi bi-brain-fill" viewBox="0 0 16 16">
  <path d="M5.29 9.38c.07.25.34.39.58.32.65-.2 1.23-.56 1.66-1.04v5.29c0 .68-.34 1.34-.94 1.65-.49.25-1.03.39-1.6.39-.96 0-1.84-.39-2.46-1.03a3.4 3.4 0 0 1-1.02-2.45c0-.05 0-.09.01-.14-.18-.12-.35-.26-.5-.41C.37 11.3 0 10.43 0 9.5s.38-1.8 1.01-2.45C.95 6.91.9 6.75.87 6.6c-.24-.9-.11-1.84.36-2.64.42-.7 1.05-1.21 1.8-1.5A2.71 2.71 0 0 1 5.74 0c.99 0 1.79.81 1.79 1.8v4.44c0 1.17-.79 2.23-1.92 2.56-.25.06-.4.33-.32.58m5.42 0c-.07.25-.34.39-.58.32-.65-.2-1.23-.56-1.66-1.04v5.29c0 .68.34 1.34.94 1.65.49.25 1.03.39 1.6.39.96 0 1.84-.39 2.46-1.03.64-.62 1.02-1.49 1.02-2.45 0-.05 0-.09-.01-.14.18-.12.35-.26.5-.41.65-.66 1.02-1.53 1.02-2.46s-.38-1.8-1.01-2.45c.06-.14.11-.3.14-.45.24-.9.11-1.84-.36-2.64-.42-.7-1.05-1.21-1.8-1.5A2.71 2.71 0 0 0 10.26 0c-.99 0-1.79.81-1.79 1.8v4.44c0 1.17.79 2.23 1.92 2.56.25.06.4.33.32.58"/>
</svg>