<svg width="1em" height="1em" viewBox="0 0 16 16" class="bi bi-bricks" fill="currentColor" xmlns="http://www.w3.org/2000/svg">
  <path fill-rule="evenodd" d="M15 13H1v2h14v-2zM1 12a1 1 0 0 0-1 1v2a1 1 0 0 0 1 1h14a1 1 0 0 0 1-1v-2a1 1 0 0 0-1-1H1zm14-5H1v2h14V7zM1 6a1 1 0 0 0-1 1v2a1 1 0 0 0 1 1h14a1 1 0 0 0 1-1V7a1 1 0 0 0-1-1H1z"/>
  <path fill-rule="evenodd" d="M13 10H3v2h10v-2zM3 9a1 1 0 0 0-1 1v2a1 1 0 0 0 1 1h10a1 1 0 0 0 1-1v-2a1 1 0 0 0-1-1H3zm10-5H3v2h10V4zM3 3a1 1 0 0 0-1 1v2a1 1 0 0 0 1 1h10a1 1 0 0 0 1-1V4a1 1 0 0 0-1-1H3z"/>
  <path fill-rule="evenodd" d="M15 1H1v2h14V1zM1 0a1 1 0 0 0-1 1v2a1 1 0 0 0 1 1h14a1 1 0 0 0 1-1V1a1 1 0 0 0-1-1H1z"/>
  <path fill-rule="evenodd" d="M5.5 1v2h-1V1h1zm6 0v2h-1V1h1zm-4 5V4h1v2h-1zm-2 1v2h-1V7h1zm6 0v2h-1V7h1zm-4 5v-2h1v2h-1zm-3 3v-2h1v2h-1zm6 0v-2h1v2h-1z"/>
</svg>