<svg class="bi bi-brightness-alt-high" width="1em" height="1em" viewBox="0 0 16 16" fill="currentColor" xmlns="http://www.w3.org/2000/svg">
  <path fill-rule="evenodd" d="M5.041 10.5h5.918a3 3 0 00-5.918 0zM4 11a4 4 0 118 0 .5.5 0 01-.5.5h-7A.5.5 0 014 11zm4-8a.5.5 0 01.5.5v2a.5.5 0 01-1 0v-2A.5.5 0 018 3zm8 8a.5.5 0 01-.5.5h-2a.5.5 0 010-1h2a.5.5 0 01.5.5zM3 11a.5.5 0 01-.5.5h-2a.5.5 0 010-1h2a.5.5 0 01.5.5zm10.657-5.657a.5.5 0 010 .707l-1.414 1.414a.5.5 0 11-.707-.707l1.414-1.414a.5.5 0 01.707 0zM4.464 7.464a.5.5 0 01-.707 0L2.343 6.05a.5.5 0 01.707-.707l1.414 1.414a.5.5 0 010 .707z" clip-rule="evenodd"/>
</svg>