<svg class="bi bi-brightness-low" width="1em" height="1em" viewBox="0 0 16 16" fill="currentColor" xmlns="http://www.w3.org/2000/svg">
  <path fill-rule="evenodd" d="M8 11a3 3 0 100-6 3 3 0 000 6zm0 1a4 4 0 100-8 4 4 0 000 8z" clip-rule="evenodd"/>
  <circle cx="8" cy="2.5" r=".5"/>
  <circle cx="8" cy="13.5" r=".5"/>
  <circle cx="13.5" cy="8" r=".5" transform="rotate(90 13.5 8)"/>
  <circle cx="2.5" cy="8" r=".5" transform="rotate(90 2.5 8)"/>
  <circle cx="11.889" cy="4.111" r=".5" transform="rotate(45 11.89 4.11)"/>
  <circle cx="4.111" cy="11.889" r=".5" transform="rotate(45 4.11 11.89)"/>
  <circle cx="11.889" cy="11.889" r=".5" transform="rotate(135 11.89 11.889)"/>
  <circle cx="4.111" cy="4.111" r=".5" transform="rotate(135 4.11 4.11)"/>
</svg>