<svg width="1em" height="1em" viewBox="0 0 16 16" class="bi bi-calendar-week" fill="currentColor" xmlns="http://www.w3.org/2000/svg">
  <path fill-rule="evenodd" d="M1 4v10a1 1 0 0 0 1 1h12a1 1 0 0 0 1-1V4H1zm1-3a2 2 0 0 0-2 2v11a2 2 0 0 0 2 2h12a2 2 0 0 0 2-2V3a2 2 0 0 0-2-2H2z"/>
  <path fill-rule="evenodd" d="M3.5 0a.5.5 0 0 1 .5.5V1a.5.5 0 0 1-1 0V.5a.5.5 0 0 1 .5-.5zm9 0a.5.5 0 0 1 .5.5V1a.5.5 0 0 1-1 0V.5a.5.5 0 0 1 .5-.5z"/>
  <path d="M11 6.5a.5.5 0 0 1 .5-.5h1a.5.5 0 0 1 .5.5v1a.5.5 0 0 1-.5.5h-1a.5.5 0 0 1-.5-.5v-1zm-3 0a.5.5 0 0 1 .5-.5h1a.5.5 0 0 1 .5.5v1a.5.5 0 0 1-.5.5h-1a.5.5 0 0 1-.5-.5v-1zm-5 3a.5.5 0 0 1 .5-.5h1a.5.5 0 0 1 .5.5v1a.5.5 0 0 1-.5.5h-1a.5.5 0 0 1-.5-.5v-1zm3 0a.5.5 0 0 1 .5-.5h1a.5.5 0 0 1 .5.5v1a.5.5 0 0 1-.5.5h-1a.5.5 0 0 1-.5-.5v-1z"/>
</svg>