<svg width="1em" height="1em" viewBox="0 0 16 16" class="bi bi-calendar2-date" fill="currentColor" xmlns="http://www.w3.org/2000/svg">
  <path d="M6.445 12.438V7.104h-.633A12.6 12.6 0 0 0 4.5 7.91v.695c.375-.257.969-.62 1.258-.777h.012v4.61h.675zm1.188-1.305c.047.64.594 1.406 1.703 1.406 1.258 0 2-1.066 2-2.871C11.336 7.734 10.555 7 9.383 7c-.926 0-1.797.672-1.797 1.809 0 1.16.824 1.77 1.676 1.77.746 0 1.23-.376 1.383-.79h.027c-.004 1.316-.461 2.164-1.305 2.164-.664 0-1.008-.45-1.05-.82h-.684zm2.953-2.317c0 .696-.559 1.18-1.184 1.18-.601 0-1.144-.383-1.144-1.2 0-.823.582-1.21 1.168-1.21.633 0 1.16.398 1.16 1.23z"/>
  <path fill-rule="evenodd" d="M14 2H2a1 1 0 0 0-1 1v11a1 1 0 0 0 1 1h12a1 1 0 0 0 1-1V3a1 1 0 0 0-1-1zM2 1a2 2 0 0 0-2 2v11a2 2 0 0 0 2 2h12a2 2 0 0 0 2-2V3a2 2 0 0 0-2-2H2z"/>
  <path fill-rule="evenodd" d="M3.5 0a.5.5 0 0 1 .5.5V1a.5.5 0 0 1-1 0V.5a.5.5 0 0 1 .5-.5zm9 0a.5.5 0 0 1 .5.5V1a.5.5 0 0 1-1 0V.5a.5.5 0 0 1 .5-.5z"/>
  <path d="M2.5 4a.5.5 0 0 1 .5-.5h10a.5.5 0 0 1 .5.5v1a.5.5 0 0 1-.5.5H3a.5.5 0 0 1-.5-.5V4z"/>
</svg>