<svg xmlns="http://www.w3.org/2000/svg" width="16" height="16" fill="currentColor" class="bi bi-capsule" viewBox="0 0 16 16">
  <mask id="a">
    <path d="M1.828 14.556a4 4 0 0 1 0-5.657L5.3 5.43l5.657 5.656-3.47 3.471a4 4 0 0 1-5.658 0Z"/>
    <path d="M1.828 14.556a4 4 0 0 1 0-5.657L8.9 1.83a4 4 0 0 1 5.657 5.656l-7.07 7.071a4 4 0 0 1-5.658 0Z"/>
  </mask>
  <path d="M7.132 14.203a3.5 3.5 0 0 1-4.95 0l-.707.707a4.5 4.5 0 0 0 6.364 0l-.707-.707ZM1.475 8.546a4.5 4.5 0 0 0 0 6.364l.707-.707a3.5 3.5 0 0 1 0-4.95l-.707-.707Zm3.824-3.117.707-.708-.707-.707-.707.707.707.708Zm5.657 5.656.707.707.707-.707-.707-.707-.707.707Zm3.6-3.6.708.707-.708-.707ZM8.9 1.828l-.708-.707.707.707ZM2.535 9.607l3.47-3.471L4.592 4.72l-3.47 3.471 1.414 1.415Zm2.056-3.471 5.657 5.657 1.414-1.415-5.657-5.657-1.414 1.415Zm5.657 4.242L6.78 13.85l1.413 1.414 3.471-3.47-1.414-1.415Zm-7.713-.771 7.07-7.071L8.193 1.12l-7.07 7.071 1.414 1.415Zm11.313-2.829L6.78 13.85l1.413 1.414 7.072-7.07-1.415-1.415Zm0-4.242a3 3 0 0 1 0 4.242l1.415 1.414a5 5 0 0 0 0-7.07l-1.415 1.414Zm-4.242 0a3 3 0 0 1 4.242 0l1.415-1.415a5 5 0 0 0-7.072 0l1.415 1.415Z" mask="url(#a)"/>
</svg>