<svg class="bi bi-card-image" width="1em" height="1em" viewBox="0 0 16 16" fill="currentColor" xmlns="http://www.w3.org/2000/svg">
  <path fill-rule="evenodd" d="M14.5 3h-13a.5.5 0 0 0-.5.5v9a.5.5 0 0 0 .5.5h13a.5.5 0 0 0 .5-.5v-9a.5.5 0 0 0-.5-.5zm-13-1A1.5 1.5 0 0 0 0 3.5v9A1.5 1.5 0 0 0 1.5 14h13a1.5 1.5 0 0 0 1.5-1.5v-9A1.5 1.5 0 0 0 14.5 2h-13z" clip-rule="evenodd"/>
  <path d="M10.648 7.646a.5.5 0 0 1 .577-.093L15.002 9.5V13h-14v-1l2.646-2.354a.5.5 0 0 1 .63-.062l2.66 1.773 3.71-3.71z"/>
  <path fill-rule="evenodd" d="M4.502 7a1.5 1.5 0 1 0 0-3 1.5 1.5 0 0 0 0 3z" clip-rule="evenodd"/>
</svg>