<svg class="bi bi-card-list" width="1em" height="1em" viewBox="0 0 16 16" fill="currentColor" xmlns="http://www.w3.org/2000/svg">
  <path fill-rule="evenodd" d="M14.5 3h-13a.5.5 0 00-.5.5v9a.5.5 0 00.5.5h13a.5.5 0 00.5-.5v-9a.5.5 0 00-.5-.5zm-13-1A1.5 1.5 0 000 3.5v9A1.5 1.5 0 001.5 14h13a1.5 1.5 0 001.5-1.5v-9A1.5 1.5 0 0014.5 2h-13z" clip-rule="evenodd"/>
  <path fill-rule="evenodd" d="M5 8a.5.5 0 01.5-.5h7a.5.5 0 010 1h-7A.5.5 0 015 8zm0-2.5a.5.5 0 01.5-.5h7a.5.5 0 010 1h-7a.5.5 0 01-.5-.5zm0 5a.5.5 0 01.5-.5h7a.5.5 0 010 1h-7a.5.5 0 01-.5-.5z" clip-rule="evenodd"/>
  <circle cx="3.5" cy="5.5" r=".5"/>
  <circle cx="3.5" cy="8" r=".5"/>
  <circle cx="3.5" cy="10.5" r=".5"/>
</svg>