<svg class="bi bi-cart-check" width="1em" height="1em" viewBox="0 0 16 16" fill="currentColor" xmlns="http://www.w3.org/2000/svg">
  <path fill-rule="evenodd" d="M11.354 5.646a.5.5 0 010 .708l-3 3a.5.5 0 01-.708 0l-1.5-1.5a.5.5 0 11.708-.708L8 8.293l2.646-2.647a.5.5 0 01.708 0z" clip-rule="evenodd"/>
  <path fill-rule="evenodd" d="M0 1.5A.5.5 0 01.5 1H2a.5.5 0 01.485.379L2.89 3H14.5a.5.5 0 01.491.592l-1.5 8A.5.5 0 0113 12H4a.5.5 0 01-.491-.408L2.01 3.607 1.61 2H.5a.5.5 0 01-.5-.5zM3.102 4l1.313 7h8.17l1.313-7H3.102zM5 12a2 2 0 100 4 2 2 0 000-4zm7 0a2 2 0 100 4 2 2 0 000-4zm-7 1a1 1 0 100 2 1 1 0 000-2zm7 0a1 1 0 100 2 1 1 0 000-2z" clip-rule="evenodd"/>
</svg>