<svg class="bi bi-chat-square-quote" width="1em" height="1em" viewBox="0 0 16 16" fill="currentColor" xmlns="http://www.w3.org/2000/svg">
  <path fill-rule="evenodd" d="M14 1H2a1 1 0 00-1 1v8a1 1 0 001 1h2.5a2 2 0 011.6.8L8 14.333 9.9 11.8a2 2 0 011.6-.8H14a1 1 0 001-1V2a1 1 0 00-1-1zM2 0a2 2 0 00-2 2v8a2 2 0 002 2h2.5a1 1 0 01.8.4l1.9 2.533a1 1 0 001.6 0l1.9-2.533a1 1 0 01.8-.4H14a2 2 0 002-2V2a2 2 0 00-2-2H2z" clip-rule="evenodd"/>
  <path d="M7.468 5.667c0 .92-.776 1.666-1.734 1.666S4 6.587 4 5.667C4 4.747 4.776 4 5.734 4s1.734.746 1.734 1.667z"/>
  <path fill-rule="evenodd" d="M6.157 4.936a.438.438 0 01-.56.293.413.413 0 01-.274-.527c.08-.23.23-.44.477-.546a.891.891 0 01.698.014c.387.16.72.545.923.997.428.948.393 2.377-.942 3.706a.446.446 0 01-.612.01.405.405 0 01-.011-.59c1.093-1.087 1.058-2.158.77-2.794-.152-.336-.354-.514-.47-.563z" clip-rule="evenodd"/>
  <path d="M11.803 5.667c0 .92-.776 1.666-1.734 1.666-.957 0-1.734-.746-1.734-1.666 0-.92.777-1.667 1.734-1.667.958 0 1.734.746 1.734 1.667z"/>
  <path fill-rule="evenodd" d="M10.492 4.936a.438.438 0 01-.56.293.413.413 0 01-.274-.527c.08-.23.23-.44.477-.546a.891.891 0 01.698.014c.387.16.72.545.924.997.428.948.392 2.377-.942 3.706a.446.446 0 01-.613.01.405.405 0 01-.011-.59c1.093-1.087 1.058-2.158.77-2.794-.152-.336-.354-.514-.469-.563z" clip-rule="evenodd"/>
</svg>