<svg xmlns="http://www.w3.org/2000/svg" width="20" height="20" class="bi" viewBox="0 0 20 20" fill="currentColor">
  <path fill-rule="evenodd" d="M7.5 14s.65.65.117 1.948A4.821 4.821 0 017 17c.449 0 .887-.067 1.307-.181C10.692 16.169 12.5 14 12.5 14a5.5 5.5 0 100-11h-5a5.5 5.5 0 100 11zm1.265 1.598a7.65 7.65 0 001.51-.898 10.22 10.22 0 001.37-1.242c.032-.036.056-.062.07-.08l.016-.017.001-.002.768.641v-1a4.5 4.5 0 100-9h-5a4.5 4.5 0 000 9v1c.707-.707.708-.706.708-.706l.002.001.002.003.006.005.012.013a1.28 1.28 0 01.098.115c.052.067.114.156.176.266.126.223.251.534.3.929.038.3.03.624-.04.972z" clip-rule="evenodd"/>
</svg>
