<svg class="bi bi-check-all" width="1em" height="1em" viewBox="0 0 16 16" fill="currentColor" xmlns="http://www.w3.org/2000/svg">
  <path fill-rule="evenodd" d="M15.854 3.646a.5.5 0 010 .708l-7 7a.5.5 0 01-.708 0l-3.5-3.5a.5.5 0 11.708-.708L8.5 10.293l6.646-6.647a.5.5 0 01.708 0z" clip-rule="evenodd"/>
  <path stroke="#fff" stroke-linecap="round" stroke-linejoin="round" d="M12.354 3.646l.353-.353a1 1 0 010 1.414l-7 7a1 1 0 01-1.414 0l-3.5-3.5m11.56-4.56L.794 8.206m11.56-4.56l.354-.354a1 1 0 00-1.414 0l.353.353m.708 0h-.708M.793 8.207a1 1 0 011.414-1.414L5 9.586l6.293-6.293.353.353M.793 8.207l10.853-4.56"/>
</svg>