<svg class="bi bi-check-all" width="1em" height="1em" viewBox="0 0 16 16" fill="currentColor" xmlns="http://www.w3.org/2000/svg">
  <path fill-rule="evenodd" d="M12.97 4.97a.75.75 0 0 1 1.071 1.05l-3.992 4.99a.75.75 0 0 1-1.08.02L6.324 8.384a.75.75 0 1 1 1.06-1.06l2.094 2.093 3.473-4.425a.236.236 0 0 1 .02-.022z" clip-rule="evenodd"/>
  <path stroke="#fff" stroke-linecap="round" stroke-linejoin="round" d="M8.616 4.616h0a.752.752 0 0 0-.06.067h0L5.432 8.664 3.737 6.97A1.25 1.25 0 1 0 1.97 8.737l2.646 2.647a1.25 1.25 0 0 0 1.823-.062s0 0 0 0l3.98-4.975a1.25 1.25 0 0 0-.035-1.73l-.352.351.352-.352a1.25 1.25 0 0 0-1.768 0z"/>
</svg>