<svg width="16" height="16" viewBox="0 0 16 16" fill="none" xmlns="http://www.w3.org/2000/svg">
<path d="M10.9394 1.76781L14.4749 5.30334C14.6701 5.4986 14.6701 5.81518 14.4749 6.01045C14.2796 6.20571 13.963 6.20571 13.7678 6.01045L13.4142 5.65689L4.92894 14.1422C4.22184 14.8493 2.8462 14.8879 2.10052 14.1422C1.39341 13.4351 1.39342 12.0209 2.10052 11.3138L10.5858 2.82847L10.2322 2.47491C10.037 2.27965 10.037 1.96307 10.2322 1.76781C10.4275 1.57254 10.7441 1.57254 10.9394 1.76781ZM12.7071 4.94979L11.2929 3.53557L7.7574 7.07113L10.5 7L12.7071 4.94979ZM7.05024 9.1924C7.2455 8.99713 7.2455 8.68055 7.05024 8.48529C6.85498 8.29003 6.53839 8.29003 6.34313 8.48529L2.8076 12.0208C2.61234 12.2161 2.61234 12.5327 2.8076 12.7279C3.00286 12.9232 3.31944 12.9232 3.51471 12.7279L7.05024 9.1924Z" fill="black"/>
<path d="M10.5858 6.36396C10.3905 6.55922 10.0739 6.55922 9.87868 6.36396C9.68341 6.16869 9.68341 5.85211 9.87868 5.65685C10.0739 5.46159 10.3905 5.46159 10.5858 5.65685C10.781 5.85211 10.781 6.16869 10.5858 6.36396Z" fill="black"/>
<path d="M14.1213 4.24263C13.9261 4.4379 13.6095 4.4379 13.4142 4.24263C13.2189 4.04737 13.2189 3.73079 13.4142 3.53553C13.6095 3.34027 13.9261 3.34027 14.1213 3.53553C14.3166 3.73079 14.3166 4.04737 14.1213 4.24263Z" fill="black"/>
<path d="M13.4142 2.12131C13.2189 2.31658 12.9024 2.31658 12.7071 2.12131C12.5118 1.92605 12.5118 1.60947 12.7071 1.41421C12.9024 1.21895 13.2189 1.21895 13.4142 1.41421C13.6095 1.60947 13.6095 1.92605 13.4142 2.12131Z" fill="black"/>
</svg>
