<svg class="bi bi-clipboard-data" width="1em" height="1em" viewBox="0 0 16 16" fill="currentColor" xmlns="http://www.w3.org/2000/svg">
  <path fill-rule="evenodd" d="M4 1.5H3a2 2 0 00-2 2V14a2 2 0 002 2h10a2 2 0 002-2V3.5a2 2 0 00-2-2h-1v1h1a1 1 0 011 1V14a1 1 0 01-1 1H3a1 1 0 01-1-1V3.5a1 1 0 011-1h1v-1z" clip-rule="evenodd"/>
  <path fill-rule="evenodd" d="M9.5 1h-3a.5.5 0 00-.5.5v1a.5.5 0 00.5.5h3a.5.5 0 00.5-.5v-1a.5.5 0 00-.5-.5zm-3-1A1.5 1.5 0 005 1.5v1A1.5 1.5 0 006.5 4h3A1.5 1.5 0 0011 2.5v-1A1.5 1.5 0 009.5 0h-3z" clip-rule="evenodd"/>
  <path d="M4 11a1 1 0 112 0v1a1 1 0 11-2 0v-1zm6-4a1 1 0 112 0v5a1 1 0 11-2 0V7zM7 9a1 1 0 012 0v3a1 1 0 11-2 0V9z"/>
</svg>