<svg class="bi bi-clipboard" width="1em" height="1em" viewBox="0 0 20 20" fill="currentColor" xmlns="http://www.w3.org/2000/svg">
  <path fill-rule="evenodd" d="M6 3.5H5a2 2 0 00-2 2V16a2 2 0 002 2h10a2 2 0 002-2V5.5a2 2 0 00-2-2h-1v1h1a1 1 0 011 1V16a1 1 0 01-1 1H5a1 1 0 01-1-1V5.5a1 1 0 011-1h1v-1z" clip-rule="evenodd"/>
  <path fill-rule="evenodd" d="M11.5 3h-3a.5.5 0 00-.5.5v1a.5.5 0 00.5.5h3a.5.5 0 00.5-.5v-1a.5.5 0 00-.5-.5zm-3-1A1.5 1.5 0 007 3.5v1A1.5 1.5 0 008.5 6h3A1.5 1.5 0 0013 4.5v-1A1.5 1.5 0 0011.5 2h-3z" clip-rule="evenodd"/>
</svg>