<svg class="bi bi-cloud-upload" width="1em" height="1em" viewBox="0 0 16 16" fill="currentColor" xmlns="http://www.w3.org/2000/svg">
  <path d="M4.887 6.2l-.964-.165A2.5 2.5 0 103.5 11H6v1H3.5a3.5 3.5 0 11.59-6.95 5.002 5.002 0 119.804 1.98A2.501 2.501 0 0113.5 12H10v-1h3.5a1.5 1.5 0 00.237-2.981L12.7 7.854l.216-1.028a4 4 0 10-7.843-1.587l-.185.96z"/>
  <path fill-rule="evenodd" d="M5 8.854a.5.5 0 00.707 0L8 6.56l2.293 2.293A.5.5 0 1011 8.146L8.354 5.5a.5.5 0 00-.708 0L5 8.146a.5.5 0 000 .708z" clip-rule="evenodd"/>
  <path fill-rule="evenodd" d="M8 6a.5.5 0 01.5.5v8a.5.5 0 01-1 0v-8A.5.5 0 018 6z" clip-rule="evenodd"/>
</svg>