<svg class="bi bi-collection-play" width="1em" height="1em" viewBox="0 0 16 16" fill="currentColor" xmlns="http://www.w3.org/2000/svg">
  <path fill-rule="evenodd" d="M14.5 13.5h-13A.5.5 0 011 13V6a.5.5 0 01.5-.5h13a.5.5 0 01.5.5v7a.5.5 0 01-.5.5zm-13 1A1.5 1.5 0 010 13V6a1.5 1.5 0 011.5-1.5h13A1.5 1.5 0 0116 6v7a1.5 1.5 0 01-1.5 1.5h-13zM2 3a.5.5 0 00.5.5h11a.5.5 0 000-1h-11A.5.5 0 002 3zm2-2a.5.5 0 00.5.5h7a.5.5 0 000-1h-7A.5.5 0 004 1z" clip-rule="evenodd"/>
  <path fill-rule="evenodd" d="M6.258 6.563a.5.5 0 01.507.013l4 2.5a.5.5 0 010 .848l-4 2.5A.5.5 0 016 12V7a.5.5 0 01.258-.437z" clip-rule="evenodd"/>
</svg>