<svg class="bi bi-columns-gap" width="1em" height="1em" viewBox="0 0 16 16" fill="currentColor" xmlns="http://www.w3.org/2000/svg">
  <g fill-rule="evenodd" clip-path="url(#clip0)" clip-rule="evenodd">
    <path d="M6 1H1v3h5V1zM1 0a1 1 0 00-1 1v3a1 1 0 001 1h5a1 1 0 001-1V1a1 1 0 00-1-1H1zm14 12h-5v3h5v-3zm-5-1a1 1 0 00-1 1v3a1 1 0 001 1h5a1 1 0 001-1v-3a1 1 0 00-1-1h-5zM6 8H1v7h5V8zM1 7a1 1 0 00-1 1v7a1 1 0 001 1h5a1 1 0 001-1V8a1 1 0 00-1-1H1zm14-6h-5v7h5V1zm-5-1a1 1 0 00-1 1v7a1 1 0 001 1h5a1 1 0 001-1V1a1 1 0 00-1-1h-5z"/>
  </g>
  <defs>
    <clipPath id="clip0">
      <path d="M0 0h16v16H0z"/>
    </clipPath>
  </defs>
</svg>