<svg xmlns="http://www.w3.org/2000/svg" width="16" height="16" fill="currentColor" class="bi bi-currency-shekel" viewBox="0 0 16 16">
  <path d="M9.22 2.913C8.455 2.159 7.28 2 5.856 2H3v12h1.429V3.412h1.428c1.434 0 2.044.194 2.352.499.309.305.505.907.505 2.324v4.942h1.429V6.235c0-1.406-.16-2.568-.924-3.322Z"/>
  <path fill-rule="evenodd" d="M13 2v7.765c0 1.406-.16 2.569-.924 3.322-.762.754-1.938.913-3.362.913H5.857V4.824h1.429v7.764h1.427c1.434 0 2.045-.194 2.353-.499.309-.305.505-.908.505-2.324V2H13Z"/>
</svg>