<svg xmlns="http://www.w3.org/2000/svg" width="16" height="16" fill="currentColor" class="bi bi-data-matrix-scan" viewBox="0 0 16 16">
  <path d="M0 .5A.5.5 0 0 1 .5 0h3a.5.5 0 1 1 0 1H1v2.5a.5.5 0 1 1-1 0v-3Zm12 0a.5.5 0 0 1 .5-.5h3a.5.5 0 0 1 .5.5v3a.5.5 0 0 1-1 0V1h-2.5a.5.5 0 0 1-.5-.5ZM.5 12a.5.5 0 0 1 .5.5V15h2.5a.5.5 0 0 1 0 1h-3a.5.5 0 0 1-.5-.5v-3a.5.5 0 0 1 .5-.5Zm15 0a.5.5 0 0 1 .5.5v3a.5.5 0 0 1-.5.5h-3a.5.5 0 0 1 0-1H15v-2.5a.5.5 0 0 1 .5-.5Z"/>
  <path d="M2 2v12h12v-1h-1v-1h-1v1h-1v-1h1v-1h1v-1h-2v1H9v1h1v1H9v-1H8v-1H7v2H5v-1h1v-2H5v1H4v1H3v-2h2V9H4V8H3V7h1v1h2v1h2v1h1V9h1V8h1V7H9v1H8V7H7V6h1V5h1v1h1V5h1V2h-1v2H9V2H8v2H7v1H6v2H5V6H4V4H3V2H2Zm2 2h1V2H4v2Zm7 3h1V6h-1v1zm1-1h2V5h-2v1zm1 4h1V9h-1v1zm0-1V8h-1v1h1zm0-1h1V7h-1v1zm0 3v1h1v-1h-1zM6 2v1h1V2H6Zm6 0v2h2V3h-1V2h-1z"/>
</svg>