<svg xmlns="http://www.w3.org/2000/svg" width="16" height="16" fill="currentColor" class="bi bi-data-matrix" viewBox="0 0 16 16">
  <path d="M0 0v16h16v-1h-1v-1h-1v1h-1v-1h1v-1h1v-1h1v-1h-2v1h-1v1h-3v1H9v1H7v-1h1v-1H6v1H5v-1h1v-2H3v1h1v2H3v-1H1v-2h2V8H2V7h1V6h1V5h1V4h1V3h1V2h1V1H7V0H6v2H5v1H4v1H3v1H1V3h2V0H2v2H1V0H0Zm8 1h1V0H8v1Zm0 1v1h1v1h1V2H8Zm2 2v1H9V4H8v2h1v1h2v1h2V7h-1V6h1V5h-1V4h-2zm3 1h1v1h2V5h-1V4h-1V3h-1v2zm2-1h1V3h-1v1zM8 6H7V5H5v1H4v1h2v1h1v1H5v1h1v1h1v-1h2V8H8V6Zm1 4v1h1v-1H9zm1 0h1V9h-1v1zm-1 1H7v1h1v1h2v-1H9v-1zM4 7H3v1h1V7Zm4-3V3H7v1h1Zm7 9v1h1v-1h-1zM4 0v1h1V0H4Zm6 0v1h1V0h-1zm2 0v1h1V0h-1zm2 0v1h1V0h-1zm1 1v1h1V1h-1zm-1 6v1h2V7h-2zM1 9h1v1H1V9Zm13 0v1h2V9h-2zm-2 1v1h1v-1h-1zm-1 4h1v1h-1v-1z"/>
</svg>