<svg width="20" height="20" viewBox="0 0 20 20" fill="none" xmlns="http://www.w3.org/2000/svg">
<path fill-rule="evenodd" clip-rule="evenodd" d="M8.93931 2.35355C9.5251 1.76777 10.4748 1.76777 11.0606 2.35355L17.6464 8.93934C18.2322 9.52513 18.2322 10.4749 17.6464 11.0607L11.0606 17.6464C10.4748 18.2322 9.5251 18.2322 8.93931 17.6464L2.35352 11.0607C1.76774 10.4749 1.76774 9.52513 2.35352 8.93934L8.93931 2.35355ZM10.3535 3.06066C10.1583 2.8654 9.84168 2.8654 9.64642 3.06066L3.06063 9.64645C2.86537 9.84171 2.86537 10.1583 3.06063 10.3536L9.64642 16.9393C9.84168 17.1346 10.1583 17.1346 10.3535 16.9393L16.9393 10.3536C17.1346 10.1583 17.1346 9.84171 16.9393 9.64645L10.3535 3.06066Z" fill="black"/>
</svg>
