<svg class="bi bi-diamond-half" width="1em" height="1em" viewBox="0 0 16 16" fill="currentColor" xmlns="http://www.w3.org/2000/svg">
  <g clip-path="url(#clip0)">
    <path fill-rule="evenodd" d="M6.94.354a1.5 1.5 0 012.12 0l6.586 6.585a1.5 1.5 0 010 2.122l-6.585 6.585a1.5 1.5 0 01-2.122 0L.354 9.061a1.5 1.5 0 010-2.122L6.939.354zM8 .914a.498.498 0 00-.354.147L1.061 7.646a.5.5 0 000 .708l6.585 6.585a.499.499 0 00.354.147V.914z" clip-rule="evenodd"/>
  </g>
  <defs>
    <clipPath id="clip0">
      <path d="M0 0h16v16H0z"/>
    </clipPath>
  </defs>
</svg>