<svg xmlns="http://www.w3.org/2000/svg" width="16" height="16" fill="currentColor" class="bi bi-discord" viewBox="0 0 16 16">
  <path d="M13.545 2.907a13.226 13.226 0 0 0-3.257-1.011.05.05 0 0 0-.052.025c-.141.25-.297.577-.406.833a12.19 12.19 0 0 0-3.658 0 8.255 8.255 0 0 0-.412-.833.051.051 0 0 0-.052-.025 13.154 13.154 0 0 0-3.257 1.011.041.041 0 0 0-.021.018C.356 6.024-.213 9.047.066 12.032c.001.014.01.028.021.037a13.277 13.277 0 0 0 3.995 2.02.05.05 0 0 0 .056-.019c.308-.42.582-.863.818-1.329a.05.05 0 0 0-.028-.07 8.877 8.877 0 0 1-1.248-.595.051.051 0 0 1-.005-.085c.084-.063.168-.129.248-.195a.05.05 0 0 1 .051-.007c2.619 1.196 5.454 1.196 8.041 0a.051.051 0 0 1 .053.007c.08.066.164.132.248.195a.051.051 0 0 1-.004.085 8.263 8.263 0 0 1-1.249.594.051.051 0 0 0-.027.071c.24.465.515.909.817 1.329a.05.05 0 0 0 .056.019 13.235 13.235 0 0 0 4.001-2.02.05.05 0 0 0 .021-.037c.334-3.451-.559-6.449-2.366-9.106a.034.034 0 0 0-.02-.019zm-8.198 7.307c-.789 0-1.438-.724-1.438-1.612 0-.889.637-1.613 1.438-1.613.807 0 1.45.73 1.438 1.613 0 .888-.637 1.612-1.438 1.612zm5.316 0c-.788 0-1.438-.724-1.438-1.612 0-.889.637-1.613 1.438-1.613.807 0 1.451.73 1.438 1.613 0 .888-.631 1.612-1.438 1.612z"/>
</svg>