<svg width="1em" height="1em" viewBox="0 0 16 16" class="bi bi-earbuds" fill="currentColor" xmlns="http://www.w3.org/2000/svg">
  <path stroke="#000" d="M2.521 7.82l-.103.49.103-.49a.501.501 0 0 0-.603.536h0c.003.042.01.077.014.09.008.037.02.08.031.12.025.087.062.208.109.353.093.292.227.7.381 1.162.31.926.702 2.082 1.014 2.997v.001l.409 1.205v.002h0l-.001.004c-.002.004-.008.012-.024.017l-.593.19a.06.06 0 0 1-.046-.003c-.013-.006-.015-.013-.016-.016h0l-.001-.002L.66 6.835v-.001c-.602-1.852.582-3.738 2.214-4.16h0c.647-.166 1.185-.21 1.632-.146-.09.076-.16.166-.216.258a1.701 1.701 0 0 0-.21.628c-.065.44-.02.977.129 1.515.148.538.384 1.023.666 1.37.14.174.307.332.499.438a1 1 0 0 0 .575.13c-.357.399-.898.713-1.637.904-.62.16-1.236.166-1.79.049zm10.284 6.656h0v.002c-.002.003-.004.01-.017.016a.06.06 0 0 1-.046.003l-.593-.19c-.016-.005-.022-.013-.024-.017a.01.01 0 0 1-.001-.004h0v-.002l.409-1.205h0c.311-.916.704-2.072 1.014-2.998.154-.462.288-.87.381-1.162.047-.145.084-.266.109-.352a2.13 2.13 0 0 0 .031-.12.676.676 0 0 0 .014-.09v-.001c.001-.014.007-.078-.01-.154a.502.502 0 0 0-.593-.382c-.555.117-1.17.11-1.79-.05-.74-.19-1.28-.504-1.638-.903a.993.993 0 0 0 .575-.13c.192-.106.359-.264.499-.437.281-.348.518-.833.666-1.371.149-.538.194-1.074.129-1.515a1.7 1.7 0 0 0-.21-.628 1.064 1.064 0 0 0-.216-.258c.447-.064.985-.02 1.633.147l.124-.484-.124.484c1.631.42 2.815 2.307 2.213 4.159 0 0 0 0 0 0l-2.535 7.642z"/>
</svg>