<svg class="bi bi-emoji-smile" width="1em" height="1em" viewBox="0 0 16 16" fill="currentColor" xmlns="http://www.w3.org/2000/svg">
  <path fill-rule="evenodd" d="M8 15A7 7 0 108 1a7 7 0 000 14zm0 1A8 8 0 108 0a8 8 0 000 16z" clip-rule="evenodd"/>
  <path fill-rule="evenodd" d="M4.285 9.567a.5.5 0 01.683.183A3.498 3.498 0 008 11.5a3.498 3.498 0 003.032-1.75.5.5 0 11.866.5A4.498 4.498 0 018 12.5a4.498 4.498 0 01-3.898-2.25.5.5 0 01.183-.683z" clip-rule="evenodd"/>
  <path d="M7 6.5C7 7.328 6.552 8 6 8s-1-.672-1-1.5S5.448 5 6 5s1 .672 1 1.5zm4 0c0 .828-.448 1.5-1 1.5s-1-.672-1-1.5S9.448 5 10 5s1 .672 1 1.5z"/>
</svg>