<svg class="bi bi-envelope-open-fill" width="1em" height="1em" viewBox="0 0 16 16" fill="currentColor" xmlns="http://www.w3.org/2000/svg">
  <path fill-rule="evenodd" d="M8.941.435a2 2 0 00-1.882 0l-6 3.2A2 2 0 000 5.4v.125l8 4.889 8-4.889V5.4a2 2 0 00-1.059-1.765l-6-3.2zM16 6.697l-5.875 3.59L16 13.743V6.697zm-.168 8.108L9.246 10.93l-.089-.052-.896.548-.261.159-.26-.16-.897-.547-.09.052-6.585 3.874A2 2 0 002 16h12a2 2 0 001.832-1.195zM0 13.743l5.875-3.456L0 6.697v7.046z" clip-rule="evenodd"/>
</svg>