<svg class="bi bi-envelope" width="1em" height="1em" viewBox="0 0 16 16" fill="currentColor" xmlns="http://www.w3.org/2000/svg">
  <path fill-rule="evenodd" d="M14 3H2a1 1 0 0 0-1 1v8a1 1 0 0 0 1 1h12a1 1 0 0 0 1-1V4a1 1 0 0 0-1-1zM2 2a2 2 0 0 0-2 2v8a2 2 0 0 0 2 2h12a2 2 0 0 0 2-2V4a2 2 0 0 0-2-2H2z" clip-rule="evenodd"/>
  <path fill-rule="evenodd" d="M.071 4.243a.5.5 0 0 1 .686-.172L8 8.417l7.243-4.346a.5.5 0 0 1 .514.858L8 9.583.243 4.93a.5.5 0 0 1-.172-.686z" clip-rule="evenodd"/>
  <path d="M6.752 8.932l.432-.252-.504-.864-.432.252.504.864zm-6 3.5l6-3.5-.504-.864-6 3.5.504.864zm8.496-3.5l-.432-.252.504-.864.432.252-.504.864zm6 3.5l-6-3.5.504-.864 6 3.5-.504.864z"/>
</svg>