<svg class="bi bi-envelope" width="1em" height="1em" viewBox="0 0 16 16" fill="currentColor" xmlns="http://www.w3.org/2000/svg">
  <path fill-rule="evenodd" d="M14 3H2a1 1 0 0 0-1 1v8a1 1 0 0 0 1 1h12a1 1 0 0 0 1-1V4a1 1 0 0 0-1-1zM2 2a2 2 0 0 0-2 2v8a2 2 0 0 0 2 2h12a2 2 0 0 0 2-2V4a2 2 0 0 0-2-2H2z" clip-rule="evenodd"/>
  <path d="M.05 3.555C.017 3.698 0 3.847 0 4v.697l5.803 3.546L0 11.801V12c0 .306.069.596.192.856l6.57-4.027L8 9.586l1.239-.757 6.57 4.027c.122-.26.191-.55.191-.856v-.2l-5.803-3.557L16 4.697V4c0-.153-.017-.302-.05-.445L8 8.414.05 3.555z"/>
</svg>