<svg class="bi bi-exclamation-octagon-fill" width="1em" height="1em" viewBox="0 0 16 16" fill="currentColor" xmlns="http://www.w3.org/2000/svg">
  <path fill-rule="evenodd" d="M11.46.146A.5.5 0 0011.107 0H4.893a.5.5 0 00-.353.146L.146 4.54A.5.5 0 000 4.893v6.214a.5.5 0 00.146.353l4.394 4.394a.5.5 0 00.353.146h6.214a.5.5 0 00.353-.146l4.394-4.394a.5.5 0 00.146-.353V4.893a.5.5 0 00-.146-.353L11.46.146zM8 4a.905.905 0 00-.9.995l.35 3.507a.552.552 0 001.1 0l.35-3.507A.905.905 0 008 4zm.002 6a1 1 0 100 2 1 1 0 000-2z" clip-rule="evenodd"/>
</svg>