<svg class="bi bi-exclamation-diamond" width="1em" height="1em" viewBox="0 0 16 16" fill="currentColor" xmlns="http://www.w3.org/2000/svg">
  <g clip-path="url(#clip0)">
    <path fill-rule="evenodd" d="M6.94.354a1.5 1.5 0 012.12 0l6.586 6.585a1.5 1.5 0 010 2.122l-6.585 6.585a1.5 1.5 0 01-2.122 0L.354 9.061a1.5 1.5 0 010-2.122L6.939.354zm1.414.707a.5.5 0 00-.708 0L1.061 7.646a.5.5 0 000 .708l6.585 6.585a.5.5 0 00.708 0l6.585-6.585a.5.5 0 000-.708L8.354 1.061z" clip-rule="evenodd"/>
    <path d="M7.002 11a1 1 0 112 0 1 1 0 01-2 0zM7.1 4.995a.905.905 0 111.8 0l-.35 3.507a.552.552 0 01-1.1 0L7.1 4.995z"/>
  </g>
  <defs>
    <clipPath id="clip0">
      <path d="M0 0h16v16H0z"/>
    </clipPath>
  </defs>
</svg>