<svg class="bi bi-exclamation-diamond-fill" width="1em" height="1em" viewBox="0 0 16 16" fill="currentColor" xmlns="http://www.w3.org/2000/svg">
  <g clip-path="url(#clip0)">
    <path fill-rule="evenodd" d="M9.06.354a1.5 1.5 0 00-2.12 0L.353 6.939a1.5 1.5 0 000 2.122l6.585 6.585a1.5 1.5 0 002.122 0l6.585-6.585a1.5 1.5 0 000-2.122L9.061.354zM8 4a.905.905 0 00-.9.995l.35 3.507a.552.552 0 001.1 0l.35-3.507A.905.905 0 008 4zm.002 6a1 1 0 100 2 1 1 0 000-2z" clip-rule="evenodd"/>
  </g>
  <defs>
    <clipPath id="clip0">
      <path d="M0 0h16v16H0z"/>
    </clipPath>
  </defs>
</svg>