<svg xmlns="http://www.w3.org/2000/svg" width="20" height="20" fill="currentColor" class="bi bi-eye-fill" viewBox="0 0 20 20">
  <path d="M12.5 10a2.5 2.5 0 11-5 0 2.5 2.5 0 015 0z"/>
  <path fill-rule="evenodd" d="M10 5.5c-1.894 0-3.627.95-4.86 1.92-.62.489-1.132.996-1.493 1.42-.18.212-.328.41-.434.58-.053.084-.1.17-.137.253A.832.832 0 003 10a.84.84 0 00.076.326c.036.084.084.17.137.254.106.17.254.368.434.58.36.424.872.931 1.494 1.42 1.232.97 2.965 1.92 4.859 1.92 1.873 0 3.6-.806 4.846-1.722a8.163 8.163 0 001.516-1.418c.184-.23.338-.459.447-.676.105-.208.191-.446.191-.684 0-.238-.086-.476-.19-.684a3.958 3.958 0 00-.448-.676c-.37-.46-.89-.958-1.516-1.418C13.599 6.307 11.873 5.5 10 5.5zm0 8a3.5 3.5 0 100-7 3.5 3.5 0 000 7z" clip-rule="evenodd"/>
</svg>
