<svg class="bi bi-eye" xmlns="http://www.w3.org/2000/svg" width="20" height="20" viewBox="0 0 20 20" fill="currentColor">
  <path d="M12.5 10a2.5 2.5 0 11-5 0 2.5 2.5 0 015 0z"/>
  <path fill-rule="evenodd" d="M3.988 10.086l.002-.006a.034.034 0 01-.002.006zM4.031 10a4.152 4.152 0 01.378-.512c.317-.373.78-.834 1.35-1.283C6.91 7.3 8.427 6.5 10 6.5c1.594 0 3.117.693 4.254 1.528.566.415 1.02.855 1.328 1.238.154.192.265.362.334.5a1.055 1.055 0 01.082.217L16 10l-.002.017a1.06 1.06 0 01-.082.217c-.07.138-.18.308-.334.5a7.174 7.174 0 01-1.328 1.238c-1.136.835-2.66 1.528-4.254 1.528-1.573 0-3.09-.8-4.24-1.706a9.601 9.601 0 01-1.35-1.282A4.144 4.144 0 014.03 10zm-.041-.08a.036.036 0 01-.002-.006l.002.006zm1.15-2.5C6.374 6.45 8.107 5.5 10 5.5c1.873 0 3.6.807 4.846 1.722.626.46 1.146.958 1.516 1.418.184.23.338.459.447.676.105.208.191.446.191.684 0 .238-.086.476-.19.684-.11.217-.264.446-.448.676-.37.46-.89.958-1.516 1.418-1.247.915-2.973 1.722-4.846 1.722-1.894 0-3.627-.95-4.86-1.92a10.601 10.601 0 01-1.493-1.42 5.116 5.116 0 01-.434-.58c-.053-.084-.1-.17-.137-.254A.832.832 0 013 10a.85.85 0 01.076-.327 1.97 1.97 0 01.137-.253c.106-.17.254-.368.434-.58.36-.424.872-.931 1.494-1.42z" clip-rule="evenodd"/>
</svg>
