<svg xmlns="http://www.w3.org/2000/svg" width="16" height="16" fill="currentColor" class="bi bi-fcc" viewBox="0 0 16 16">
  <path d="M14.274 11.724a5.26 5.26 0 0 1-7.43-7.448 5.244 5.244 0 0 1 7.43 0 5.411 5.411 0 0 1 .56.664l1.165-.863A6.69 6.69 0 0 0 10.56 1.28c-3.46 0-6.306 2.628-6.664 6.001H1.349V2.885H4.52L5.672 1.28H0v13.44l1.35-.992V8.72h2.546c.358 3.372 3.204 6 6.664 6A6.686 6.686 0 0 0 16 11.923l-1.166-.864a5.414 5.414 0 0 1-.56.665z"/>
  <path d="M10.56 5.588a2.407 2.407 0 0 1 1.98 1.048l1.168-.864a3.848 3.848 0 0 0-3.148-1.637c-2.13 0-3.855 1.73-3.855 3.865s1.725 3.864 3.855 3.864a3.846 3.846 0 0 0 3.148-1.636l-1.167-.864a2.407 2.407 0 1 1-1.981-3.776z"/>
</svg>
