<svg width="1em" height="1em" viewBox="0 0 16 16" class="bi bi-file-zip" fill="currentColor" xmlns="http://www.w3.org/2000/svg">
  <path fill-rule="evenodd" d="M4 1h8a2 2 0 0 1 2 2v10a2 2 0 0 1-2 2H4a2 2 0 0 1-2-2V3a2 2 0 0 1 2-2zm0 1a1 1 0 0 0-1 1v10a1 1 0 0 0 1 1h8a1 1 0 0 0 1-1V3a1 1 0 0 0-1-1H4z"/>
  <path fill-rule="evenodd" d="M6.5 8.5a1 1 0 0 1 1-1h1a1 1 0 0 1 1 1v.938l.4 1.599a1 1 0 0 1-.416 1.074l-.93.62a1 1 0 0 1-1.109 0l-.93-.62a1 1 0 0 1-.415-1.074l.4-1.599V8.5zm2 0h-1v.938a1 1 0 0 1-.03.243l-.4 1.598.93.62.93-.62-.4-1.598a1 1 0 0 1-.03-.243V8.5z"/>
  <path d="M7.5 2H9v1H7.5zm-1 1H8v1H6.5zm1 1H9v1H7.5zm-1 1H8v1H6.5zm1 1H9v1H7.5V6z"/>
</svg>