<svg width="1em" height="1em" viewBox="0 0 16 16" class="bi bi-file-earmark-binary-fill" fill="currentColor" xmlns="http://www.w3.org/2000/svg">
  <path fill-rule="evenodd" d="M2 3a2 2 0 0 1 2-2h5.293a1 1 0 0 1 .707.293L13.707 5a1 1 0 0 1 .293.707V13a2 2 0 0 1-2 2H4a2 2 0 0 1-2-2V3zm7 2V2l4 4h-3a1 1 0 0 1-1-1zm-1.95 5.885c0 1.415-.548 2.206-1.524 2.206C4.548 13.09 4 12.3 4 10.885c0-1.412.548-2.203 1.526-2.203.976 0 1.524.79 1.524 2.203zM5.526 9.273c-.542 0-.832.563-.832 1.612 0 .088.003.173.006.252l1.56-1.143c-.126-.474-.375-.72-.733-.72zm-.732 2.508c.126.472.372.718.732.718.54 0 .83-.563.83-1.614 0-.085-.003-.17-.006-.25l-1.556 1.146zm6.061.624V13h-3v-.595h1.181V9.5h-.05l-1.136.747v-.688l1.19-.786h.69v3.633h1.125z"/>
</svg>