<svg width="1em" height="1em" viewBox="0 0 16 16" class="bi bi-file-earmark-medical-fill" fill="currentColor" xmlns="http://www.w3.org/2000/svg">
  <path fill-rule="evenodd" d="M2 3a2 2 0 0 1 2-2h5.293a1 1 0 0 1 .707.293L13.707 5a1 1 0 0 1 .293.707V13a2 2 0 0 1-2 2H4a2 2 0 0 1-2-2V3zm7 2V2l4 4h-3a1 1 0 0 1-1-1zm-2.5.5a.5.5 0 0 0-1 0v.634l-.549-.317a.5.5 0 1 0-.5.866L5 7l-.549.317a.5.5 0 1 0 .5.866l.549-.317V8.5a.5.5 0 1 0 1 0v-.634l.549.317a.5.5 0 1 0 .5-.866L7 7l.549-.317a.5.5 0 1 0-.5-.866l-.549.317V5.5zm-2 4.5a.5.5 0 0 0 0 1h5a.5.5 0 0 0 0-1h-5zm0 2a.5.5 0 0 0 0 1h5a.5.5 0 0 0 0-1h-5z"/>
</svg>