<svg class="bi bi-file-arrow-up" width="1em" height="1em" viewBox="0 0 16 16" fill="currentColor" xmlns="http://www.w3.org/2000/svg">
  <path fill-rule="evenodd" d="M4 1h8a2 2 0 0 1 2 2v10a2 2 0 0 1-2 2H4a2 2 0 0 1-2-2V3a2 2 0 0 1 2-2zm0 1a1 1 0 0 0-1 1v10a1 1 0 0 0 1 1h8a1 1 0 0 0 1-1V3a1 1 0 0 0-1-1H4z" clip-rule="evenodd"/>
  <path fill-rule="evenodd" d="M4.646 7.854a.5.5 0 0 0 .708 0L8 5.207l2.646 2.647a.5.5 0 0 0 .708-.708l-3-3a.5.5 0 0 0-.708 0l-3 3a.5.5 0 0 0 0 .708z" clip-rule="evenodd"/>
  <path fill-rule="evenodd" d="M8 12a.5.5 0 0 0 .5-.5v-6a.5.5 0 0 0-1 0v6a.5.5 0 0 0 .5.5z" clip-rule="evenodd"/>
</svg>