<svg class="bi bi-file-earmark-zip" width="1em" height="1em" viewBox="0 0 16 16" fill="currentColor" xmlns="http://www.w3.org/2000/svg">
  <path d="M4 1h5v1H4a1 1 0 00-1 1v10a1 1 0 001 1h8a1 1 0 001-1V6h1v7a2 2 0 01-2 2H4a2 2 0 01-2-2V3a2 2 0 012-2z"/>
  <path d="M9 4.5V1l5 5h-3.5A1.5 1.5 0 019 4.5z"/>
  <path fill-rule="evenodd" d="M5 8.5a1 1 0 011-1h1a1 1 0 011 1v.938l.4 1.599a1 1 0 01-.416 1.074l-.93.62a1 1 0 01-1.11 0l-.929-.62a1 1 0 01-.415-1.074L5 9.438V8.5zm2 0H6v.938a1 1 0 01-.03.243l-.4 1.598.93.62.929-.62-.4-1.598A1 1 0 017 9.438V8.5z" clip-rule="evenodd"/>
  <path d="M6 2h1.5v1H6zM5 3h1.5v1H5zm1 1h1.5v1H6zM5 5h1.5v1H5zm1 1h1.5v1H6V6z"/>
</svg>