<svg width="1em" height="1em" viewBox="0 0 16 16" class="bi bi-file-diff" fill="currentColor" xmlns="http://www.w3.org/2000/svg">
  <path fill-rule="evenodd" d="M4 1h8a2 2 0 0 1 2 2v10a2 2 0 0 1-2 2H4a2 2 0 0 1-2-2V3a2 2 0 0 1 2-2zm0 1a1 1 0 0 0-1 1v10a1 1 0 0 0 1 1h8a1 1 0 0 0 1-1V3a1 1 0 0 0-1-1H4z"/>
  <path fill-rule="evenodd" d="M5.5 10.5A.5.5 0 0 1 6 10h4a.5.5 0 0 1 0 1H6a.5.5 0 0 1-.5-.5zM8 4a.5.5 0 0 1 .5.5v4a.5.5 0 0 1-1 0v-4A.5.5 0 0 1 8 4z"/>
  <path fill-rule="evenodd" d="M5.5 6.5A.5.5 0 0 1 6 6h4a.5.5 0 0 1 0 1H6a.5.5 0 0 1-.5-.5z"/>
</svg>