<svg class="bi bi-file-earmark-arrow-up" width="1em" height="1em" viewBox="0 0 16 16" fill="currentColor" xmlns="http://www.w3.org/2000/svg">
  <path d="M4 1h5v1H4a1 1 0 00-1 1v10a1 1 0 001 1h8a1 1 0 001-1V6h1v7a2 2 0 01-2 2H4a2 2 0 01-2-2V3a2 2 0 012-2z"/>
  <path d="M9 4.5V1l5 5h-3.5A1.5 1.5 0 019 4.5z"/>
  <path fill-rule="evenodd" d="M5.646 8.854a.5.5 0 00.708 0L8 7.207l1.646 1.647a.5.5 0 00.708-.708l-2-2a.5.5 0 00-.708 0l-2 2a.5.5 0 000 .708z" clip-rule="evenodd"/>
  <path fill-rule="evenodd" d="M8 12a.5.5 0 00.5-.5v-4a.5.5 0 00-1 0v4a.5.5 0 00.5.5z" clip-rule="evenodd"/>
</svg>