<svg class="bi bi-folder-minus" width="1em" height="1em" viewBox="0 0 16 16" fill="currentColor" xmlns="http://www.w3.org/2000/svg">
  <path fill-rule="evenodd" d="M9.828 4H2.19a1 1 0 00-.996 1.09l.637 7a1 1 0 00.995.91H9v1H2.826a2 2 0 01-1.991-1.819l-.637-7a1.99 1.99 0 01.342-1.31L.5 3a2 2 0 012-2h3.672a2 2 0 011.414.586l.828.828A2 2 0 009.828 3h3.982a2 2 0 011.992 2.181L15.546 8H14.54l.265-2.91A1 1 0 0013.81 4H9.828zm-2.95-1.707L7.587 3H2.19c-.24 0-.47.042-.684.12L1.5 2.98a1 1 0 011-.98h3.672a1 1 0 01.707.293z" clip-rule="evenodd"/>
  <path fill-rule="evenodd" d="M11 11.5a.5.5 0 01.5-.5h4a.5.5 0 010 1h-4a.5.5 0 01-.5-.5z" clip-rule="evenodd"/>
</svg>