<svg class="bi bi-fullscreen" width="1em" height="1em" viewBox="0 0 16 16" fill="currentColor" xmlns="http://www.w3.org/2000/svg">
  <path fill-rule="evenodd" d="M1.5 1a.5.5 0 00-.5.5v4a.5.5 0 01-1 0v-4A1.5 1.5 0 011.5 0h4a.5.5 0 010 1h-4zM10 .5a.5.5 0 01.5-.5h4A1.5 1.5 0 0116 1.5v4a.5.5 0 01-1 0v-4a.5.5 0 00-.5-.5h-4a.5.5 0 01-.5-.5zM.5 10a.5.5 0 01.5.5v4a.5.5 0 00.5.5h4a.5.5 0 010 1h-4A1.5 1.5 0 010 14.5v-4a.5.5 0 01.5-.5zm15 0a.5.5 0 01.5.5v4a1.5 1.5 0 01-1.5 1.5h-4a.5.5 0 010-1h4a.5.5 0 00.5-.5v-4a.5.5 0 01.5-.5z" clip-rule="evenodd"/>
</svg>