<svg class="bi bi-gear-fill" width="1em" height="1em" viewBox="0 0 20 20" fill="currentColor" xmlns="http://www.w3.org/2000/svg">
  <path fill-rule="evenodd" d="M14.34 12.486l1.317 1.757-1.414 1.414-1.757-1.318c-.365.21-.76.375-1.176.487L11 17H9l-.31-2.174a4.969 4.969 0 01-1.176-.487l-1.757 1.318-1.414-1.414 1.318-1.757a4.968 4.968 0 01-.487-1.176L3 11V9l2.173-.31a4.97 4.97 0 01.488-1.176L4.343 5.757l1.414-1.414 1.757 1.318a4.97 4.97 0 011.176-.487L9 3h2l.31 2.173c.416.113.81.278 1.176.488l1.757-1.318 1.414 1.414-1.318 1.757c.21.365.375.76.487 1.176L17 9v2l-2.174.31c-.112.416-.277.81-.487 1.176zM10 13a3 3 0 100-6 3 3 0 000 6z" clip-rule="evenodd"/>
  <path d="M15.657 14.243l.353.353a.5.5 0 00.047-.653l-.4.3zm-1.414 1.414l-.3.4a.5.5 0 00.653-.047l-.353-.353zm-1.757-1.318l.3-.4a.5.5 0 00-.55-.033l.25.433zm-1.176.487l-.13-.482a.5.5 0 00-.364.412l.494.07zM11 17v.5a.5.5 0 00.495-.43L11 17zm-2 0l-.495.07A.5.5 0 009 17.5V17zm-.31-2.174l.494-.07a.5.5 0 00-.364-.412l-.13.482zm-1.176-.487l.25-.433a.5.5 0 00-.55.033l.3.4zm-1.757 1.318l-.353.353a.5.5 0 00.653.047l-.3-.4zm-1.414-1.414l-.4-.3a.5.5 0 00.047.653l.353-.353zm1.318-1.757l.4.3a.5.5 0 00.033-.55l-.433.25zm-.487-1.176l.482-.13a.5.5 0 00-.412-.364l-.07.494zM3 11h-.5a.5.5 0 00.43.495L3 11zm0-2l-.07-.495A.5.5 0 002.5 9H3zm2.173-.31l.071.494a.5.5 0 00.412-.364l-.482-.13zm.488-1.176l.433.25a.5.5 0 00-.033-.55l-.4.3zM4.343 5.757l-.353-.353a.5.5 0 00-.047.653l.4-.3zm1.414-1.414l.3-.4a.5.5 0 00-.653.047l.353.353zm1.757 1.318l-.3.4a.5.5 0 00.55.033l-.25-.433zm1.176-.487l.13.482a.5.5 0 00.364-.412l-.494-.07zM9 3v-.5a.5.5 0 00-.495.43L9 3zm2 0l.495-.07A.5.5 0 0011 2.5V3zm.31 2.173l-.495.071a.5.5 0 00.365.412l.13-.482zm1.176.488l-.25.433a.5.5 0 00.55-.033l-.3-.4zm1.757-1.318l.353-.353a.5.5 0 00-.653-.047l.3.4zm1.414 1.414l.4.3a.5.5 0 00-.047-.653l-.353.353zm-1.318 1.757l-.4-.3a.5.5 0 00-.033.55l.433-.25zm.487 1.176l-.482.13a.5.5 0 00.412.364l.07-.494zM17 9h.5a.5.5 0 00-.43-.495L17 9zm0 2l.07.495A.5.5 0 0017.5 11H17zm-2.174.31l-.07-.495a.5.5 0 00-.412.365l.482.13zm-.887 1.476l1.318 1.757.8-.6-1.318-1.757-.8.6zm1.364 1.103l-1.414 1.414.707.707 1.414-1.414-.707-.707zm-.76 1.368l-1.757-1.318-.6.8 1.757 1.318.6-.8zm-2.306-1.351a4.472 4.472 0 01-1.057.438l.261.965a5.47 5.47 0 001.294-.536l-.498-.867zm-1.421.85l-.311 2.173.99.142.31-2.174-.99-.141zM11 16.5H9v1h2v-1zm-1.505.43l-.31-2.174-.99.141.31 2.174.99-.142zm-.675-2.586a4.472 4.472 0 01-1.057-.438l-.498.867a5.5 5.5 0 001.294.536l.261-.965zm-1.606-.405l-1.757 1.318.6.8 1.757-1.318-.6-.8zm-1.103 1.364L4.697 13.89l-.707.707 1.414 1.414.707-.707zm-1.368-.76l1.318-1.757-.8-.6-1.318 1.757.8.6zm1.351-2.306a4.47 4.47 0 01-.438-1.057l-.965.261c.124.458.305.892.536 1.294l.867-.498zm-.85-1.421l-2.173-.311-.142.99 2.174.31.141-.99zM3.5 11V9h-1v2h1zm-.43-1.505l2.174-.31-.141-.99-2.174.31.142.99zm2.586-.675a4.47 4.47 0 01.438-1.057l-.867-.498a5.47 5.47 0 00-.536 1.294l.965.261zm.405-1.606L4.743 5.457l-.8.6 1.318 1.757.8-.6zM4.697 6.111L6.11 4.697l-.707-.707L3.99 5.404l.707.707zm.76-1.368l1.757 1.318.6-.8-1.757-1.318-.6.8zm2.306 1.351a4.47 4.47 0 011.057-.438l-.261-.965a5.47 5.47 0 00-1.294.536l.498.867zm1.421-.85l.311-2.173-.99-.142-.31 2.174.99.141zM9 3.5h2v-1H9v1zm1.505-.43l.31 2.174.99-.141-.31-2.174-.99.142zm.675 2.586c.374.101.728.25 1.057.438l.498-.867a5.47 5.47 0 00-1.294-.536l-.261.965zm1.606.405l1.757-1.318-.6-.8-1.757 1.318.6.8zm1.103-1.364l1.414 1.414.707-.707-1.414-1.414-.707.707zm1.368.76l-1.318 1.757.8.6 1.318-1.757-.8-.6zm-1.351 2.306c.188.329.337.683.438 1.057l.965-.261a5.47 5.47 0 00-.536-1.294l-.867.498zm.85 1.421l2.173.311.142-.99-2.174-.31-.141.99zM16.5 9v2h1V9h-1zm.43 1.505l-2.174.31.141.99 2.174-.31-.142-.99zm-2.586.675a4.49 4.49 0 01-.438 1.057l.867.498a5.47 5.47 0 00.536-1.294l-.965-.261zM10 13.5a3.5 3.5 0 003.5-3.5h-1a2.5 2.5 0 01-2.5 2.5v1zm3.5-3.5A3.5 3.5 0 0010 6.5v1a2.5 2.5 0 012.5 2.5h1zM10 6.5A3.5 3.5 0 006.5 10h1A2.5 2.5 0 0110 7.5v-1zM6.5 10a3.5 3.5 0 003.5 3.5v-1A2.5 2.5 0 017.5 10h-1z"/>
</svg>