<svg class="bi bi-gear-wide" width="1em" height="1em" viewBox="0 0 16 16" fill="currentColor" xmlns="http://www.w3.org/2000/svg">
  <g clip-path="url(#clip0)">
    <path fill-rule="evenodd" d="M8.932.724c-.243-.97-1.621-.97-1.864 0l-.072.286a.96.96 0 01-1.622.434l-.205-.211c-.695-.72-1.889-.03-1.614.932l.08.283a.96.96 0 01-1.187 1.188l-.283-.081c-.962-.275-1.651.919-.932 1.614l.211.205a.96.96 0 01-.434 1.622l-.286.072c-.97.243-.97 1.621 0 1.864l.286.072a.96.96 0 01.434 1.622l-.211.205c-.72.695-.03 1.889.932 1.614l.283-.08a.96.96 0 011.188 1.187l-.081.283c-.275.962.919 1.651 1.614.932l.205-.211a.96.96 0 011.622.434l.072.286c.243.97 1.621.97 1.864 0l.072-.286a.96.96 0 011.622-.434l.205.211c.695.72 1.889.03 1.614-.932l-.08-.283a.96.96 0 011.187-1.188l.283.081c.962.275 1.651-.919.932-1.614l-.211-.205a.96.96 0 01.434-1.622l.286-.072c.97-.243.97-1.621 0-1.864l-.286-.072a.96.96 0 01-.434-1.622l.211-.205c.72-.695.03-1.889-.932-1.614l-.283.08a.96.96 0 01-1.188-1.187l.081-.283c.275-.962-.919-1.651-1.614-.932l-.205.211a.96.96 0 01-1.622-.434L8.932.724zM8 13A5 5 0 108 3a5 5 0 000 10z" clip-rule="evenodd"/>
  </g>
  <defs>
    <clipPath id="clip0">
      <path d="M0 0h16v16H0z"/>
    </clipPath>
  </defs>
</svg>