<svg class="bi bi-grid-3x3-gap" width="1em" height="1em" viewBox="0 0 16 16" fill="currentColor" xmlns="http://www.w3.org/2000/svg">
  <path stroke="#000" d="M1.5 2a.5.5 0 01.5-.5h2a.5.5 0 01.5.5v2a.5.5 0 01-.5.5H2a.5.5 0 01-.5-.5V2zm5 0a.5.5 0 01.5-.5h2a.5.5 0 01.5.5v2a.5.5 0 01-.5.5H7a.5.5 0 01-.5-.5V2zm5 0a.5.5 0 01.5-.5h2a.5.5 0 01.5.5v2a.5.5 0 01-.5.5h-2a.5.5 0 01-.5-.5V2zm-10 5a.5.5 0 01.5-.5h2a.5.5 0 01.5.5v2a.5.5 0 01-.5.5H2a.5.5 0 01-.5-.5V7zm5 0a.5.5 0 01.5-.5h2a.5.5 0 01.5.5v2a.5.5 0 01-.5.5H7a.5.5 0 01-.5-.5V7zm5 0a.5.5 0 01.5-.5h2a.5.5 0 01.5.5v2a.5.5 0 01-.5.5h-2a.5.5 0 01-.5-.5V7zm-10 5a.5.5 0 01.5-.5h2a.5.5 0 01.5.5v2a.5.5 0 01-.5.5H2a.5.5 0 01-.5-.5v-2zm5 0a.5.5 0 01.5-.5h2a.5.5 0 01.5.5v2a.5.5 0 01-.5.5H7a.5.5 0 01-.5-.5v-2zm5 0a.5.5 0 01.5-.5h2a.5.5 0 01.5.5v2a.5.5 0 01-.5.5h-2a.5.5 0 01-.5-.5v-2z"/>
</svg>