<svg class="bi bi-grid-fill" width="1em" height="1em" viewBox="0 0 16 16" fill="currentColor" xmlns="http://www.w3.org/2000/svg">
  <path fill-rule="evenodd" d="M1 2.5A1.5 1.5 0 012.5 1h3A1.5 1.5 0 017 2.5v3A1.5 1.5 0 015.5 7h-3A1.5 1.5 0 011 5.5v-3zm8 0A1.5 1.5 0 0110.5 1h3A1.5 1.5 0 0115 2.5v3A1.5 1.5 0 0113.5 7h-3A1.5 1.5 0 019 5.5v-3zm-8 8A1.5 1.5 0 012.5 9h3A1.5 1.5 0 017 10.5v3A1.5 1.5 0 015.5 15h-3A1.5 1.5 0 011 13.5v-3zm8 0A1.5 1.5 0 0110.5 9h3a1.5 1.5 0 011.5 1.5v3a1.5 1.5 0 01-1.5 1.5h-3A1.5 1.5 0 019 13.5v-3z" clip-rule="evenodd"/>
</svg>