<svg class="bi bi-grid-3x2" width="1em" height="1em" viewBox="0 0 20 20" fill="currentColor" xmlns="http://www.w3.org/2000/svg">
  <path fill-rule="evenodd" d="M2 6a1.5 1.5 0 011.5-1.5h13A1.5 1.5 0 0118 6v8a1.5 1.5 0 01-1.5 1.5h-13A1.5 1.5 0 012 14V6zm1.5-.5A.5.5 0 003 6v8a.5.5 0 00.5.5h13a.5.5 0 00.5-.5V6a.5.5 0 00-.5-.5h-13z" clip-rule="evenodd"/>
  <path fill-rule="evenodd" d="M7 14.5v-9h1v9H7zm5 0v-9h1v9h-1z" clip-rule="evenodd"/>
  <path fill-rule="evenodd" d="M17 10.5H3v-1h14v1z" clip-rule="evenodd"/>
</svg>