<svg class="bi bi-grid-3x2-gap" width="1em" height="1em" viewBox="0 0 16 16" fill="currentColor" xmlns="http://www.w3.org/2000/svg">
  <path stroke="#000" d="M2 3.5h2a.5.5 0 01.5.5v2a.5.5 0 01-.5.5H2a.5.5 0 01-.5-.5V4a.5.5 0 01.5-.5zm5 0h2a.5.5 0 01.5.5v2a.5.5 0 01-.5.5H7a.5.5 0 01-.5-.5V4a.5.5 0 01.5-.5zm5 0h2a.5.5 0 01.5.5v2a.5.5 0 01-.5.5h-2a.5.5 0 01-.5-.5V4a.5.5 0 01.5-.5zm-10 5h2a.5.5 0 01.5.5v2a.5.5 0 01-.5.5H2a.5.5 0 01-.5-.5V9a.5.5 0 01.5-.5zm5 0h2a.5.5 0 01.5.5v2a.5.5 0 01-.5.5H7a.5.5 0 01-.5-.5V9a.5.5 0 01.5-.5zm5 0h2a.5.5 0 01.5.5v2a.5.5 0 01-.5.5h-2a.5.5 0 01-.5-.5V9a.5.5 0 01.5-.5z"/>
</svg>