<svg class="bi bi-grid-3x2-gap" width="1em" height="1em" viewBox="0 0 20 20" fill="currentColor" xmlns="http://www.w3.org/2000/svg">
  <path fill-rule="evenodd" d="M1.5 6A1.5 1.5 0 013 4.5h2A1.5 1.5 0 016.5 6v2A1.5 1.5 0 015 9.5H3A1.5 1.5 0 011.5 8V6zM3 5.5a.5.5 0 00-.5.5v2a.5.5 0 00.5.5h2a.5.5 0 00.5-.5V6a.5.5 0 00-.5-.5H3zm4.5.5A1.5 1.5 0 019 4.5h2A1.5 1.5 0 0112.5 6v2A1.5 1.5 0 0111 9.5H9A1.5 1.5 0 017.5 8V6zM9 5.5a.5.5 0 00-.5.5v2a.5.5 0 00.5.5h2a.5.5 0 00.5-.5V6a.5.5 0 00-.5-.5H9zm4.5.5A1.5 1.5 0 0115 4.5h2A1.5 1.5 0 0118.5 6v2A1.5 1.5 0 0117 9.5h-2A1.5 1.5 0 0113.5 8V6zm1.5-.5a.5.5 0 00-.5.5v2a.5.5 0 00.5.5h2a.5.5 0 00.5-.5V6a.5.5 0 00-.5-.5h-2zM1.5 12A1.5 1.5 0 013 10.5h2A1.5 1.5 0 016.5 12v2A1.5 1.5 0 015 15.5H3A1.5 1.5 0 011.5 14v-2zm1.5-.5a.5.5 0 00-.5.5v2a.5.5 0 00.5.5h2a.5.5 0 00.5-.5v-2a.5.5 0 00-.5-.5H3zm4.5.5A1.5 1.5 0 019 10.5h2a1.5 1.5 0 011.5 1.5v2a1.5 1.5 0 01-1.5 1.5H9A1.5 1.5 0 017.5 14v-2zm1.5-.5a.5.5 0 00-.5.5v2a.5.5 0 00.5.5h2a.5.5 0 00.5-.5v-2a.5.5 0 00-.5-.5H9zm4.5.5a1.5 1.5 0 011.5-1.5h2a1.5 1.5 0 011.5 1.5v2a1.5 1.5 0 01-1.5 1.5h-2a1.5 1.5 0 01-1.5-1.5v-2zm1.5-.5a.5.5 0 00-.5.5v2a.5.5 0 00.5.5h2a.5.5 0 00.5-.5v-2a.5.5 0 00-.5-.5h-2z" clip-rule="evenodd"/>
</svg>