<svg xmlns="http://www.w3.org/2000/svg" width="16" height="16" fill="currentColor" class="bi bi-han-xin-code-scan" viewBox="0 0 16 16">
  <path d="M2 10v1h3v3h1v-4H2zm0 2v2h2v-2H2zm8-10v1h3v3h1V2h-4zm0 2v2h2V4h-2zM2 2v4h1V3h3V2H2zm2 2v2h2V4H4zm6 6v2h2v-2h-2zm3 0v3h-3v1h4v-4h-1z" style="fill:#000"/>
  <path d="M0 .5A.5.5 0 0 1 .5 0h3a.5.5 0 1 1 0 1H1v2.5a.5.5 0 1 1-1 0v-3Zm12 0a.5.5 0 0 1 .5-.5h3a.5.5 0 0 1 .5.5v3a.5.5 0 0 1-1 0V1h-2.5a.5.5 0 0 1-.5-.5ZM.5 12a.5.5 0 0 1 .5.5V15h2.5a.5.5 0 0 1 0 1h-3a.5.5 0 0 1-.5-.5v-3a.5.5 0 0 1 .5-.5Zm15 0a.5.5 0 0 1 .5.5v3a.5.5 0 0 1-.5.5h-3a.5.5 0 0 1 0-1H15v-2.5a.5.5 0 0 1 .5-.5Z"/>
  <path d="M7 3v1h1V3H7Zm1 1v1h1V4H8Zm0 1H7v1h1V5Zm0 1v1h1V6H8Zm1 1v1h1V7H9Zm1 1v1h1V8h-1zm1 0h1V7h-1v1zm1 0v1h1V8h-1zM9 8H8v1h1V8ZM8 9H7v1h1V9Zm0 1v1h1v-1H8zm0 1H7v1h1v-1zm0 1v1h1v-1H8zM7 9V8H6v1h1ZM6 8V7H5v1h1ZM5 8H4v1h1V8ZM4 8V7H3v1h1Zm3 0h1V7H7v1Z" style="fill:#000"/>
</svg>