<svg xmlns="http://www.w3.org/2000/svg" width="16" height="16" fill="currentColor" class="bi bi-han-xin-code" viewBox="0 0 16 16">
  <path d="M0 10v1h5v5h1v-6H0zm0 2v1h3v3h1v-4H0zm0 2v2h2v-2H0zM10 0v1h5v5h1V0h-6zm0 2v1h3v3h1V2h-4zm0 2v2h2V4h-2zM0 0v6h1V1h5V0H0zm2 2v4h1V3h3V2H2zm2 2v2h2V4H4zm6 6v2h2v-2h-2zm3 0v3h-3v1h4v-4h-1zm2 0v5h-5v1h6v-6h-1zM7 1v1h1V1H7Zm1 1v1h1V2H8ZM7 3v1h1V3H7Zm1 1v1h1V4H8ZM7 5v1h1V5H7Zm1 1v1h1V6H8ZM7 7v1h1V7H7Zm1 1v1h1V8H8Zm1-1v1h1V7H9Zm1 1v1h1V8h-1zm2 0v1h1V8h-1zm-1-1v1h1V7h-1zm2 0v1h1V7h-1zM6 8v1h1V8H6ZM2 8v1h1V8H2Zm2 0v1h1V8H4Zm10 0v1h1V8h-1zM1 7v1h1V7H1Zm2 0v1h1V7H3Zm2 0v1h1V7H5Zm2 2v1h1V9H7Zm1 1v1h1v-1H8zm-1 1v1h1v-1H7zm1 1v1h1v-1H8zm-1 1v1h1v-1H7zm1 1v1h1v-1H8z" style="fill:#000"/>
</svg>