<svg class="bi bi-hdd-network" width="1em" height="1em" viewBox="0 0 16 16" fill="currentColor" xmlns="http://www.w3.org/2000/svg">
  <path fill-rule="evenodd" d="M14 3H2a1 1 0 0 0-1 1v1a1 1 0 0 0 1 1h12a1 1 0 0 0 1-1V4a1 1 0 0 0-1-1zM2 2a2 2 0 0 0-2 2v1a2 2 0 0 0 2 2h12a2 2 0 0 0 2-2V4a2 2 0 0 0-2-2H2z"/>
  <path d="M5 4.5a.5.5 0 1 1-1 0 .5.5 0 0 1 1 0zm-2 0a.5.5 0 1 1-1 0 .5.5 0 0 1 1 0zm-2.5 7a.5.5 0 0 0 0 1v-1zm15 1a.5.5 0 0 0 0-1v1zM7.5 7v3h1V7h-1zm-7 5.5H6v-1H.5v1zm15-1H10v1h5.5v-1z"/>
  <rect width="3" height="3" x="6.5" y="10.5" stroke="#000" rx="1"/>
</svg>