<svg xmlns="http://www.w3.org/2000/svg" width="16" height="16" fill="currentColor" class="bi bi-hedgedoc" viewBox="0 0 16 16">
  <path d="m8 0-.81.81L6.22.2l-.61.97L4.53.793l-.378 1.082-1.139-.129-.128 1.139-1.139.128.129 1.138-1.082.379.379 1.081-.97.61.61.97L0 8l.81.81-.61.97.97.61-.378 1.081 1.082.378-.129 1.139 1.139.128.128 1.139 1.139-.129.378 1.082 1.081-.379.61.97.967-.608a.81.81 0 0 0 1.622 0l.001-.001.97.61.61-.97 1.081.378.378-1.082 1.139.129.128-1.139 1.139-.128-.129-1.138 1.082-.379-.379-1.081.97-.61-.61-.97L16 8l-.81-.81.61-.97-.97-.61.378-1.081-1.082-.378.129-1.139-1.139-.128-.128-1.139-1.139.129-.378-1.082-1.081.379L9.78.2l-.97.61ZM5.274 6.43c.85 0 1.613.375 2.133.967l.59.591.723-.722a2.835 2.835 0 0 1 4.83 2.014c0 .863-.424 1.62-.994 2.155l-3.75 3.752a1.141 1.141 0 0 0-1.615-.001l-3.85-3.849A2.835 2.835 0 0 1 5.275 6.43zm1.157 3.237a.62.62 0 1 0 0 1.24.62.62 0 0 0 0-1.24zm3.143 0a.62.62 0 1 0 0 1.24.62.62 0 0 0 0-1.24zm-2.907.355a.172.172 0 1 1 0 .344.172.172 0 0 1 0-.344zm3.143 0a.172.172 0 1 1 0 .344.172.172 0 0 1 0-.344z"/>
</svg>