<svg xmlns="http://www.w3.org/2000/svg" width="16" height="16" fill="currentColor" class="bi bi-hugging-face" viewBox="0 0 16 16">
	<path d="M15.851 11.439a1.45 1.45 0 0 0-.197-.435 1.65 1.65 0 0 0 .043-.213c.063-.457-.095-.876-.394-1.199-.162-.177-.335-.294-.519-.365a6.93 6.93 0 0 0 .182-1.573c0-.242-.014-.479-.037-.712l-.043-.349a6.96 6.96 0 0 0-.233-1.01l-.234-.641a7.03 7.03 0 0 0-.462-.899c-.115-.192-.24-.377-.375-.555l-.207-.264c-.212-.258-.443-.501-.691-.726l-.254-.219-.262-.207-.555-.375C10.559 1.055 9.323.688 8.002.688c-3.847 0-6.965 3.118-6.965 6.964a6.93 6.93 0 0 0 .185 1.593c-.165.072-.324.184-.47.345-.299.324-.457.741-.394 1.198.01.073.024.144.043.215-.089.133-.156.28-.197.436-.092.349-.062.663.055.939a1.38 1.38 0 0 0 .07 1.078c.12.244.292.432.504.601.252.2.567.37.947.534.454.194 1.008.375 1.259.442.651.168 1.274.275 1.907.28.901.008 1.677-.203 2.232-.746.273.033.548.05.822.05a7.17 7.17 0 0 0 .869-.055c.554.546 1.333.759 2.237.751.632-.005 1.256-.112 1.905-.28.254-.067.807-.249 1.261-.442.38-.163.696-.334.949-.534.21-.169.382-.357.502-.601a1.38 1.38 0 0 0 .072-1.078c.115-.276.146-.591.054-.94zm-.646.916a.87.87 0 0 1 .023.772c-.171.387-.596.692-1.421 1.019-.513.203-.983.334-.987.335-.679.176-1.292.265-1.824.265-.88 0-1.534-.243-1.95-.722-.702.12-1.419.124-2.122.012-.416.471-1.067.71-1.939.71-.531 0-1.145-.089-1.824-.265-.004-.001-.474-.131-.987-.335-.825-.327-1.25-.632-1.421-1.019a.87.87 0 0 1 .023-.772l.038-.066a.98.98 0 0 1-.132-.791c.051-.193.156-.353.298-.469-.069-.113-.114-.238-.132-.369-.041-.284.053-.568.265-.799.165-.18.399-.279.657-.279h.007a6.46 6.46 0 0 1-.293-1.93c0-3.57 2.894-6.464 6.464-6.464s6.464 2.894 6.464 6.464c.001.656-.099 1.309-.295 1.935l.092-.005c.259 0 .492.099.657.279.212.231.306.515.265.799-.019.131-.064.256-.132.369.142.115.247.276.298.469a.98.98 0 0 1-.132.791l.038.066z"/>
	<path d="M5.01 14.078c-.645.004-1.31-.148-1.681-.244-.018-.005-2.244-.634-1.962-1.169.149-.283.605-.032 1.02.196.37.204.709.39.771.167.06-.216-.35-.374-.798-.548-.538-.208-1.131-.438-1.033-.813.114-.433.92.051 1.532.418.359.215.65.39.696.317.124-.2.056-.339-.815-.866l-.2-.12c-.762-.457-1.256-.754-.935-1.103.348-.379 1.944 1.074 1.944 1.074s.51.53.655.286c.073-.123-.268-.47-.636-.843-.362-.368-.75-.762-.791-.993-.084-.465.166-.592.522-.366s1.043 1.406 1.294 1.865 1.035.127.382-.362-.425-1.288-.112-1.337.449.486.449.486.367.921.997 1.55.662 1.135.203 1.808c-.309.453-.897.594-1.503.598zm5.962 0c-.606-.004-1.193-.145-1.502-.598-.459-.673-.427-1.178.203-1.808s.997-1.55.997-1.55.137-.535.449-.486.541.848-.112 1.337.13.821.381.362.938-1.639 1.294-1.865.606-.099.522.366c-.042.231-.429.625-.791.993-.367.374-.709.72-.636.843.145.244.655-.287.655-.287s1.597-1.453 1.944-1.074c.32.349-.174.646-.935 1.103l-.2.12c-.871.527-.939.667-.816.866.046.074.337-.101.696-.317.612-.367 1.418-.851 1.532-.418.099.375-.495.605-1.033.813-.448.174-.858.332-.798.548.062.223.401.037.771-.167.416-.229.871-.479 1.02-.196.282.535-1.944 1.164-1.962 1.168-.371.096-1.036.248-1.68.244zm-3.022-.631c-.045 0-.09 0-.135-.001h-.007c-.007 0-.014 0-.02 0h-.005l-.032-.001-.04-.002-.036-.001h-.009l-.034-.002H7.62l-.017-.001-.022-.001-.083-.006-.029-.002-.032-.003h-.005l-.043-.004-.072-.007h-.001c.35-.78.173-1.508-.533-2.214-.465-.462-.773-1.145-.837-1.295-.129-.444-.472-.938-1.041-.938a.93.93 0 0 0-.144.011.95.95 0 0 0-.623.399c-.168-.209-.331-.375-.479-.469-.223-.141-.445-.213-.661-.213a.87.87 0 0 0-.68.312l-.004.005-.007-.029-.002-.01V8.97l-.081-.417-.005-.029v-.002l-.013-.093-.002-.014-.004-.029-.005-.042-.005-.04V8.3l-.016-.165-.002-.021-.003-.033v-.003l-.002-.034V8.04l-.003-.04-.002-.043v-.001l-.002-.042v-.002l-.002-.036v-.012l-.001-.035-.001-.03v-.022-.023-.028-.037-.025-.013a5.8 5.8 0 0 1 5.797-5.797c3.202 0 5.796 2.595 5.796 5.797v.037.037.031.007.024.007.024.003l-.001.025v.01.001l-.003.076v.008l-.002.038h0l-.002.03-.014.182-.003.032v.001l-.004.04v.007l-.003.025-.007.062-.004.031-.005.037-.001.006-.011.078h0l-.005.035-.006.035-.001.005-.007.04-.004.025-.002.014-.014.079-.015.075-.009.042-.008.039-.009.039c-.163-.159-.379-.245-.618-.245-.216 0-.439.072-.661.213-.148.094-.311.26-.479.469-.156-.216-.374-.359-.623-.399a.92.92 0 0 0-.144-.011c-.569 0-.911.494-1.041.937-.064.15-.372.833-.836 1.297-.703.703-.882 1.428-.538 2.205l-.033.004-.144.015-.029.003-.026.002-.037.003-.041.003-.041.003h-.009l-.012.001-.02.001-.014.001-.038.002-.045.002-.04.001-.027.001h-.014-.025-.013-.025-.034-.048zm-1.3-3.752a1.45 1.45 0 0 1 .885-.748c.067-.02.135.095.206.212s.137.229.208.229.149-.114.221-.226c.075-.117.149-.23.22-.208a1.45 1.45 0 0 1 .835.695c.623-.491.852-1.292.852-1.785 0-.39-.262-.267-.683-.059l-.024.012c-.386.191-.899.445-1.463.445s-1.077-.254-1.463-.445c-.434-.215-.706-.35-.706.048 0 .509.243 1.345.911 1.831zM4.099 6.859a.54.54 0 0 0 .315-.091.54.54 0 0 0 .231-.556.54.54 0 0 0-.426-.426.54.54 0 0 0-.557.231.54.54 0 0 0-.05.509.54.54 0 0 0 .294.293.54.54 0 0 0 .194.041zm7.757 0a.54.54 0 0 0 .315-.091.54.54 0 0 0 .231-.556.54.54 0 0 0-.349-.405.54.54 0 0 0-.461.045.54.54 0 0 0-.172.164c-.049.074-.08.159-.089.248s.005.178.039.261a.54.54 0 0 0 .293.293.54.54 0 0 0 .194.041zm-6.4-.369c.089.003.155-.093.225-.195.064-.093.131-.19.222-.222.084-.03.193.014.298.056.134.054.261.104.318-.003.077-.146.11-.311.093-.475s-.081-.32-.186-.447-.245-.221-.403-.268c-.198-.06-.412-.044-.599.045s-.335.244-.414.436-.084.406-.013.601.211.357.394.454c.023.012.045.018.065.019zm4.823 0c.02-.001.042-.007.065-.019.146-.077.265-.196.343-.342s.111-.311.096-.475c-.012-.123-.051-.241-.114-.347s-.149-.197-.251-.265-.219-.114-.341-.132-.246-.009-.365.026-.227.097-.318.18-.164.185-.211.298-.069.237-.063.36.039.243.097.352.184.057.318.003c.105-.042.214-.086.298-.056.09.032.158.129.222.222.07.102.137.198.225.195z"/>
</svg>