<svg class="bi bi-image" width="1em" height="1em" viewBox="0 0 16 16" fill="currentColor" xmlns="http://www.w3.org/2000/svg">
  <g clip-path="url(#clip0)">
    <path fill-rule="evenodd" d="M14.002 2h-12a1 1 0 00-1 1v10a1 1 0 001 1h12a1 1 0 001-1V3a1 1 0 00-1-1zm-12-1a2 2 0 00-2 2v10a2 2 0 002 2h12a2 2 0 002-2V3a2 2 0 00-2-2h-12z" clip-rule="evenodd"/>
    <path d="M10.648 7.646a.5.5 0 01.577-.093L15.002 9.5V14h-14v-2l2.646-2.354a.5.5 0 01.63-.062l2.66 1.773 3.71-3.71z"/>
    <path fill-rule="evenodd" d="M4.502 7a1.5 1.5 0 100-3 1.5 1.5 0 000 3z" clip-rule="evenodd"/>
  </g>
  <defs>
    <clipPath id="clip0">
      <path d="M0 0h16v16H0z"/>
    </clipPath>
  </defs>
</svg>