<svg class="bi bi-inboxes" width="1em" height="1em" viewBox="0 0 16 16" fill="currentColor" xmlns="http://www.w3.org/2000/svg">
  <path fill-rule="evenodd" d="M.125 11.17A.5.5 0 0 1 .5 11H6a.5.5 0 0 1 .5.5 1.5 1.5 0 0 0 3 0 .5.5 0 0 1 .5-.5h5.5a.5.5 0 0 1 .496.562l-.39 3.124A1.5 1.5 0 0 1 14.117 16H1.883a1.5 1.5 0 0 1-1.489-1.314l-.39-3.124a.5.5 0 0 1 .121-.393zm.941.83l.32 2.562a.5.5 0 0 0 .497.438h12.234a.5.5 0 0 0 .496-.438l.32-2.562H10.45a2.5 2.5 0 0 1-4.9 0H1.066zM3.81.563A1.5 1.5 0 0 1 4.98 0h6.04a1.5 1.5 0 0 1 1.17.563l3.7 4.625a.5.5 0 0 1-.78.624l-3.7-4.624A.5.5 0 0 0 11.02 1H4.98a.5.5 0 0 0-.39.188L.89 5.812a.5.5 0 1 1-.78-.624L3.81.563z"/>
  <path fill-rule="evenodd" d="M.125 5.17A.5.5 0 0 1 .5 5H6a.5.5 0 0 1 .5.5 1.5 1.5 0 0 0 3 0A.5.5 0 0 1 10 5h5.5a.5.5 0 0 1 .496.562l-.39 3.124A1.5 1.5 0 0 1 14.117 10H1.883A1.5 1.5 0 0 1 .394 8.686l-.39-3.124a.5.5 0 0 1 .121-.393zm.941.83l.32 2.562A.5.5 0 0 0 1.884 9h12.234a.5.5 0 0 0 .496-.438L14.933 6H10.45a2.5 2.5 0 0 1-4.9 0H1.066z"/>
</svg>