<svg xmlns="http://www.w3.org/2000/svg" width="20" height="20" fill="currentColor" class="bi bi-inbox-fill" viewBox="0 0 20 20">
  <path stroke="#000" stroke-linecap="round" stroke-linejoin="round" d="M17.5 11l-3.7-4.625A1 1 0 0013.02 6H6.98a1 1 0 00-.78.375L2.5 11"/>
  <path fill-rule="evenodd" d="M2.125 10.67a.5.5 0 01.375-.17h5a.5.5 0 01.5.5c0 .828.625 2 2 2s2-1.172 2-2a.5.5 0 01.5-.5h5a.5.5 0 01.496.562l-.39 3.124a1.5 1.5 0 01-1.489 1.314H3.883a1.5 1.5 0 01-1.489-1.314l-.39-3.124a.5.5 0 01.121-.393z" clip-rule="evenodd"/>
</svg>
