<svg class="bi bi-inboxes-fill" width="1em" height="1em" viewBox="0 0 16 16" fill="currentColor" xmlns="http://www.w3.org/2000/svg">
  <path fill-rule="evenodd" d="M.125 11.17A.5.5 0 01.5 11H6a.5.5 0 01.5.5 1.5 1.5 0 003 0 .5.5 0 01.5-.5h5.5a.5.5 0 01.496.562l-.39 3.124A1.5 1.5 0 0114.117 16H1.883a1.5 1.5 0 01-1.489-1.314l-.39-3.124a.5.5 0 01.121-.393zM3.81.563A1.5 1.5 0 014.98 0h6.04a1.5 1.5 0 011.17.563l3.7 4.625a.5.5 0 01-.78.624l-3.7-4.624A.5.5 0 0011.02 1H4.98a.5.5 0 00-.39.188L.89 5.812a.5.5 0 11-.78-.624L3.81.563z" clip-rule="evenodd"/>
  <path fill-rule="evenodd" d="M.125 5.17A.5.5 0 01.5 5H6a.5.5 0 01.5.5 1.5 1.5 0 003 0A.5.5 0 0110 5h5.5a.5.5 0 01.496.562l-.39 3.124A1.5 1.5 0 0114.117 10H1.883A1.5 1.5 0 01.394 8.686l-.39-3.124a.5.5 0 01.121-.393z" clip-rule="evenodd"/>
</svg>