<svg class="bi bi-intersect" width="1em" height="1em" viewBox="0 0 16 16" fill="currentColor" xmlns="http://www.w3.org/2000/svg">
  <path fill-rule="evenodd" d="M12 4v6.5a1.5 1.5 0 01-1.5 1.5H4V5.5A1.5 1.5 0 015.5 4H12z" clip-rule="evenodd"/>
  <path fill-rule="evenodd" d="M14.5 5h-9a.5.5 0 00-.5.5v9a.5.5 0 00.5.5h9a.5.5 0 00.5-.5v-9a.5.5 0 00-.5-.5zm-9-1A1.5 1.5 0 004 5.5v9A1.5 1.5 0 005.5 16h9a1.5 1.5 0 001.5-1.5v-9A1.5 1.5 0 0014.5 4h-9z" clip-rule="evenodd"/>
  <path fill-rule="evenodd" d="M10.5 1h-9a.5.5 0 00-.5.5v9a.5.5 0 00.5.5h9a.5.5 0 00.5-.5v-9a.5.5 0 00-.5-.5zm-9-1A1.5 1.5 0 000 1.5v9A1.5 1.5 0 001.5 12h9a1.5 1.5 0 001.5-1.5v-9A1.5 1.5 0 0010.5 0h-9z" clip-rule="evenodd"/>
</svg>