<svg class="bi bi-intersect" width="1em" height="1em" viewBox="0 0 20 20" fill="currentColor" xmlns="http://www.w3.org/2000/svg">
  <path fill-rule="evenodd" d="M14 6v6.5a1.5 1.5 0 01-1.5 1.5H6V7.5A1.5 1.5 0 017.5 6H14z" clip-rule="evenodd"/>
  <path fill-rule="evenodd" d="M16.5 7h-9a.5.5 0 00-.5.5v9a.5.5 0 00.5.5h9a.5.5 0 00.5-.5v-9a.5.5 0 00-.5-.5zm-9-1A1.5 1.5 0 006 7.5v9A1.5 1.5 0 007.5 18h9a1.5 1.5 0 001.5-1.5v-9A1.5 1.5 0 0016.5 6h-9z" clip-rule="evenodd"/>
  <path fill-rule="evenodd" d="M12.5 3h-9a.5.5 0 00-.5.5v9a.5.5 0 00.5.5h9a.5.5 0 00.5-.5v-9a.5.5 0 00-.5-.5zm-9-1A1.5 1.5 0 002 3.5v9A1.5 1.5 0 003.5 14h9a1.5 1.5 0 001.5-1.5v-9A1.5 1.5 0 0012.5 2h-9z" clip-rule="evenodd"/>
</svg>