<svg width="1em" height="1em" viewBox="0 0 16 16" class="bi bi-journal-check" fill="currentColor" xmlns="http://www.w3.org/2000/svg">
  <path d="M4 1h5v1H4a1 1 0 0 0-1 1H2a2 2 0 0 1 2-2zm10 7v5a2 2 0 0 1-2 2H4a2 2 0 0 1-2-2h1a1 1 0 0 0 1 1h8a1 1 0 0 0 1-1V8h1zM2 5v-.5a.5.5 0 0 1 1 0V5h.5a.5.5 0 0 1 0 1h-2a.5.5 0 0 1 0-1H2zm0 3v-.5a.5.5 0 0 1 1 0V8h.5a.5.5 0 0 1 0 1h-2a.5.5 0 0 1 0-1H2zm0 3v-.5a.5.5 0 0 1 1 0v.5h.5a.5.5 0 0 1 0 1h-2a.5.5 0 0 1 0-1H2z"/>
  <path fill-rule="evenodd" d="M15.854 2.146a.5.5 0 0 1 0 .708l-3 3a.5.5 0 0 1-.708 0l-1.5-1.5a.5.5 0 0 1 .708-.708L12.5 4.793l2.646-2.647a.5.5 0 0 1 .708 0z"/>
</svg>