<svg class="bi bi-layers" width="1em" height="1em" viewBox="0 0 16 16" fill="currentColor" xmlns="http://www.w3.org/2000/svg">
  <path fill-rule="evenodd" d="M3.188 8L.264 9.559a.5.5 0 000 .882l7.5 4a.5.5 0 00.47 0l7.5-4a.5.5 0 000-.882L12.813 8l-1.063.567L14.438 10 8 13.433 1.562 10 4.25 8.567 3.187 8z" clip-rule="evenodd"/>
  <path fill-rule="evenodd" d="M7.765 1.559a.5.5 0 01.47 0l7.5 4a.5.5 0 010 .882l-7.5 4a.5.5 0 01-.47 0l-7.5-4a.5.5 0 010-.882l7.5-4zM1.563 6L8 9.433 14.438 6 8 2.567 1.562 6z" clip-rule="evenodd"/>
</svg>