<svg class="bi bi-layers" width="1em" height="1em" viewBox="0 0 20 20" fill="currentColor" xmlns="http://www.w3.org/2000/svg">
  <path fill-rule="evenodd" d="M5.188 10l-2.923 1.559a.5.5 0 000 .882l7.5 4a.5.5 0 00.47 0l7.5-4a.5.5 0 000-.882L14.813 10l-1.063.567L16.438 12 10 15.433 3.562 12l2.688-1.433L5.187 10z" clip-rule="evenodd"/>
  <path fill-rule="evenodd" d="M9.765 3.559a.5.5 0 01.47 0l7.5 4a.5.5 0 010 .882l-7.5 4a.5.5 0 01-.47 0l-7.5-4a.5.5 0 010-.882l7.5-4zM3.562 8L10 11.433 16.438 8 10 4.567 3.562 8z" clip-rule="evenodd"/>
</svg>