<svg class="bi bi-layout-sidebar-reverse" width="1em" height="1em" viewBox="0 0 16 16" fill="currentColor" xmlns="http://www.w3.org/2000/svg">
  <g fill-rule="evenodd" clip-path="url(#clip0)" clip-rule="evenodd">
    <path d="M14 2H2a1 1 0 00-1 1v10a1 1 0 001 1h12a1 1 0 001-1V3a1 1 0 00-1-1zM2 1a2 2 0 00-2 2v10a2 2 0 002 2h12a2 2 0 002-2V3a2 2 0 00-2-2H2z"/>
    <path d="M11 14V2h1v12h-1z"/>
  </g>
  <defs>
    <clipPath id="clip0">
      <path d="M0 0h16v16H0z"/>
    </clipPath>
  </defs>
</svg>