<svg class="bi bi-layout-wtf" width="1em" height="1em" viewBox="0 0 20 20" fill="currentColor" xmlns="http://www.w3.org/2000/svg">
  <path fill-rule="evenodd" d="M7 3H3v8h4V3zM3 2a1 1 0 00-1 1v8a1 1 0 001 1h4a1 1 0 001-1V3a1 1 0 00-1-1H3zm13 2h-5v5h5V4zm-5-1a1 1 0 00-1 1v5a1 1 0 001 1h5a1 1 0 001-1V4a1 1 0 00-1-1h-5zM7 15H5v2h2v-2zm-2-1a1 1 0 00-1 1v2a1 1 0 001 1h2a1 1 0 001-1v-2a1 1 0 00-1-1H5zm12-1h-6v2h6v-2zm-6-1a1 1 0 00-1 1v2a1 1 0 001 1h6a1 1 0 001-1v-2a1 1 0 00-1-1h-6z" clip-rule="evenodd"/>
</svg>