<svg class="bi bi-life-preserver" width="1em" height="1em" viewBox="0 0 16 16" fill="currentColor" xmlns="http://www.w3.org/2000/svg">
  <circle cx="8" cy="8" r="7.5" stroke="#000"/>
  <circle cx="8" cy="8" r="3.5" stroke="#000"/>
  <path d="M11.642 6.343L15 5v6l-3.358-1.343A3.99 3.99 0 0012 8a3.99 3.99 0 00-.358-1.657zM9.657 4.358L11 1H5l1.343 3.358A3.985 3.985 0 018 4c.59 0 1.152.128 1.657.358zM4.358 6.343L1 5v6l3.358-1.343A3.985 3.985 0 014 8c0-.59.128-1.152.358-1.657zm1.985 5.299L5 15h6l-1.343-3.358A3.984 3.984 0 018 12a3.99 3.99 0 01-1.657-.358z"/>
</svg>