<svg width="1em" height="1em" viewBox="0 0 16 16" class="bi bi-life-preserver" fill="currentColor" xmlns="http://www.w3.org/2000/svg">
  <path fill-rule="evenodd" d="M8 15A7 7 0 1 0 8 1a7 7 0 0 0 0 14zm0 1A8 8 0 1 0 8 0a8 8 0 0 0 0 16z"/>
  <path fill-rule="evenodd" d="M8 11a3 3 0 1 0 0-6 3 3 0 0 0 0 6zm0 1a4 4 0 1 0 0-8 4 4 0 0 0 0 8z"/>
  <path d="M11.642 6.343L15 5v6l-3.358-1.343A3.99 3.99 0 0 0 12 8a3.99 3.99 0 0 0-.358-1.657zM9.657 4.358L11 1H5l1.343 3.358A3.985 3.985 0 0 1 8 4c.59 0 1.152.128 1.657.358zM4.358 6.343L1 5v6l3.358-1.343A3.985 3.985 0 0 1 4 8c0-.59.128-1.152.358-1.657zm1.985 5.299L5 15h6l-1.343-3.358A3.984 3.984 0 0 1 8 12a3.99 3.99 0 0 1-1.657-.358z"/>
</svg>