<svg xmlns="http://www.w3.org/2000/svg" width="16" height="16" fill="currentColor" class="bi bi-linkedin" viewBox="0 0 16 16">
  <path fill-rule="evenodd" d="M0 1.146C0 .513.526 0 1.175 0h13.65C15.474 0 16 .513 16 1.146v13.708c0 .633-.526 1.146-1.175 1.146H1.175C.526 16 0 15.487 0 14.854V1.146zm4.943 12.248V6.169H2.542v7.225h2.401zm-1.2-8.212c.837 0 1.358-.554 1.358-1.248-.015-.709-.52-1.248-1.342-1.248-.822 0-1.359.54-1.359 1.248 0 .694.521 1.248 1.327 1.248h.016zm4.908 8.212h-2.4s.03-6.547 0-7.225h2.4v1.023a5.54 5.54 0 0 0-.016.025h.016v-.025c.32-.493.89-1.193 2.165-1.193 1.58 0 2.764 1.033 2.764 3.252v4.143h-2.4V9.529c0-.972-.348-1.634-1.217-1.634-.664 0-1.059.447-1.233.878-.063.154-.079.37-.079.586v4.035z"/>
</svg>