<svg class="bi" width="20" height="20" viewBox="0 0 20 20" xmlns="http://www.w3.org/2000/svg">
  <path fill="currentColor" fill-rule="evenodd" d="M7 13.5a.5.5 0 01.5-.5h9a.5.5 0 010 1h-9a.5.5 0 01-.5-.5zm0-4a.5.5 0 01.5-.5h9a.5.5 0 010 1h-9a.5.5 0 01-.5-.5zm0-4a.5.5 0 01.5-.5h9a.5.5 0 010 1h-9a.5.5 0 01-.5-.5zM5.854 4.146a.5.5 0 010 .708l-1.5 1.5a.5.5 0 01-.708 0l-.5-.5a.5.5 0 11.708-.708L4 5.293l1.146-1.147a.5.5 0 01.708 0zm0 4a.5.5 0 010 .708l-1.5 1.5a.5.5 0 01-.708 0l-.5-.5a.5.5 0 11.708-.708L4 9.293l1.146-1.147a.5.5 0 01.708 0zm0 4a.5.5 0 010 .708l-1.5 1.5a.5.5 0 01-.708 0l-.5-.5a.5.5 0 01.708-.708l.146.147 1.146-1.147a.5.5 0 01.708 0z" clip-rule="evenodd"/>
</svg>
