<svg xmlns="http://www.w3.org/2000/svg" width="16" height="16" fill="currentColor" class="bi bi-micro-qr-code" viewBox="0 0 16 16">
  <path d="M0 0v6h6V0H0zm7 0v1h1V0H7zm2 0v1h1V0H9zm2 0v1h1V0h-1zm2 0v1h1V0h-1zm2 0v1h1V0h-1zM1 1h4v4H1V1zm1 1v2h2V2H2zm5 0v1h1v1h2v2h1V5h1v2h3v1h1V6h-1V5h1V2h-1v2h-1v2h-1V4h-1V3h2V2h-3v1h-1V2H7zm8 6h-4v1h-1V8H9v4H8v2h2v-1h1v2h1v1h1v-1h1v1h2v-2h-1v-1h-1v-1h1v1h1v-2h-1v-1h-1v1h-1v1h-1v-1h-1v1h-1v-2h3V9h2V8zm0 1v1h1V9h-1zm-4 6h-1v1h1v-1zm-3-1H7v1H6v-1h1v-2h1v-2H7V8h1V7H6v1H5v1H4v1h2v1H3V9H2v5h1v-2h1v2H3v1H2v1h2v-1h1v1h4v-1H8v-1zM3 9h1V7H2v1h1v1zm5-2h2V6H9V5H8V4H7v2h1v1zm2 0v1h1V7h-1zM0 7v1h1V7H0zm0 2v1h1V9H0zm0 2v1h1v-1H0zm5 1h1v1H5v-1zm-5 1v1h1v-1H0zm12 0h1v1h-1v-1zM0 15v1h1v-1H0z" style="fill:#000"/>
</svg>