<svg xmlns="http://www.w3.org/2000/svg" width="16" height="16" fill="currentColor" class="bi bi-micro-qr-code-scan" viewBox="0 0 16 16">
  <path d="M0 .5A.5.5 0 0 1 .5 0h3a.5.5 0 1 1 0 1H1v2.5a.5.5 0 1 1-1 0v-3Zm12 0a.5.5 0 0 1 .5-.5h3a.5.5 0 0 1 .5.5v3a.5.5 0 0 1-1 0V1h-2.5a.5.5 0 0 1-.5-.5ZM.5 12a.5.5 0 0 1 .5.5V15h2.5a.5.5 0 0 1 0 1h-3a.5.5 0 0 1-.5-.5v-3a.5.5 0 0 1 .5-.5Zm15 0a.5.5 0 0 1 .5.5v3a.5.5 0 0 1-.5.5h-3a.5.5 0 0 1 0-1H15v-2.5a.5.5 0 0 1 .5-.5ZM4 4h2v2H4V4Z"/>
  <path d="M2 2v6h6V2H2zm7 0v1h1V2H9zm2 0v1h1V2h-1zm2 0v1h1V2h-1zM3 3h4v4H3V3zm7 1v1h2V4h-2zm2 1v1h-2v1h1v2h1V8h1V6h1V5h-2zm1 3v1h-1v1h-1V9h-1V7H9v3h1v1H9v1H8v1h1v1h1v-1h3v1h1v-3h-1v1h-2v-1h2v-1h1V8h-1zm-5 5H6v-1H5v2h3v-1zm-3-1v-1h1v1h2v-1H7v-1H6V9H4v3h1zm2-2h1V9H7v1zm3-4V5H9v1h1zM2 9v1h1V9H2zm0 2v1h1v-1H2zm0 2v1h1v-1H2z"/>
</svg>