<svg xmlns="http://www.w3.org/2000/svg" width="16" height="16" fill="currentColor" class="bi bi-moodle" viewBox="0 0 16 16">
  <path d="M10.619 3C6.034 3.566 3.949 3.967 0 6.273l.037.104.313.004C.322 6.699.272 7.486.336 8.669c-.439 1.277-.012 2.145.39 3.089C.789 10.776.783 9.7.483 8.63.421 7.455.472 6.683.5 6.382l2.618.025c-.007.517.019 1.033.078 1.546a4.122 4.122 0 0 0-.055.687V14H5.7V8.94c0-.284.03-.528.092-.735a4.713 4.713 0 0 0 1.838-.721c.433.217.65.702.65 1.455V14h2.56V8.94c.001-1.06.435-1.588 1.302-1.588.866 0 1.299.53 1.299 1.587V14H16V8.64c0-1.104-.381-1.94-1.142-2.507-.67-.506-1.576-.76-2.717-.76-1.25 0-2.11.3-2.582.898a2.34 2.34 0 0 0-.423-.363c-.347-.39-1.026-.924-1.026-.924l2.541-1.87L10.62 3Z"/>
</svg>