<svg class="bi bi-music-note-list" width="1em" height="1em" viewBox="0 0 16 16" fill="currentColor" xmlns="http://www.w3.org/2000/svg">
  <path d="M12 13c0 1.105-1.12 2-2.5 2S7 14.105 7 13s1.12-2 2.5-2 2.5.895 2.5 2z"/>
  <path fill-rule="evenodd" d="M12 3v10h-1V3h1z" clip-rule="evenodd"/>
  <path d="M11 2.82a1 1 0 01.804-.98l3-.6A1 1 0 0116 2.22V4l-5 1V2.82z"/>
  <path fill-rule="evenodd" d="M0 11.5a.5.5 0 01.5-.5H4a.5.5 0 010 1H.5a.5.5 0 01-.5-.5zm0-4A.5.5 0 01.5 7H8a.5.5 0 010 1H.5a.5.5 0 01-.5-.5zm0-4A.5.5 0 01.5 3H8a.5.5 0 010 1H.5a.5.5 0 01-.5-.5z" clip-rule="evenodd"/>
</svg>