<svg xmlns="http://www.w3.org/2000/svg" width="16" height="16" fill="currentColor" class="bi bi-newspaper" viewBox="0 0 16 16">
  <path d="M0 2.5A1.5 1.5 0 0 1 1.5 1h11A1.5 1.5 0 0 1 14 2.5l.016 10.998c0 .373.202.486.484.502.276.016.5-.224.5-.5l-.009-7.908c-.018-.531-.2-.712-.656-.697l-.003-1.08c.978-.047 1.639.588 1.657 1.747L16 13.5a1.5 1.5 0 0 1-1.5 1.5H1.497A1.497 1.497 0 0 1 0 13.5zM12 14c.37 0 .996-.008.996-.008s.004-.712.004-.964V2.5a.5.5 0 0 0-.5-.5h-11a.5.5 0 0 0-.5.5v11c0 .278.223.5.497.5z"/>
  <path d="M2.028 3h10v2h-10Zm0 3h4v3h-4zm0 4h4v1h-4zm0 2h4v1h-4zm5-6h2v1h-2Zm3 0h2v1h-2zm-3 2h2v1h-2Zm3 0h2v1h-2zm-3 2h2v1h-2Zm3 0h2v1h-2zm-3 2h2v1h-2Zm3 0h2v1h-2z"/>
</svg>