<svg class="bi bi-newspaper" width="1em" height="1em" viewBox="0 0 16 16" fill="currentColor" xmlns="http://www.w3.org/2000/svg">
  <path fill-rule="evenodd" d="M0 2A1.5 1.5 0 011.5.5h11A1.5 1.5 0 0114 2v12a1.5 1.5 0 01-1.5 1.5h-11A1.5 1.5 0 010 14V2zm1.5-.5A.5.5 0 001 2v12a.5.5 0 00.5.5h11a.5.5 0 00.5-.5V2a.5.5 0 00-.5-.5h-11z" clip-rule="evenodd"/>
  <path fill-rule="evenodd" d="M15.5 3a.5.5 0 01.5.5V14a1.5 1.5 0 01-1.5 1.5h-3v-1h3a.5.5 0 00.5-.5V3.5a.5.5 0 01.5-.5z" clip-rule="evenodd"/>
  <path d="M2 3h10v2H2V3zm0 3h4v3H2V6zm0 4h4v1H2v-1zm0 2h4v1H2v-1zm5-6h2v1H7V6zm3 0h2v1h-2V6zM7 8h2v1H7V8zm3 0h2v1h-2V8zm-3 2h2v1H7v-1zm3 0h2v1h-2v-1zm-3 2h2v1H7v-1zm3 0h2v1h-2v-1z"/>
</svg>