<svg class="bi bi-newspaper" width="1em" height="1em" viewBox="0 0 20 20" fill="currentColor" xmlns="http://www.w3.org/2000/svg">
  <path fill-rule="evenodd" d="M2 4a1.5 1.5 0 011.5-1.5h11A1.5 1.5 0 0116 4v12a1.5 1.5 0 01-1.5 1.5h-11A1.5 1.5 0 012 16V4zm1.5-.5A.5.5 0 003 4v12a.5.5 0 00.5.5h11a.5.5 0 00.5-.5V4a.5.5 0 00-.5-.5h-11z" clip-rule="evenodd"/>
  <path fill-rule="evenodd" d="M17.5 5a.5.5 0 01.5.5V16a1.5 1.5 0 01-1.5 1.5h-3v-1h3a.5.5 0 00.5-.5V5.5a.5.5 0 01.5-.5z" clip-rule="evenodd"/>
  <path d="M4 5h10v2H4V5zm0 3h4v3H4V8zm0 4h4v1H4v-1zm0 2h4v1H4v-1zm5-6h2v1H9V8zm3 0h2v1h-2V8zm-3 2h2v1H9v-1zm3 0h2v1h-2v-1zm-3 2h2v1H9v-1zm3 0h2v1h-2v-1zm-3 2h2v1H9v-1zm3 0h2v1h-2v-1z"/>
</svg>