<svg width="1em" height="1em" viewBox="0 0 16 16" class="bi bi-node-minus" fill="currentColor" xmlns="http://www.w3.org/2000/svg">
  <path fill-rule="evenodd" d="M0 7.5A1.5 1.5 0 0 1 1.5 6h1A1.5 1.5 0 0 1 4 7.5v1A1.5 1.5 0 0 1 2.5 10h-1A1.5 1.5 0 0 1 0 8.5v-1zM1.5 7a.5.5 0 0 0-.5.5v1a.5.5 0 0 0 .5.5h1a.5.5 0 0 0 .5-.5v-1a.5.5 0 0 0-.5-.5h-1zM7 8.5H4v-1h3v1z"/>
  <path fill-rule="evenodd" d="M11 12a4 4 0 1 0 0-8 4 4 0 0 0 0 8zm0 1a5 5 0 1 0 0-10 5 5 0 0 0 0 10z"/>
  <path d="M13.5 7.5a.5.5 0 0 1 0 1h-5a.5.5 0 0 1 0-1h5z"/>
</svg>