<svg width="1em" height="1em" viewBox="0 0 16 16" class="bi bi-number-circle-fill" fill="currentColor" xmlns="http://www.w3.org/2000/svg">
  <path fill-rule="evenodd" d="M16 8A8 8 0 1 1 0 8a8 8 0 0 1 16 0zM8.35 4c.197 0 .354.073.472.219.119.146.178.346.178.602v6.107C9 11.643 8.747 12 8.24 12a.71.71 0 0 1-.544-.219c-.137-.145-.205-.36-.205-.645V6.283c-.94.693-1.572 1.04-1.897 1.04a.57.57 0 0 1-.414-.179.565.565 0 0 1-.18-.413c0-.182.06-.315.178-.4.118-.086.327-.196.626-.331.448-.203.806-.416 1.074-.64.268-.224.506-.475.713-.752.207-.277.342-.448.405-.512S8.177 4 8.35 4z"/>
</svg>