<svg width="1em" height="1em" viewBox="0 0 16 16" class="bi bi-number-square" fill="currentColor" xmlns="http://www.w3.org/2000/svg">
  <path fill-rule="evenodd" d="M14 1H2a1 1 0 0 0-1 1v12a1 1 0 0 0 1 1h12a1 1 0 0 0 1-1V2a1 1 0 0 0-1-1zM2 0a2 2 0 0 0-2 2v12a2 2 0 0 0 2 2h12a2 2 0 0 0 2-2V2a2 2 0 0 0-2-2H2z"/>
  <path d="M8.822 4.219A.577.577 0 0 0 8.351 4c-.174 0-.292.032-.355.096a6.718 6.718 0 0 0-.405.512 4.438 4.438 0 0 1-.713.752c-.268.224-.626.437-1.074.64-.3.135-.508.245-.626.33-.119.086-.178.22-.178.4 0 .157.06.295.18.414a.57.57 0 0 0 .414.179c.325 0 .958-.347 1.897-1.04v4.853c0 .285.068.5.205.645A.71.71 0 0 0 8.24 12c.507 0 .76-.357.76-1.072V4.821c0-.256-.06-.456-.178-.602z"/>
</svg>