<svg xmlns="http://www.w3.org/2000/svg" width="20" height="20" class="bi bi-octagon-fill" viewBox="0 0 20 20">
  <path fill="currentColor" d="M13.107 2a.5.5 0 01.353.146l4.394 4.394a.5.5 0 01.146.353v6.214a.5.5 0 01-.146.353l-4.394 4.394a.5.5 0 01-.353.146H6.893a.5.5 0 01-.353-.146L2.146 13.46A.5.5 0 012 13.107V6.893a.5.5 0 01.146-.353L6.54 2.146A.5.5 0 016.893 2h6.214zm-3.105 10a1 1 0 100 2 1 1 0 000-2zM10 6a.905.905 0 00-.9.995l.35 3.507a.552.552 0 001.1 0l.35-3.507A.905.905 0 0010 6z"/>
</svg>
