<svg xmlns="http://www.w3.org/2000/svg" width="20" height="20" class="bi bi-octagon-x-fill" viewBox="0 0 20 20">
  <path d="M13.107 2a.5.5 0 01.353.146l4.394 4.394a.5.5 0 01.146.353v6.214a.5.5 0 01-.146.353l-4.394 4.394a.5.5 0 01-.353.146H6.893a.5.5 0 01-.353-.146L2.146 13.46A.5.5 0 012 13.107V6.893a.5.5 0 01.146-.353L6.54 2.146A.5.5 0 016.893 2h6.214zM10 9.293L7.354 6.646a.5.5 0 10-.708.708L9.293 10l-2.647 2.646a.5.5 0 10.708.708L10 10.707l2.646 2.647a.5.5 0 10.708-.708L10.707 10l2.647-2.646a.5.5 0 10-.708-.708L10 9.293z"/>
</svg>
