<svg class="bi bi-octagon-half" width="1em" height="1em" viewBox="0 0 16 16" fill="currentColor" xmlns="http://www.w3.org/2000/svg">
  <path d="M4.893 16h3.214V0H4.893a.5.5 0 00-.353.146L.146 4.54A.5.5 0 000 4.893v6.214a.5.5 0 00.146.353l4.394 4.394a.5.5 0 00.353.146z"/>
  <path fill-rule="evenodd" d="M4.54.146A.5.5 0 014.893 0h6.214a.5.5 0 01.353.146l4.394 4.394a.5.5 0 01.146.353v6.214a.5.5 0 01-.146.353l-4.394 4.394a.5.5 0 01-.353.146H4.893a.5.5 0 01-.353-.146L.146 11.46A.5.5 0 010 11.107V4.893a.5.5 0 01.146-.353L4.54.146zM5.1 1L1 5.1v5.8L5.1 15h5.8l4.1-4.1V5.1L10.9 1H5.1z" clip-rule="evenodd"/>
</svg>