<svg class="bi bi-octagon-half" width="1em" height="1em" viewBox="0 0 20 20" fill="currentColor" xmlns="http://www.w3.org/2000/svg">
  <path d="M6.893 18h3.214V2H6.893a.5.5 0 00-.353.146L2.146 6.54A.5.5 0 002 6.893v6.214a.5.5 0 00.146.353l4.394 4.394a.5.5 0 00.353.146z"/>
  <path fill-rule="evenodd" d="M6.54 2.146A.5.5 0 016.893 2h6.214a.5.5 0 01.353.146l4.394 4.394a.5.5 0 01.146.353v6.214a.5.5 0 01-.146.353l-4.394 4.394a.5.5 0 01-.353.146H6.893a.5.5 0 01-.353-.146L2.146 13.46A.5.5 0 012 13.107V6.893a.5.5 0 01.146-.353L6.54 2.146zM7.1 3L3 7.1v5.8L7.1 17h5.8l4.1-4.1V7.1L12.9 3H7.1z" clip-rule="evenodd"/>
</svg>