<svg xmlns="http://www.w3.org/2000/svg" width="16" height="16" fill="currentColor" class="bi bi-person-rolodex" viewBox="0 0 16 16">
  <path d="M1.5 13.5v.5a.5.5 0 0 0 .5-.5h-.5Zm2 0H3a.5.5 0 0 0 .5.5v-.5Zm9 0v.5a.5.5 0 0 0 .5-.5h-.5Zm2 0H14a.5.5 0 0 0 .5.5v-.5ZM6.354 2.354 6.707 2l-.353.354Zm-.708-.708L5.293 2l.353-.354ZM15 3v10h1V3h-1ZM1 2h4.293V1H1v1Zm5.707 1H15V2H6.707v1ZM5.293 2 6 2.707 6.707 2 6 1.293 5.293 2ZM2 13.5a.5.5 0 0 1 .5-.5v-1A1.5 1.5 0 0 0 1 13.5h1Zm.5-.5a.5.5 0 0 1 .5.5h1A1.5 1.5 0 0 0 2.5 12v1Zm10.5.5a.5.5 0 0 1 .5-.5v-1a1.5 1.5 0 0 0-1.5 1.5h1Zm.5-.5a.5.5 0 0 1 .5.5h1a1.5 1.5 0 0 0-1.5-1.5v1Zm-1 0h-9v1h9v-1Zm2 1h.5v-1h-.5v1ZM1 14h.5v-1H1v1Zm0-1V2H0v11h1ZM6.707 2 6 2.707A1 1 0 0 0 6.707 3V2ZM5.293 2 6 1.293A1 1 0 0 0 5.293 1v1ZM1 1a1 1 0 0 0-1 1h1V1Zm0 12H0a1 1 0 0 0 1 1v-1Zm14 0v1a1 1 0 0 0 1-1h-1Zm1-10a1 1 0 0 0-1-1v1h1Z" fill="#000"/>
  <path fill-rule="evenodd" clip-rule="evenodd" d="M10.5 6.55a2.5 2.5 0 1 1-5 0 2.5 2.5 0 0 1 5 0ZM12.798 13H3.202c.453-1.27 1.76-3 4.798-3 3.037 0 4.345 1.73 4.798 3Z" fill="#000"/>
  <path d="M8 9.05a2.5 2.5 0 1 0 0-5 2.5 2.5 0 0 0 0 5Z" fill="#000"/>
  <path d="M1 1a1 1 0 0 0-1 1v11a1 1 0 0 0 1 1h.5a.5.5 0 0 0 .5-.5.5.5 0 0 1 1 0 .5.5 0 0 0 .5.5h9a.5.5 0 0 0 .5-.5.5.5 0 0 1 1 0 .5.5 0 0 0 .5.5h.5a1 1 0 0 0 1-1V3a1 1 0 0 0-1-1H6.707L6 1.293A1 1 0 0 0 5.293 1H1Zm0 1h4.293L6 2.707A1 1 0 0 0 6.707 3H15v10h-.085a1.5 1.5 0 0 0-2.4-.63C11.885 11.223 10.554 10 8 10c-2.555 0-3.886 1.224-4.514 2.37a1.5 1.5 0 0 0-2.4.63H1V2Z" fill="#000"/>
</svg>