<svg class="bi bi-person-dash" width="1em" height="1em" viewBox="0 0 16 16" fill="currentColor" xmlns="http://www.w3.org/2000/svg">
  <path fill-rule="evenodd" d="M11 14s1 0 1-1-1-4-6-4-6 3-6 4 1 1 1 1h10zm-9.995-.944v-.002.002zM1.022 13h9.956a.274.274 0 0 0 .014-.002l.008-.002c-.001-.246-.154-.986-.832-1.664C9.516 10.68 8.289 10 6 10c-2.29 0-3.516.68-4.168 1.332-.678.678-.83 1.418-.832 1.664a1.05 1.05 0 0 0 .022.004zm9.974.056v-.002.002zM6 7a2 2 0 1 0 0-4 2 2 0 0 0 0 4zm3-2a3 3 0 1 1-6 0 3 3 0 0 1 6 0zm2 2.5a.5.5 0 0 1 .5-.5h4a.5.5 0 0 1 0 1h-4a.5.5 0 0 1-.5-.5z" clip-rule="evenodd"/>
</svg>