<svg class="bi bi-phone-landscape-fill" width="1em" height="1em" viewBox="0 0 16 16" fill="currentColor" xmlns="http://www.w3.org/2000/svg">
  <path fill-rule="evenodd" d="M1.5 12.5a1 1 0 0 1-1-1v-7a1 1 0 0 1 1-1h13a1 1 0 0 1 1 1v7a1 1 0 0 1-1 1zm11.5-6A1.5 1.5 0 1 0 14.5 8 1.5 1.5 0 0 0 13 6.5z" clip-rule="evenodd"/>
  <path fill-rule="evenodd" d="M14.5 4a.5.5 0 0 1 .5.5V8a2 2 0 1 0-2 2 2 2 0 0 0 2-2v3.5a.5.5 0 0 1-.5.5h-13a.5.5 0 0 1-.5-.5v-7a.5.5 0 0 1 .5-.5h13m0-1h-13A1.5 1.5 0 0 0 0 4.5v7A1.5 1.5 0 0 0 1.5 13h13a1.5 1.5 0 0 0 1.5-1.5v-7A1.5 1.5 0 0 0 14.5 3zM13 9a1 1 0 1 1 1-1 1 1 0 0 1-1 1z" clip-rule="evenodd"/>
</svg>