<svg class="bi bi-phone-fill" width="1em" height="1em" viewBox="0 0 16 16" fill="currentColor" xmlns="http://www.w3.org/2000/svg">
  <path fill-rule="evenodd" d="M4.87 15.5a1.38 1.38 0 0 1-1.37-1.37V1.9A1.4 1.4 0 0 1 4.9.5h6.23a1.38 1.38 0 0 1 1.37 1.37v12.26a1.38 1.38 0 0 1-1.37 1.37zm3.13-4A1.5 1.5 0 1 0 9.5 13 1.5 1.5 0 0 0 8 11.5z" clip-rule="evenodd"/>
  <path fill-rule="evenodd" d="M11.13 1a.87.87 0 0 1 .87.87v12.26a.87.87 0 0 1-.87.87H4.87a.87.87 0 0 1-.87-.87V1.9a.9.9 0 0 1 .9-.9h6.23M8 15a2 2 0 1 0-2-2 2 2 0 0 0 2 2m3.13-15H4.9A1.9 1.9 0 0 0 3 1.9v12.23A1.87 1.87 0 0 0 4.87 16h6.26A1.87 1.87 0 0 0 13 14.13V1.87A1.87 1.87 0 0 0 11.13 0zM8 14a1 1 0 1 1 1-1 1 1 0 0 1-1 1z" clip-rule="evenodd"/>
</svg>