<svg class="bi bi-phone-fill" width="1em" height="1em" viewBox="0 0 16 16" fill="currentColor" xmlns="http://www.w3.org/2000/svg">
  <path fill-rule="evenodd" d="M4.5 15.5a1 1 0 0 1-1-1v-13a1 1 0 0 1 1-1h7a1 1 0 0 1 1 1v13a1 1 0 0 1-1 1zM8 12a1.5 1.5 0 1 0 1.5 1.5A1.5 1.5 0 0 0 8 12z" clip-rule="evenodd"/>
  <path fill-rule="evenodd" d="M11.5 1a.5.5 0 0 1 .5.5v13a.5.5 0 0 1-.5.5H9.32a2 2 0 0 0 .68-1.5 2 2 0 0 0-4 0 2 2 0 0 0 .68 1.5H4.5a.5.5 0 0 1-.5-.5v-13a.5.5 0 0 1 .5-.5h7m0-1h-7A1.5 1.5 0 0 0 3 1.5v13A1.5 1.5 0 0 0 4.5 16h7a1.5 1.5 0 0 0 1.5-1.5v-13A1.5 1.5 0 0 0 11.5 0zM8 14.5a1 1 0 1 1 1-1 1 1 0 0 1-1 1z" clip-rule="evenodd"/>
</svg>