<svg width="16" height="16" viewBox="0 0 16 16" fill="none" xmlns="http://www.w3.org/2000/svg">
<path d="M5.56595 10.5672C5.69711 10.2674 5.76832 9.93376 5.76832 9.58891C5.76832 9.32652 5.72709 9.07163 5.64465 8.82424C5.47975 8.32571 5.14996 7.8834 4.71898 7.58353C4.31049 7.29866 3.82705 7.14873 3.32862 7.14873C1.98322 7.14873 0.888916 8.24325 0.888916 9.58891C0.888916 10.556 1.4623 11.4368 2.35049 11.8267C2.66154 11.9616 2.98758 12.0328 3.33236 12.0328C3.516 12.0328 3.70338 12.0103 3.88327 11.9729C3.88701 11.9729 3.88701 11.9729 3.89451 11.9691C4.33298 11.8642 4.71524 11.6505 5.02254 11.3581C5.02629 11.3544 5.03004 11.3469 5.03753 11.3394C5.04503 11.3319 5.05627 11.3281 5.06377 11.3206C5.26988 11.1145 5.43478 10.8708 5.55845 10.6047C5.5547 10.5897 5.55845 10.5785 5.56595 10.5672ZM3.32862 11.6505C3.15248 11.6505 2.97634 11.628 2.8077 11.583C1.90452 11.3469 1.27117 10.526 1.27117 9.58891C1.27117 8.45315 2.19684 7.53106 3.32862 7.53106C4.46415 7.53106 5.38606 8.4569 5.38606 9.58891C5.38606 10.7247 4.46415 11.6505 3.32862 11.6505ZM4.91761 7.29116C4.52786 7.01753 4.07439 6.8526 3.60219 6.80762V2.77814H5.20992V7.53106C5.11998 7.44485 5.02254 7.36613 4.91761 7.29116ZM3.32862 7.87966C2.38796 7.87966 1.6197 8.64807 1.6197 9.58891C1.6197 10.3686 2.14437 11.0508 2.89764 11.2419C3.04005 11.2757 3.18246 11.2944 3.32862 11.2944C4.26927 11.2944 5.03753 10.526 5.03753 9.58516C5.03753 8.64432 4.26927 7.87966 3.32862 7.87966ZM3.32862 9.40524C3.68464 9.40524 3.97321 9.69386 3.97321 10.05C3.97321 10.3461 3.77458 10.5935 3.50476 10.6684V10.8296C3.50476 10.9271 3.42606 11.0058 3.32862 11.0058C3.23118 11.0058 3.15248 10.9271 3.15248 10.8296V10.6722C2.8789 10.5972 2.68028 10.3461 2.68028 10.0537C2.68028 9.95625 2.75898 9.87753 2.85642 9.87753C2.95386 9.87753 3.03256 9.95625 3.03256 10.0537C3.03256 10.2149 3.16372 10.3498 3.32862 10.3498C3.48977 10.3498 3.62468 10.2186 3.62468 10.0537C3.62468 9.89252 3.49351 9.75758 3.32862 9.75758C2.97259 9.75758 2.68403 9.46896 2.68403 9.11287C2.68403 8.83549 2.86016 8.59934 3.10751 8.50938C3.11126 8.50563 3.11875 8.50563 3.1225 8.50563C3.13374 8.50188 3.14498 8.49813 3.15623 8.49439V8.35195C3.15623 8.25449 3.23493 8.17578 3.33236 8.17578C3.4298 8.17578 3.5085 8.25449 3.5085 8.35195V8.49439C3.77833 8.56935 3.97696 8.82049 3.97696 9.11287C3.97696 9.21032 3.89826 9.28904 3.80082 9.28904C3.70338 9.28904 3.62468 9.21032 3.62468 9.11287C3.62468 8.95169 3.49351 8.81675 3.32862 8.81675C3.16747 8.81675 3.03256 8.94794 3.03256 9.11287C3.03256 9.27404 3.16747 9.40524 3.32862 9.40524ZM15.1111 14.2219L12.7951 13.9482L13.4809 13.2623C13.5484 13.1948 13.5484 13.0861 13.4809 13.0149L10.5653 10.0425C10.5353 10.0087 10.4903 9.98998 10.4416 9.98998C10.3929 9.98998 10.3479 10.0087 10.3179 10.0425L7.1362 13.1911L5.40105 11.4556C5.43478 11.4181 5.47226 11.3769 5.50599 11.3356C5.60342 11.2157 5.68962 11.0845 5.76457 10.9496L7.01253 12.1978C7.07999 12.2652 7.18867 12.2652 7.25987 12.1978L9.72955 9.75758L10.4416 9.05289L13.9269 12.6063C13.9606 12.6401 14.0056 12.6588 14.0506 12.6588C14.0955 12.6588 14.1405 12.6401 14.1742 12.6063L14.8376 11.9204L15.1111 14.2219ZM9.77827 9.21032V2.77814H11.3898V9.51394L10.569 8.67431C10.539 8.64057 10.4941 8.62183 10.4453 8.62183C10.4004 8.62183 10.3554 8.64057 10.3217 8.67431L9.77827 9.21032ZM7.1362 11.8267L6.69023 11.3806V5.46196H8.29796V10.6722L7.1362 11.8267ZM14.0468 12.2278L12.8663 11.0245V5.46196H14.474V11.7854L14.0468 12.2278Z" fill="black"/>
</svg>
