<svg class="bi bi-printer" width="1em" height="1em" fill="currentColor" xmlns="http://www.w3.org/2000/svg" viewBox="0 0 539 591.3">
<defs><style>.cls-1{fill:#fff;stroke:#000;stroke-miterlimit:10;stroke-width:4px;}</style></defs>
<path fill-rule="evenodd" class="cls-1" d="M890.4,542H395.6a20.1,20.1,0,0,1-20.1-20.1V262.1A20.1,20.1,0,0,1,395.6,242H890.4a20.1,20.1,0,0,1,20.1,20.1V521.9A20.1,20.1,0,0,1,890.4,542ZM835.5,659V566A18.5,18.5,0,0,0,817,547.5H471A18.5,18.5,0,0,0,452.5,566v93A18.5,18.5,0,0,0,471,677.5H817A18.5,18.5,0,0,0,835.5,659Zm-28.9-91.5h-330v.5h330Zm-13-477.3h-304a20.5,20.5,0,0,0-20.5,20.5v108a20.5,20.5,0,0,0,20.5,20.5h304a20.5,20.5,0,0,0,20.5-20.5v-108A20.5,20.5,0,0,0,793.6,90.2Zm-338,206v-5a21.5,21.5,0,0,0-21.5-21.5h-5a21.5,21.5,0,0,0-21.5,21.5v5a21.5,21.5,0,0,0,21.5,21.5h5A21.5,21.5,0,0,0,455.6,296.2ZM807,563.8H477v.5H807Zm0,23H477v.5H807Zm0,4H477v.5H807Zm0,28H477v.5H807Zm0-4H477v.5H807ZM841.9,502H788.1A14.1,14.1,0,0,1,774,487.9V473.1A14.1,14.1,0,0,1,788.1,459h53.8A14.1,14.1,0,0,1,856,473.1v14.8A14.1,14.1,0,0,1,841.9,502ZM808,643.8H478v.5H808Zm0,4H478v.5H808Z" transform="translate(-373.5 -88.2)"/></svg>