<svg class="bi bi-printer-fill" width="1em" height="1em" viewBox="0 0 16 16" fill="currentColor" xmlns="http://www.w3.org/2000/svg">
  <path d="M5 1a2 2 0 0 0-2 2v1h10V3a2 2 0 0 0-2-2H5zm9 5H2a1 1 0 0 0-1 1v3a1 1 0 0 0 1 1h1v1H2a2 2 0 0 1-2-2V7a2 2 0 0 1 2-2h12a2 2 0 0 1 2 2v3a2 2 0 0 1-2 2h-1v-1h1a1 1 0 0 0 1-1V7a1 1 0 0 0-1-1z"/>
  <path fill-rule="evenodd" d="M11 9H5a1 1 0 0 0-1 1v3a1 1 0 0 0 1 1h6a1 1 0 0 0 1-1v-3a1 1 0 0 0-1-1z"/>
  <path fill-rule="evenodd" d="M0 7a2 2 0 0 1 2-2h12a2 2 0 0 1 2 2v3a2 2 0 0 1-2 2h-1v-2a2 2 0 0 0-2-2H5a2 2 0 0 0-2 2v2H2a2 2 0 0 1-2-2V7zm2.5 1a.5.5 0 1 0 0-1 .5.5 0 0 0 0 1z"/>
</svg>