<svg class="bi bi-question-diamond-fill" width="1em" height="1em" viewBox="0 0 16 16" fill="currentColor" xmlns="http://www.w3.org/2000/svg">
  <path fill-rule="evenodd" d="M10.06 1.354a1.5 1.5 0 00-2.12 0L1.353 7.939a1.5 1.5 0 000 2.122l6.585 6.585a1.5 1.5 0 002.122 0l6.585-6.585a1.5 1.5 0 000-2.122L10.06 1.354zM7.57 7.033H6.25C6.22 5.147 7.68 4.5 9.006 4.5c1.397 0 2.673.73 2.673 2.24 0 1.08-.635 1.594-1.244 2.057-.737.559-1.01.768-1.01 1.486v.355H8.117l-.007-.463c-.038-.927.495-1.498 1.168-1.987.59-.444.965-.736.965-1.371 0-.825-.628-1.168-1.314-1.168-.901 0-1.358.603-1.358 1.384zm1.251 6.443c-.584 0-1.009-.394-1.009-.927 0-.552.425-.94 1.01-.94.609 0 1.028.388 1.028.94 0 .533-.42.927-1.029.927z" clip-rule="evenodd"/>
</svg>