<svg class="bi bi-question-diamond" width="1em" height="1em" viewBox="0 0 16 16" fill="currentColor" xmlns="http://www.w3.org/2000/svg">
  <path fill-rule="evenodd" d="M7.94 1.354a1.5 1.5 0 012.12 0l6.586 6.585a1.5 1.5 0 010 2.122l-6.585 6.585a1.5 1.5 0 01-2.122 0l-6.585-6.585a1.5 1.5 0 010-2.122l6.585-6.585zm1.414.707a.5.5 0 00-.708 0L2.061 8.646a.5.5 0 000 .708l6.585 6.585a.5.5 0 00.708 0l6.585-6.585a.5.5 0 000-.708L9.354 2.061z" clip-rule="evenodd"/>
  <path d="M6.25 7.033h1.32c0-.781.458-1.384 1.36-1.384.685 0 1.313.343 1.313 1.168 0 .635-.374.927-.965 1.371-.673.489-1.206 1.06-1.168 1.987l.007.463h1.307v-.355c0-.718.273-.927 1.01-1.486.609-.463 1.244-.977 1.244-2.056 0-1.511-1.276-2.241-2.673-2.241-1.326 0-2.786.647-2.754 2.533zm1.562 5.516c0 .533.425.927 1.01.927.609 0 1.028-.394 1.028-.927 0-.552-.42-.94-1.029-.94-.584 0-1.009.388-1.009.94z"/>
</svg>