<svg width="1em" height="1em" viewBox="3 3 24 23" class="bi bi-remove-formatting" fill="currentColor" xmlns="http://www.w3.org/2000/svg">
<style type="text/css">
	.st0{fill:#B3B3B4;}
	.st1{fill:#5D5E5D;}
	.st2{fill:#FFFFFF;}
</style>
<path class="st0" d="M26.6,11l-4.9-1.4c-0.3-0.1-0.5-0.5-0.4-0.8L22.4,5c0.2-0.7-0.2-1.5-0.9-1.7c-0.7-0.2-1.5,0.2-1.7,0.9l-1.1,3.9
	c-0.1,0.4-0.5,0.6-0.8,0.5l-5.6-1.5C12,7,11.6,7.2,11.5,7.5l-0.7,2.6c-0.1,0.3,0.1,0.7,0.5,0.8l14.3,4c0.4,0.1,0.7-0.1,0.8-0.5
	l0.7-2.6C27.2,11.5,27,11.2,26.6,11z"/>
<path class="st1" d="M3.5,26.3c-0.7-0.3-0.2-2.7,0.2-3.4l0.1-0.1c0.2-0.2,1-1.2,1.2-1.3l2.1-2c1-1,1.8-2.2,2.2-3.6l1-3.6
	c0.1-0.4,0.5-0.6,0.8-0.5L25.9,16c1.3,0.4,1.3,6.9-0.1,10.3H3.5z"/>
<polyline class="st2" points="13,19.5 12.3,19.2 9.7,26.4 10.6,26.4 "/>
<polygon class="st2" points="20.2,20.8 21.1,21.1 19.2,26.4 18.3,26.4 "/>
</svg>
