<svg width="1em" height="1em" viewBox="0 0 16 16" class="bi bi-remove-formatting" fill="currentColor" xmlns="http://www.w3.org/2000/svg"><path class="st0" d="M14.7,6.1l-4-0.5c-0.3,0-0.5-0.3-0.4-0.7l0.4-3.1c0-0.7-0.4-1.2-0.9-1.2C9.1,0.4,8.6,0.8,8.6,1.4L8.1,4.6
	c0,0.3-0.3,0.5-0.5,0.5L2.9,4.6c-0.3,0-0.5,0.1-0.5,0.5L2,7.2c0,0.3,0.1,0.5,0.5,0.6l11.8,1.6c0.3,0,0.5-0.3,0.5-0.5l0.3-2.2
	C15.2,6.4,15.1,6.2,14.7,6.1z"/>
<path class="st0" d="M1.1,14.2C0.1,13.8,1.8,9,1.8,9c0.1-0.3,0.3-0.5,0.5-0.4l11.9,1.6c0.1,0,0.4,0.3,0.4,0.6c0,0-0.1,3.8-0.6,4.6
	C13.5,16.2,4.2,15.5,1.1,14.2z"/>
</svg>
