<svg width="1em" height="1em" viewBox="0 0 16 16" class="bi bi-remove-formatting" fill="currentColor" xmlns="http://www.w3.org/2000/svg"><style type="text/css">
	.st0{fill:#B3B3B4;}
	.st1{fill:#666464;}
</style>
<path class="st0" d="M14.6,5.9l-4-0.5c-0.2,0-0.5-0.3-0.4-0.6l0.4-3.1c0.1-0.6-0.3-1.2-0.9-1.2C9.1,0.4,8.5,0.8,8.5,1.4L8.1,4.6
	c0,0.3-0.3,0.5-0.6,0.5L2.9,4.6C2.7,4.5,2.4,4.7,2.4,5L2.1,7.1c0,0.2,0.2,0.5,0.5,0.6l11.7,1.4c0.3,0,0.5-0.2,0.6-0.5l0.2-2.1
	C15.2,6.2,15,6,14.6,5.9z"/>
<path class="st1" d="M1.2,14c-1.1-0.4,0.6-5.1,0.6-5.1C2,8.6,2.1,8.4,2.3,8.5l11.9,1.4c0.2,0,0.4,0.3,0.4,0.5c0,0,0,3.8-0.5,4.5
	C13.5,15.7,4.3,15.2,1.2,14z"/>
</svg>
