<svg width="1em" height="1em" viewBox="0 0 16 16" class="bi bi-rotate-360" fill="currentColor" xmlns="http://www.w3.org/2000/svg">
  <g fill-rule="evenodd">
    <path d="M8 15A7 7 0 1 0 8 1a7 7 0 0 0 0 14zm0 1A8 8 0 1 0 8-.001 8 8 0 0 0 8 16z"/>
    <path d="M8 12c4.418 0 8-1.79 8-4s-3.582-4-8-4-8 1.79-8 4 3.582 4 8 4zm0-1c3.866 0 7-1.343 7-3s-3.134-3-7-3-7 1.343-7 3 3.134 3 7 3z"/>
    <path d="M12 8c0-4.418-1.79-8-4-8S4 3.582 4 8s1.79 8 4 8 4-3.582 4-8zm-1 0c0-3.866-1.343-7-3-7S5 4.134 5 8s1.343 7 3 7 3-3.134 3-7z"/>
  </g>
</svg>