
<svg version="1.0" xmlns="http://www.w3.org/2000/svg"
 width="16" height="16" viewBox="0 0 24.000000 24.000000"
 preserveAspectRatio="xMidYMid meet">

<g transform="translate(0.000000,24.000000) scale(0.100000,-0.100000)"
fill="#000000" stroke="none">
<path d="M60 200 c0 -5 13 -10 29 -10 17 0 33 -4 36 -10 4 -6 -6 -10 -24 -10
-16 0 -33 -4 -36 -10 -4 -6 9 -10 30 -10 46 0 43 -24 -3 -28 -18 -2 -32 -7
-32 -11 0 -4 17 -24 38 -44 49 -48 78 -49 32 -2 -19 19 -29 35 -22 35 11 0 72
54 72 65 0 3 -7 5 -15 5 -8 0 -15 5 -15 10 0 6 7 10 15 10 8 0 15 5 15 10 0 6
-27 10 -60 10 -33 0 -60 -4 -60 -10z"/>
</g>
</svg>
