<svg xmlns="http://www.w3.org/2000/svg" width="16" height="16" fill="currentColor" class="bi bi-security-key" viewBox="0 0 16 16">
  <g clip-path="url(#a)">
    <path d="M6 .5a.5.5 0 0 1 .5-.5h4a.5.5 0 0 1 .5.5v4H6v-4ZM7 1v1h1V1H7Zm2 0v1h1V1H9ZM6 5a1 1 0 0 0-1 1v8.5A1.5 1.5 0 0 0 6.5 16h4a1.5 1.5 0 0 0 1.5-1.5V6a1 1 0 0 0-1-1H6Zm0 1h5v8.5a.5.5 0 0 1-.5.5h-4a.5.5 0 0 1-.5-.5V6Z"/>
    <path d="M10 10.5a1.5 1.5 0 1 1-3 0 1.5 1.5 0 0 1 3 0Z"/>
  </g>
  <defs>
    <clipPath id="a">
      <path d="M0 0h16v16H0z"/>
    </clipPath>
  </defs>
</svg>