<svg class="bi bi-server" width="1em" height="1em" viewBox="0 0 16 16" fill="currentColor" xmlns="http://www.w3.org/2000/svg">
  <path d="M13 2c0-1.105-2.239-2-5-2S3 .895 3 2s2.239 2 5 2 5-.895 5-2z"/>
  <path d="M13 3.75c-.322.24-.698.435-1.093.593C10.857 4.763 9.475 5 8 5s-2.857-.237-3.907-.657A4.881 4.881 0 013 3.75V6c0 1.105 2.239 2 5 2s5-.895 5-2V3.75z"/>
  <path d="M13 7.75c-.322.24-.698.435-1.093.593C10.857 8.763 9.475 9 8 9s-2.857-.237-3.907-.657A4.881 4.881 0 013 7.75V10c0 1.105 2.239 2 5 2s5-.895 5-2V7.75z"/>
  <path d="M13 11.75c-.322.24-.698.435-1.093.593-1.05.42-2.432.657-3.907.657s-2.857-.237-3.907-.657A4.883 4.883 0 013 11.75V14c0 1.105 2.239 2 5 2s5-.895 5-2v-2.25z"/>
</svg>