<svg xmlns="http://www.w3.org/2000/svg" width="16" height="16" fill="currentColor" class="bi bi-skip-forward-btn" viewBox="0 0 16 16">
  <path fill-rule="evenodd" d="M14 3H2a1 1 0 0 0-1 1v8a1 1 0 0 0 1 1h12a1 1 0 0 0 1-1V4a1 1 0 0 0-1-1zM2 2a2 2 0 0 0-2 2v8a2 2 0 0 0 2 2h12a2 2 0 0 0 2-2V4a2 2 0 0 0-2-2H2z"/>
  <path d="M11.729 5.055a.5.5 0 0 0-.52.038L8.5 7.028V5.5a.5.5 0 0 0-.79-.407L5 7.028V5.5a.5.5 0 0 0-1 0v5a.5.5 0 0 0 1 0V8.972l2.71 1.935a.5.5 0 0 0 .79-.407V8.972l2.71 1.935A.5.5 0 0 0 12 10.5v-5a.5.5 0 0 0-.271-.445z"/>
</svg>