<svg class="bi bi-skip-forward-fill" width="1em" height="1em" viewBox="0 0 20 20" fill="currentColor" xmlns="http://www.w3.org/2000/svg">
  <path fill-rule="evenodd" d="M17.5 5.5a.5.5 0 01.5.5v8a.5.5 0 01-1 0V6a.5.5 0 01.5-.5z" clip-rule="evenodd"/>
  <path d="M9.596 10.697l-6.363 3.692c-.54.313-1.233-.066-1.233-.697V6.308c0-.63.692-1.01 1.233-.696l6.363 3.692a.802.802 0 010 1.393z"/>
  <path d="M17.096 10.697l-6.363 3.692c-.54.313-1.233-.066-1.233-.697V6.308c0-.63.693-1.01 1.233-.696l6.363 3.692a.802.802 0 010 1.393z"/>
</svg>