<svg class="bi bi-skip-backward-fill" width="1em" height="1em" viewBox="0 0 20 20" fill="currentColor" xmlns="http://www.w3.org/2000/svg">
  <path fill-rule="evenodd" d="M2.5 5.5A.5.5 0 002 6v8a.5.5 0 001 0V6a.5.5 0 00-.5-.5z" clip-rule="evenodd"/>
  <path d="M2.904 10.697l6.363 3.692c.54.313 1.233-.066 1.233-.697V6.308c0-.63-.693-1.01-1.233-.696L2.904 9.304a.802.802 0 000 1.393z"/>
  <path d="M10.404 10.697l6.363 3.692c.54.313 1.233-.066 1.233-.697V6.308c0-.63-.692-1.01-1.233-.696l-6.363 3.692a.802.802 0 000 1.393z"/>
</svg>