<svg class="bi bi-sliders" width="1em" height="1em" viewBox="0 0 16 16" fill="currentColor" xmlns="http://www.w3.org/2000/svg">
  <path d="M0 0h16v16H0z"/>
  <path fill-rule="evenodd" d="M14 3.5a2.5 2.5 0 1 1-5 0 2.5 2.5 0 0 1 5 0zM11.5 5a1.5 1.5 0 1 0 0-3 1.5 1.5 0 0 0 0 3zM7 8.5a2.5 2.5 0 1 1-5 0 2.5 2.5 0 0 1 5 0zM4.5 10a1.5 1.5 0 1 0 0-3 1.5 1.5 0 0 0 0 3zm9.5 3.5a2.5 2.5 0 1 1-5 0 2.5 2.5 0 0 1 5 0zM11.5 15a1.5 1.5 0 1 0 0-3 1.5 1.5 0 0 0 0 3z" clip-rule="evenodd"/>
  <path fill-rule="evenodd" d="M9.5 4H0V3h9.5v1zM16 4h-2.5V3H16v1zM9.5 14H0v-1h9.5v1zm6.5 0h-2.5v-1H16v1zM6.5 9H16V8H6.5v1zM0 9h2.5V8H0v1z" clip-rule="evenodd"/>
</svg>