<svg xmlns="http://www.w3.org/2000/svg" width="16" height="16" fill="currentColor" class="bi bi-stamp" viewBox="0 0 16 16">
  <path d="M13 12.5v.75c0 .14-.11.25-.25.25h-9.5c-.13 0-.25-.11-.25-.25v-.75c0-.28.23-.5.5-.5h9c.28 0 .5.22.5.5m-1 1.75v.5c0 .14-.11.25-.25.25h-7.5c-.13 0-.25-.11-.25-.25v-.5c0-.14.12-.25.25-.25h7.5c.14 0 .25.11.25.25m-1.5-3.45v.45c0 .14-.11.25-.25.25h-4.5c-.14 0-.25-.11-.25-.25v-.45c0-.19.06-.39.17-.55l.7-1.05c.08-.13.14-.28.16-.44l.63-5.11c.04-.32-.05-.68-.3-.89A.97.97 0 0 1 6.5 2c0-.55.45-1 1-1h1c.56 0 1 .45 1 1 0 .31-.14.59-.36.77-.25.21-.33.56-.29.89l.62 5.1c.02.16.08.31.16.44l.7 1.05c.11.16.17.36.17.55"/>
</svg>