<svg xmlns="http://www.w3.org/2000/svg" width="16" height="16" fill="currentColor" class="bi bi-sticky" viewBox="0 0 16 16">
  <path fill-rule="evenodd" d="M1 2.5A1.5 1.5 0 0 1 2.5 1h11A1.5 1.5 0 0 1 15 2.5v6.086a1.5 1.5 0 0 1-.44 1.06l-4.914 4.915a1.5 1.5 0 0 1-1.06.439H2.5A1.5 1.5 0 0 1 1 13.5v-11zM2.5 2a.5.5 0 0 0-.5.5v11a.5.5 0 0 0 .5.5h6.086a.5.5 0 0 0 .353-.146l4.915-4.915A.5.5 0 0 0 14 8.586V2.5a.5.5 0 0 0-.5-.5h-11z"/>
  <path fill-rule="evenodd" d="M9.5 9a.5.5 0 0 0-.5.5v5H8v-5A1.5 1.5 0 0 1 9.5 8h5v1h-5z"/>
</svg>