<svg class="bi bi-subtract" width="1em" height="1em" viewBox="0 0 20 20" fill="currentColor" xmlns="http://www.w3.org/2000/svg">
  <path d="M6 7.5A1.5 1.5 0 017.5 6h9A1.5 1.5 0 0118 7.5v9a1.5 1.5 0 01-1.5 1.5h-9A1.5 1.5 0 016 16.5v-9z"/>
  <path fill-rule="evenodd" d="M7.5 5h9A2.5 2.5 0 0119 7.5v9a2.5 2.5 0 01-2.5 2.5h-9A2.5 2.5 0 015 16.5v-9A2.5 2.5 0 017.5 5zm0 1A1.5 1.5 0 006 7.5v9A1.5 1.5 0 007.5 18h9a1.5 1.5 0 001.5-1.5v-9A1.5 1.5 0 0016.5 6h-9z" clip-rule="evenodd"/>
  <path d="M2 3.5A1.5 1.5 0 013.5 2h9A1.5 1.5 0 0114 3.5v9a1.5 1.5 0 01-1.5 1.5h-9A1.5 1.5 0 012 12.5v-9z"/>
  <path fill-rule="evenodd" d="M12.5 3h-9a.5.5 0 00-.5.5v9a.5.5 0 00.5.5h9a.5.5 0 00.5-.5v-9a.5.5 0 00-.5-.5zm-9-1A1.5 1.5 0 002 3.5v9A1.5 1.5 0 003.5 14h9a1.5 1.5 0 001.5-1.5v-9A1.5 1.5 0 0012.5 2h-9z" clip-rule="evenodd"/>
</svg>