<svg xmlns="http://www.w3.org/2000/svg" width="16" height="16" fill="currentColor" class="bi bi-suitcase-lg-plus-fill" viewBox="0 0 16 16">
  <path d="M7 0C5.9 0 5 .9 5 2H1.5C.67 2 0 2.67 0 3.5v9c0 .83.67 1.5 1.5 1.5H2c0 .28.22.5.5.5s.5-.22.5-.5h10c0 .28.22.5.5.5s.5-.22.5-.5h.5c.83 0 1.5-.67 1.5-1.5v-9c0-.83-.67-1.5-1.5-1.5H11c0-1.1-.9-2-2-2zM6 2c0-.55.45-1 1-1h2c.55 0 1 .45 1 1zM3 13V3h1v10zm9 0V3h1v10zM8 5.5c.28 0 .5.22.5.5v1.5H10c.28 0 .5.22.5.5s-.22.5-.5.5H8.5V10c0 .28-.22.5-.5.5s-.5-.22-.5-.5V8.5H6c-.28 0-.5-.22-.5-.5s.22-.5.5-.5h1.5V6c0-.28.22-.5.5-.5"/>
</svg>