<svg xmlns="http://www.w3.org/2000/svg" width="16" height="16" fill="currentColor" class="bi bi-suitcase-lg-plus" viewBox="0 0 16 16">
  <path d="M5 2c0-1.1.9-2 2-2h2c1.1 0 2 .9 2 2h3.5c.83 0 1.5.67 1.5 1.5v9c0 .83-.67 1.5-1.5 1.5H14c0 .28-.22.5-.5.5s-.5-.22-.5-.5H3c0 .28-.22.5-.5.5S2 14.28 2 14h-.5C.67 14 0 13.33 0 12.5v-9C0 2.67.67 2 1.5 2zm1 0h4c0-.55-.45-1-1-1H7c-.55 0-1 .45-1 1M1.5 3c-.28 0-.5.22-.5.5v9c0 .28.22.5.5.5H3V3zM15 12.5v-9c0-.28-.22-.5-.5-.5H13v10h1.5c.28 0 .5-.22.5-.5m-3 .5V3H4v10z"/>
  <path d="M8 5.5c.28 0 .5.22.5.5v1.5H10c.28 0 .5.22.5.5s-.22.5-.5.5H8.5V10c0 .28-.22.5-.5.5s-.5-.22-.5-.5V8.5H6c-.28 0-.5-.22-.5-.5s.22-.5.5-.5h1.5V6c0-.28.22-.5.5-.5"/>
</svg>