<svg xmlns="http://www.w3.org/2000/svg" width="16" height="16" fill="currentColor" class="bi bi-sun" viewBox="0 0 16 16">
  <path d="M3.5 8a4.5 4.5 0 1 1 9 0 4.5 4.5 0 0 1-9 0z"/>
  <path d="M8.202.28a.25.25 0 0 0-.404 0l-.91 1.255a.25.25 0 0 1-.334.067L5.232.79a.25.25 0 0 0-.374.154l-.36 1.51a.25.25 0 0 1-.282.188l-1.532-.244a.25.25 0 0 0-.286.286l.244 1.532a.25.25 0 0 1-.189.282l-1.509.36a.25.25 0 0 0-.154.374l.812 1.322a.25.25 0 0 1-.067.333l-1.256.91a.25.25 0 0 0 0 .405l1.256.91a.25.25 0 0 1 .067.334L.79 10.768a.25.25 0 0 0 .154.374l1.51.36a.25.25 0 0 1 .188.282l-.244 1.532a.25.25 0 0 0 .286.286l1.532-.244a.25.25 0 0 1 .282.189l.36 1.508a.25.25 0 0 0 .374.155l1.322-.812a.25.25 0 0 1 .333.067l.91 1.256a.25.25 0 0 0 .405 0l.91-1.256a.25.25 0 0 1 .334-.067l1.322.812a.25.25 0 0 0 .374-.155l.36-1.508a.25.25 0 0 1 .282-.19l1.532.245a.25.25 0 0 0 .286-.286l-.244-1.532a.25.25 0 0 1 .189-.282l1.508-.36a.25.25 0 0 0 .155-.374l-.812-1.322a.25.25 0 0 1 .067-.333l1.256-.91a.25.25 0 0 0 0-.405l-1.256-.91a.25.25 0 0 1-.067-.334l.812-1.322a.25.25 0 0 0-.155-.374l-1.508-.36a.25.25 0 0 1-.19-.282l.245-1.532a.25.25 0 0 0-.286-.286l-1.532.244a.25.25 0 0 1-.282-.189l-.36-1.509a.25.25 0 0 0-.374-.154l-1.322.812a.25.25 0 0 1-.333-.067L8.203.28zM8 2.5a5.5 5.5 0 1 1 0 11 5.5 5.5 0 0 1 0-11z"/>
</svg>