<svg class="bi bi-table" width="1em" height="1em" viewBox="0 0 16 16" fill="currentColor" xmlns="http://www.w3.org/2000/svg">
  <path fill-rule="evenodd" d="M14 1H2a1 1 0 0 0-1 1v12a1 1 0 0 0 1 1h12a1 1 0 0 0 1-1V2a1 1 0 0 0-1-1zM2 0a2 2 0 0 0-2 2v12a2 2 0 0 0 2 2h12a2 2 0 0 0 2-2V2a2 2 0 0 0-2-2H2z" clip-rule="evenodd"/>
  <path fill-rule="evenodd" d="M15 4H1V3h14v1z" clip-rule="evenodd"/>
  <path fill-rule="evenodd" d="M5 15.5v-14h1v14H5zm5 0v-14h1v14h-1z" clip-rule="evenodd"/>
  <path fill-rule="evenodd" d="M15 8H1V7h14v1zm0 4H1v-1h14v1z" clip-rule="evenodd"/>
  <path d="M0 2a2 2 0 0 1 2-2h12a2 2 0 0 1 2 2v2H0V2z"/>
</svg>