<svg xmlns="http://www.w3.org/2000/svg" width="16" height="16" fill="currentColor" class="bi bi-thermometer-snow" viewBox="0 0 16 16">
  <path stroke="#000" d="M3.5.5a2 2 0 0 0-2 2v7.764a3 3 0 1 0 4 0V2.5a2 2 0 0 0-2-2z"/>
  <circle cx="3.5" cy="12.5" r="1.5"/>
  <path stroke="#000" stroke-linecap="round" d="M3.5 11.5v-2"/>
  <path d="M8.5 2a.5.5 0 0 1 .5.5v1.293l.646-.647a.5.5 0 0 1 .708.708L9 5.207v1.927l1.669-.963.495-1.85a.5.5 0 1 1 .966.26l-.237.882 1.12-.646a.5.5 0 0 1 .5.866l-1.12.646.884.237a.5.5 0 1 1-.26.966l-1.848-.495L9.5 8l1.669.963 1.849-.495a.5.5 0 1 1 .258.966l-.883.237 1.12.646a.5.5 0 0 1-.5.866l-1.12-.646.237.883a.5.5 0 1 1-.966.258L10.67 9.83 9 8.866v1.927l1.354 1.353a.5.5 0 0 1-.708.708L9 12.207V13.5a.5.5 0 0 1-1 0v-11a.5.5 0 0 1 .5-.5z"/>
</svg>