<svg class="bi bi-toggles" width="1em" height="1em" viewBox="0 0 16 16" fill="currentColor" xmlns="http://www.w3.org/2000/svg">
  <path fill-rule="evenodd" d="M11.5 1h-7a2.5 2.5 0 0 0 0 5h7a2.5 2.5 0 0 0 0-5zm-7-1a3.5 3.5 0 1 0 0 7h7a3.5 3.5 0 1 0 0-7h-7zm0 9a3.5 3.5 0 1 0 0 7h7a3.5 3.5 0 1 0 0-7h-7zm7 6a2.5 2.5 0 1 0 0-5 2.5 2.5 0 0 0 0 5z" clip-rule="evenodd"/>
  <path fill-rule="evenodd" d="M8 3.5a3.5 3.5 0 1 1-7 0 3.5 3.5 0 0 1 7 0zM4.5 6a2.5 2.5 0 1 0 0-5 2.5 2.5 0 0 0 0 5z" clip-rule="evenodd"/>
</svg>