<svg class="bi bi-toggles" width="1em" height="1em" viewBox="0 0 16 16" fill="currentColor" xmlns="http://www.w3.org/2000/svg">
  <g fill-rule="evenodd" clip-path="url(#clip0)" clip-rule="evenodd">
    <path d="M11.5 1h-7a2.5 2.5 0 000 5h7a2.5 2.5 0 000-5zm-7-1a3.5 3.5 0 100 7h7a3.5 3.5 0 100-7h-7zm0 9a3.5 3.5 0 100 7h7a3.5 3.5 0 100-7h-7zm7 6a2.5 2.5 0 100-5 2.5 2.5 0 000 5z"/>
    <path d="M8 3.5a3.5 3.5 0 11-7 0 3.5 3.5 0 017 0zM4.5 6a2.5 2.5 0 100-5 2.5 2.5 0 000 5z"/>
  </g>
  <defs>
    <clipPath id="clip0">
      <path d="M0 0h16v16H0z"/>
    </clipPath>
  </defs>
</svg>