<svg class="bi bi-truck" width="1em" height="1em" viewBox="0 0 16 16" fill="currentColor" xmlns="http://www.w3.org/2000/svg">
  <path fill-rule="evenodd" d="M0 3.5A1.5 1.5 0 011.5 2h9A1.5 1.5 0 0112 3.5v7h-1v-7a.5.5 0 00-.5-.5h-9a.5.5 0 00-.5.5v7a.5.5 0 00.5.5v1A1.5 1.5 0 010 10.5v-7zM4.5 11h6v1h-6v-1z" clip-rule="evenodd"/>
  <path fill-rule="evenodd" d="M11 5h2.02a1.5 1.5 0 011.17.563l1.481 1.85a1.5 1.5 0 01.329.938V10.5a1.5 1.5 0 01-1.5 1.5h-1v-1h1a.5.5 0 00.5-.5V8.35a.5.5 0 00-.11-.312l-1.48-1.85A.5.5 0 0013.02 6H12v4.5h-1V5zm-8 8a1 1 0 100-2 1 1 0 000 2zm0 1a2 2 0 100-4 2 2 0 000 4z" clip-rule="evenodd"/>
  <path fill-rule="evenodd" d="M12 13a1 1 0 100-2 1 1 0 000 2zm0 1a2 2 0 100-4 2 2 0 000 4z" clip-rule="evenodd"/>
</svg>