<svg class="bi bi-truck-flatbed" width="1em" height="1em" viewBox="0 0 16 16" fill="currentColor" xmlns="http://www.w3.org/2000/svg">
  <path fill-rule="evenodd" d="M11 5h2.02a1.5 1.5 0 011.17.563l1.481 1.85a1.5 1.5 0 01.329.938V10.5a1.5 1.5 0 01-1.5 1.5h-1v-1h1a.5.5 0 00.5-.5V8.35a.5.5 0 00-.11-.312l-1.48-1.85A.5.5 0 0013.02 6H12v4.5h-1V5zm-8 8a1 1 0 100-2 1 1 0 000 2zm0 1a2 2 0 100-4 2 2 0 000 4z" clip-rule="evenodd"/>
  <path fill-rule="evenodd" d="M12 13a1 1 0 100-2 1 1 0 000 2zm0 1a2 2 0 100-4 2 2 0 000 4z" clip-rule="evenodd"/>
  <path d="M0 10h11v2H4.5v-1h-3v1H1a1 1 0 01-1-1v-1zm11-6a1 1 0 011 1v6h-1V4z"/>
</svg>