<svg xmlns="http://www.w3.org/2000/svg" width="16" height="16" fill="currentColor" class="bi bi-tsunami" viewBox="0 0 16 16">
  <path stroke="#000" stroke-linecap="round" stroke-linejoin="round" d="M.5 14.5l1.757.703a2 2 0 0 0 1.486 0l1.014-.406a2 2 0 0 1 1.486 0l1.014.406a2 2 0 0 0 1.486 0l1.014-.406a2 2 0 0 1 1.486 0l1.014.406a2 2 0 0 0 1.486 0L15.5 14.5m-15-2l1.757.703a2 2 0 0 0 1.486 0l1.014-.406a2 2 0 0 1 1.486 0l1.014.406a2 2 0 0 0 1.486 0l1.014-.406a2 2 0 0 1 1.486 0l1.014.406a2 2 0 0 0 1.486 0L15.5 12.5m-15-2c3-2.5 2-10 10-10 5.5 0 3.5 6 1 4.5m0 0l-1-.5-1 .5-1-.5m3 .5c-2 1.5-1.5 5.5 1.5 5.5h2.5"/>
</svg>