<svg xmlns="http://www.w3.org/2000/svg" width="16" height="16" fill="currentColor" class="bi bi-ukca" viewBox="0 0 16 16">
  <path d="M0 0v5a2.333 2.333 0 0 0 2.333 2.333H5A2.333 2.333 0 0 0 7.333 5V0H5.667v5A.667.667 0 0 1 5 5.667H2.333A.667.667 0 0 1 1.667 5V0zm8.667 0v7.333h1.666V4.667l3.333 2.666H16l-4.667-3.666L16 0h-2.334l-3.333 2.667V0zM7.333 8.667v1.666h-5a.667.667 0 0 0-.666.667v2.666a.667.667 0 0 0 .666.667h5V16h-5A2.333 2.333 0 0 1 0 13.666V11a2.333 2.333 0 0 1 2.333-2.333zM8.667 16v-5A2.333 2.333 0 0 1 11 8.667h2.666A2.333 2.333 0 0 1 16 11v5h-1.667v-1.667h-4V16zm1.666-3.334h4V11a.667.667 0 0 0-.667-.667H11a.667.667 0 0 0-.667.667z"/>
</svg>