<svg xmlns="http://www.w3.org/2000/svg" width="16" height="16" fill="currentColor" class="bi bi-umbrella-fill" viewBox="0 0 16 16">
  <path d="M8 0a.5.5 0 0 1 .5.5v.514C12.625 1.238 16 4.22 16 8a.5.5 0 0 1-.942.234l-.004-.007a.655.655 0 0 0-.047-.063 1.32 1.32 0 0 0-.284-.248c-.284-.19-.81-.416-1.723-.416-.912 0-1.439.227-1.723.416a1.32 1.32 0 0 0-.284.248.655.655 0 0 0-.047.063l-.004.007a.5.5 0 0 1-.884 0v-.001l-.004-.006a.655.655 0 0 0-.047-.063 1.32 1.32 0 0 0-.284-.248c-.228-.152-.61-.327-1.223-.391v6.014l-.005.083a2.958 2.958 0 0 1-.298 1.102 2.257 2.257 0 0 1-.763.88C7.06 15.851 6.587 16 6 16s-1.061-.148-1.434-.396a2.255 2.255 0 0 1-.763-.88 2.958 2.958 0 0 1-.302-1.185v-.025l-.001-.009V13a.5.5 0 0 1 1 0v.506l.003.044a1.958 1.958 0 0 0 .195.726c.095.191.23.367.423.495.19.127.466.229.879.229s.689-.102.879-.229c.193-.128.328-.304.424-.495a1.958 1.958 0 0 0 .197-.77V7.525c-.612.064-.995.24-1.223.391a1.321 1.321 0 0 0-.284.248.656.656 0 0 0-.047.063l-.004.007a.5.5 0 0 1-.884 0l-.004-.007a.656.656 0 0 0-.047-.063c-.05-.06-.14-.152-.284-.248C4.439 7.726 3.913 7.5 3 7.5s-1.439.227-1.723.416a1.321 1.321 0 0 0-.284.248.656.656 0 0 0-.047.063l-.004.007A.5.5 0 0 1 0 8c0-3.78 3.375-6.762 7.5-6.986V.5A.5.5 0 0 1 8 0z"/>
</svg>