<svg xmlns="http://www.w3.org/2000/svg" width="16" height="16" fill="currentColor" class="bi bi-unlink-45deg" viewBox="0 0 16 16">
  <path d="M8.71 3.05 6.59 5.17c-.59.59-.88 1.36-.88 2.12 0 .44.1.88.3 1.29.13.3.33.59.58.83s.53.45.83.58L8 9.41a.8.8 0 0 0 .15-.21c-.31-.08-.61-.25-.86-.5s-.42-.54-.5-.86c-.2-.68-.03-1.44.5-1.97l2.12-2.12c.78-.78 2.05-.78 2.83 0s.78 2.05 0 2.83l-1.09 1.09c.09.33.14.68.14 1.03 0 .08 0 .18-.01.25l1.67-1.67a2.99 2.99 0 0 0 0-4.24 3 3 0 0 0-4.24 0Z"/>
  <path d="M8.58 6.01 8 6.59a.8.8 0 0 0-.15.21c.31.08.61.25.86.5s.42.54.5.86c.2.68.03 1.44-.5 1.97l-2.12 2.12c-.78.78-2.05.78-2.83 0s-.78-2.05 0-2.83l1.09-1.09c-.09-.33-.13-.69-.14-1.03 0-.08 0-.18.01-.25L3.05 8.72a2.99 2.99 0 0 0 0 4.24 3 3 0 0 0 4.24 0l2.12-2.12c.59-.59.88-1.36.88-2.12 0-.44-.09-.88-.3-1.29-.13-.3-.33-.59-.58-.83s-.53-.45-.83-.58Zm-4.76-2.9 1.06 1.06c.19.19.2.51 0 .71s-.52.19-.71 0L3.11 3.82c-.2-.2-.2-.51 0-.71s.51-.2.71 0m2.42-1.42c.06.06.11.13.13.23l.39 1.45a.5.5 0 0 1-.35.61.507.507 0 0 1-.62-.35L5.4 2.18c-.07-.27.09-.54.36-.62.18-.05.36 0 .48.13M3.97 6.4c-.06.26-.34.42-.61.35l-1.45-.39a.496.496 0 0 1-.35-.61c.02-.09.07-.17.13-.23.13-.13.31-.18.49-.13l1.45.39c.27.07.42.35.35.62Zm7.86 4.72 1.06 1.06c.2.2.2.51 0 .71s-.51.2-.71 0l-1.06-1.06c-.19-.19-.2-.51 0-.71s.52-.19.71 0m-1.62 1.26.39 1.45c.07.27-.09.54-.36.62a.47.47 0 0 1-.48-.13.44.44 0 0 1-.13-.23l-.39-1.45a.5.5 0 0 1 .35-.61c.27-.07.54.08.62.35m4.23-2.14c-.02.09-.07.17-.13.23-.13.13-.31.18-.49.13l-1.45-.39a.5.5 0 0 1-.35-.62c.06-.26.34-.42.61-.35l1.45.39c.27.07.42.35.35.61Z"/>
</svg>