<svg xmlns="http://www.w3.org/2000/svg" width="16" height="16" fill="currentColor" class="bi bi-unlink" viewBox="0 0 16 16">
  <path d="M12 5H9c-.83 0-1.58.34-2.12.88-.31.31-.55.69-.7 1.12-.12.31-.18.65-.18 1s.06.69.18 1H7c.09 0 .17-.01.25-.04C7.09 8.68 7 8.35 7 8s.09-.68.25-.96A2 2 0 0 1 9 6h3c1.1 0 2 .9 2 2s-.9 2-2 2h-1.54c-.17.3-.38.58-.63.83-.06.06-.13.12-.19.17H12c.83 0 1.58-.34 2.12-.88S15 8.83 15 8c0-1.65-1.34-3-3-3"/>
  <path d="M9.82 7H9a.7.7 0 0 0-.25.04c.16.28.25.61.25.96s-.09.68-.25.96A2 2 0 0 1 7 10H4c-1.1 0-2-.9-2-2s.9-2 2-2h1.54c.17-.3.39-.58.63-.83.06-.06.13-.12.19-.17H4c-.83 0-1.58.34-2.12.88S1 7.18 1 8c0 1.66 1.34 3 3 3h3c.83 0 1.58-.34 2.12-.88.31-.31.56-.69.7-1.12.12-.31.18-.65.18-1s-.06-.69-.18-1M8.5 1.59v1.5c0 .27-.22.5-.5.5s-.5-.23-.5-.5v-1.5c0-.28.22-.5.5-.5s.5.22.5.5m2.72.7c0 .09-.02.17-.07.25l-.75 1.3c-.14.24-.45.32-.68.18a.497.497 0 0 1-.19-.68l.75-1.3a.505.505 0 0 1 .94.25M6.28 4.02c-.23.14-.54.06-.68-.18l-.75-1.3a.5.5 0 0 1 .43-.75.5.5 0 0 1 .44.25l.75 1.3c.14.24.05.54-.19.68m2.22 8.89v1.5c0 .28-.22.5-.5.5s-.5-.22-.5-.5v-1.5c0-.27.22-.5.5-.5s.5.23.5.5m-2.03-.25-.75 1.3a.505.505 0 0 1-.94-.25c0-.09.02-.17.07-.25l.75-1.3c.14-.24.45-.32.68-.18.24.14.33.44.19.68m4.5 1.48a.5.5 0 0 1-.69-.18l-.75-1.3a.497.497 0 0 1 .19-.68c.23-.14.54-.06.68.18l.75 1.3a.5.5 0 0 1-.18.68"/>
</svg>