<svg class="bi bi-upc-scan" width="1em" height="1em" viewBox="0 0 16 16" fill="currentColor" xmlns="http://www.w3.org/2000/svg">
  <path fill-rule="evenodd" d="M1.5 1a.5.5 0 00-.5.5v3a.5.5 0 01-1 0v-3A1.5 1.5 0 011.5 0h3a.5.5 0 010 1h-3zM11 .5a.5.5 0 01.5-.5h3A1.5 1.5 0 0116 1.5v3a.5.5 0 01-1 0v-3a.5.5 0 00-.5-.5h-3a.5.5 0 01-.5-.5zM.5 11a.5.5 0 01.5.5v3a.5.5 0 00.5.5h3a.5.5 0 010 1h-3A1.5 1.5 0 010 14.5v-3a.5.5 0 01.5-.5zm15 0a.5.5 0 01.5.5v3a1.5 1.5 0 01-1.5 1.5h-3a.5.5 0 010-1h3a.5.5 0 00.5-.5v-3a.5.5 0 01.5-.5z" clip-rule="evenodd"/>
  <path d="M3 4.5a.5.5 0 011 0v7a.5.5 0 01-1 0v-7zm2 0a.5.5 0 011 0v7a.5.5 0 01-1 0v-7zm2 0a.5.5 0 011 0v7a.5.5 0 01-1 0v-7zm2 0a.5.5 0 01.5-.5h1a.5.5 0 01.5.5v7a.5.5 0 01-.5.5h-1a.5.5 0 01-.5-.5v-7zm3 0a.5.5 0 011 0v7a.5.5 0 01-1 0v-7z"/>
</svg>