<svg class="bi bi-upload" width="1em" height="1em" viewBox="0 0 16 16" fill="currentColor" xmlns="http://www.w3.org/2000/svg">
  <path fill-rule="evenodd" d="M.5 8a.5.5 0 0 1 .5.5V12a1 1 0 0 0 1 1h12a1 1 0 0 0 1-1V8.5a.5.5 0 0 1 1 0V12a2 2 0 0 1-2 2H2a2 2 0 0 1-2-2V8.5A.5.5 0 0 1 .5 8zM5 4.854a.5.5 0 0 0 .707 0L8 2.56l2.293 2.293A.5.5 0 1 0 11 4.146L8.354 1.5a.5.5 0 0 0-.708 0L5 4.146a.5.5 0 0 0 0 .708z" clip-rule="evenodd"/>
  <path fill-rule="evenodd" d="M8 2a.5.5 0 0 1 .5.5v8a.5.5 0 0 1-1 0v-8A.5.5 0 0 1 8 2z" clip-rule="evenodd"/>
</svg>