<svg xmlns="http://www.w3.org/2000/svg" width="16" height="16" fill="currentColor" class="bi bi-vk" viewBox="0 0 16 16">
  <path d="M14.5 4.5c.1-.3-.1-.5-.4-.5h-1.5c-.4 0-.5.2-.6.4 0 0-.8 1.8-1.8 3-.5.4-.6.5-.8.5-.1 0-.2-.1-.2-.5V4.5c0-.3-.1-.5-.4-.5H6.4c-.3 0-.4.1-.4.3 0 .4.5.4.5 1.4v2.2c0 .4 0 .6-.2.6-.5 0-1.7-1.9-2.5-4-.1-.4-.2-.5-.6-.5H1.6c-.3 0-.4.2-.4.4 0 .4.5 2.3 2.3 4.9C4.8 11.1 6.4 12 8 12c.9 0 1.2-.2 1.2-.5v-1.3c0-.3 0-.5.3-.5.2 0 .6.1 1.5 1 1 1 1.1 1.4 1.7 1.4h1.8c.2 0 .3-.1.3-.4 0-.4-.5-1.1-1.3-2-.3-.4-.9-.9-1-1.1-.2-.3-.2-.4 0-.7 0 0 1.8-2.5 2-3.4z"/>
</svg>