<svg class="bi bi-volume-down" width="1em" height="1em" viewBox="0 0 16 16" fill="currentColor" xmlns="http://www.w3.org/2000/svg">
  <path fill-rule="evenodd" d="M8.717 3.55A.5.5 0 019 4v8a.5.5 0 01-.812.39L5.825 10.5H3.5A.5.5 0 013 10V6a.5.5 0 01.5-.5h2.325l2.363-1.89a.5.5 0 01.529-.06zM8 5.04L6.312 6.39A.5.5 0 016 6.5H4v3h2a.5.5 0 01.312.11L8 10.96V5.04z" clip-rule="evenodd"/>
  <path d="M10.707 11.182A4.486 4.486 0 0012.025 8a4.486 4.486 0 00-1.318-3.182L10 5.525A3.489 3.489 0 0111.025 8c0 .966-.392 1.841-1.025 2.475l.707.707z"/>
</svg>