<svg class="bi bi-volume-up" width="1em" height="1em" viewBox="0 0 16 16" fill="currentColor" xmlns="http://www.w3.org/2000/svg">
  <path fill-rule="evenodd" d="M6.717 3.55A.5.5 0 017 4v8a.5.5 0 01-.812.39L3.825 10.5H1.5A.5.5 0 011 10V6a.5.5 0 01.5-.5h2.325l2.363-1.89a.5.5 0 01.529-.06zM6 5.04L4.312 6.39A.5.5 0 014 6.5H2v3h2a.5.5 0 01.312.11L6 10.96V5.04z" clip-rule="evenodd"/>
  <path d="M11.536 14.01A8.473 8.473 0 0014.026 8a8.473 8.473 0 00-2.49-6.01l-.708.707A7.476 7.476 0 0113.025 8c0 2.071-.84 3.946-2.197 5.303l.708.707z"/>
  <path d="M10.121 12.596A6.48 6.48 0 0012.025 8a6.48 6.48 0 00-1.904-4.596l-.707.707A5.483 5.483 0 0111.025 8a5.483 5.483 0 01-1.61 3.89l.706.706z"/>
  <path d="M8.707 11.182A4.486 4.486 0 0010.025 8a4.486 4.486 0 00-1.318-3.182L8 5.525A3.489 3.489 0 019.025 8 3.49 3.49 0 018 10.475l.707.707z"/>
</svg>