<svg width="1em" height="1em" viewBox="0 0 16 16" class="bi bi-vr-headset-alt" fill="currentColor" xmlns="http://www.w3.org/2000/svg">
  <path fill-rule="evenodd" d="M4 5a2 2 0 1 0 0 4 2 2 0 0 0 0-4zm0 1a1 1 0 1 0 0 2 1 1 0 0 0 0-2zm6 1a2 2 0 1 1 4 0 2 2 0 0 1-4 0zm1 0a1 1 0 1 1 2 0 1 1 0 0 1-2 0z"/>
  <path fill-rule="evenodd" d="M2 2a2 2 0 0 0-2 2v7a3 3 0 0 0 3 3h1.657a1 1 0 0 0 .814-.42l2.175-3.05a.5.5 0 0 1 .708 0l2.175 3.05a1 1 0 0 0 .815.42H13a3 3 0 0 0 3-3V4a2 2 0 0 0-2-2H2zm9.093 10.791a.5.5 0 0 0 .406.209H13a2 2 0 0 0 2-2V4a1 1 0 0 0-1-1H2a1 1 0 0 0-1 1v7a2 2 0 0 0 2 2h1.5a.5.5 0 0 0 .407-.209L7.293 9.46a1 1 0 0 1 1.414 0l2.386 3.331z"/>
</svg>