<svg width="1em" height="1em" viewBox="0 0 16 16" class="bi bi-vr-headset" fill="currentColor" xmlns="http://www.w3.org/2000/svg">
  <path fill-rule="evenodd" d="M4 5a2 2 0 1 0 0 4 2 2 0 0 0 0-4zm0 1a1 1 0 1 0 0 2 1 1 0 0 0 0-2zm6 1a2 2 0 1 1 4 0 2 2 0 0 1-4 0zm1 0a1 1 0 1 1 2 0 1 1 0 0 1-2 0z"/>
  <path fill-rule="evenodd" d="M1 2a1 1 0 0 0-1 1v10a1 1 0 0 0 1 1h4.172l2.474-2.475a.5.5 0 0 1 .708 0L10.828 14H15a1 1 0 0 0 1-1V3a1 1 0 0 0-1-1H1zm10.243 11H14.5a.5.5 0 0 0 .5-.5v-9a.5.5 0 0 0-.5-.5h-13a.5.5 0 0 0-.5.5v9a.5.5 0 0 0 .5.5h3.257l2.536-2.536a1 1 0 0 1 1.414 0L11.243 13z"/>
</svg>