<svg class="bi bi-vr" width="1em" height="1em" viewBox="0 0 16 16" fill="currentColor" xmlns="http://www.w3.org/2000/svg">
  <g clip-path="url(#clip0)">
    <path fill-rule="evenodd" d="M3 4v8a1 1 0 001 1h8a1 1 0 001-1V4a1 1 0 00-1-1H4a1 1 0 00-1 1zm-1 8a2 2 0 002 2h8a2 2 0 002-2V4a2 2 0 00-2-2H4a2 2 0 00-2 2v8z" clip-rule="evenodd"/>
    <path stroke="#fff" stroke-linecap="round" d="M7 15.5a1 1 0 102 0V.5a1 1 0 00-2 0v15z"/>
  </g>
  <defs>
    <clipPath id="clip0">
      <path d="M0 0h16v16H0z"/>
    </clipPath>
  </defs>
</svg>