<svg xmlns="http://www.w3.org/2000/svg" width="16" height="16" fill="currentColor" class="bi bi-water" viewBox="0 0 16 16">
  <path stroke="#000" stroke-linecap="round" stroke-linejoin="round" d="M.5 12.5l1.757.703a2 2 0 0 0 1.486 0l1.014-.406a2 2 0 0 1 1.486 0l1.014.406a2 2 0 0 0 1.486 0l1.014-.406a2 2 0 0 1 1.486 0l1.014.406a2 2 0 0 0 1.486 0L15.5 12.5m-15-3l1.757.703a2 2 0 0 0 1.486 0l1.014-.406a2 2 0 0 1 1.486 0l1.014.406a2 2 0 0 0 1.486 0l1.014-.406a2 2 0 0 1 1.486 0l1.014.406a2 2 0 0 0 1.486 0L15.5 9.5m-15-3l1.757.703a2 2 0 0 0 1.486 0l1.014-.406a2 2 0 0 1 1.486 0l1.014.406a2 2 0 0 0 1.486 0l1.014-.406a2 2 0 0 1 1.486 0l1.014.406a2 2 0 0 0 1.486 0L15.5 6.5m-15-3l1.757.703a2 2 0 0 0 1.486 0l1.014-.406a2 2 0 0 1 1.486 0l1.014.406a2 2 0 0 0 1.486 0l1.014-.406a2 2 0 0 1 1.486 0l1.014.406a2 2 0 0 0 1.486 0L15.5 3.5"/>
</svg>