<svg xmlns="http://www.w3.org/2000/svg" width="20" height="20" class="bi bi-wifi" viewBox="0 0 20 20">
  <g fill-rule="evenodd">
    <path d="M7.879 13.879A2.99 2.99 0 0110 13a2.99 2.99 0 012.121.879L10 16l-2.121-2.121zm-1.415-1.415L5.05 11.05A6.978 6.978 0 0110 9c1.933 0 3.683.784 4.95 2.05l-1.414 1.414A4.984 4.984 0 0010 11c-1.38 0-2.63.56-3.536 1.464z"/>
    <path d="M3.636 9.636L2.222 8.222A10.966 10.966 0 0110 5c3.038 0 5.788 1.231 7.778 3.222l-1.414 1.414A8.972 8.972 0 0010 7a8.972 8.972 0 00-6.364 2.636z"/>
  </g>
</svg>
