<?xml version="1.0" encoding="UTF-8"?>
<svg id="Layer_1" data-name="Layer 1" xmlns="http://www.w3.org/2000/svg" viewBox="0 0 16 16">
  <path d="m15.99,7.76S16.36,0,7.82,0C.28,0,.04,7.45.04,7.45.04,7.45-1.07,16,8,16s7.99-8.24,7.99-8.24Zm-10.55-2.71c1.6-.98,3.65-.38,4.41,1.09.15.28.16.71.07,1-.32,1.01-1.07,1.58-2.1,1.82.3-.26.54-.55.62-.96.08-.39,0-.8-.24-1.12-.37-.51-1.05-.72-1.64-.5-.63.24-.98.82-.92,1.53.06.66.56,1.09,1.5,1.25-.14.07-.25.13-.35.19-.43.24-.8.56-1.1.95-.1.13-.16.14-.31.05-1.88-1.15-2.01-4.04.05-5.3h0Zm-1.41,7.12c-.3.08-.6.19-.91.29.15-1.02,1.35-1.96,2.36-1.85-.29.4-.46.88-.49,1.38-.34.06-.65.1-.96.18h0ZM10.47,2.2c.3.01.6,0,.9.01.07,0,.15.02.22.03-.07.1-.14.2-.23.29-.11.1-.23.2-.38.05-.04-.04-.12-.03-.19-.03-.3,0-.6-.01-.89,0-.26,0-.52.03-.77.08-.05,0-.12.17-.1.23.05.14.13.29.24.38.41.33.85.62,1.27.94.4.31.78.66,1.01,1.13.3.62.31,1.27.18,1.92-.21,1.09-.76,1.99-1.66,2.64-.36.26-.8.41-1.21.6-.36.17-.73.31-1.1.47-.65.3-1.02,1.01-.91,1.74.1.68.69,1.24,1.37,1.36.82.14,1.66-.39,1.86-1.22.22-.93-.28-1.76-1.23-2.02l-.17-.04c.25-.11.47-.19.67-.31.35-.19.7-.4,1.04-.62.1-.06.15-.06.24,0,.65.56,1.04,1.27,1.15,2.12.18,1.42-.49,2.73-1.76,3.4-1.97,1.04-4.37-.14-4.81-2.32-.37-1.87.95-3.56,2.53-3.89.68-.14,1.31-.42,1.79-.95.31-.34.46-.63.52-.76.1-.25.15-.51.14-.77-.01-.23-.06-.45-.16-.66-.17-.38-.8-.98-.96-1.1l-1.49-1.17c-.05-.04-.11-.04-.24-.03-.15.01-.54.03-.71-.01.14-.1.51-.25.67-.37-.48-.33-1.04-.21-1.54-.31.12-.22.7-.55,1.03-.59-.02-.18-.05-.37-.09-.55-.02-.07-.1-.15-.18-.19-.17-.1-.36-.19-.56-.29.18-.12.39-.18.6-.19.2,0,.41.01.61.06.36.08.65.03.93-.22-.23-.09-.45-.17-.67-.27-.22-.1-.42-.21-.63-.33.57.08,1.11.29,1.69.21v-.08s-1.33-.31-1.33-.31c.8-.07,1.55-.09,2.26.26.2.1.41.18.6.29.09.05.16.16.23.24.06.07.11.15.18.19.28.15.59.16.91.15v-.11c.33.1.68.47.68.74-.52,0-1.03,0-1.55,0-.06,0-.11.04-.16.06.05.03.1.09.16.09h0Zm-.67-.76s-.05.07-.03.11c0,0,0,.01.02.02.03.06.11.08.16.04,0,0,0,0,0,0,.05-.03.1-.05.16-.08-.05-.04-.09-.08-.13-.11-.07-.06-.13-.02-.19.02h0Z"/>
</svg>