<svg class="bi bi-x-diamond" width="1em" height="1em" viewBox="0 0 16 16" fill="currentColor" xmlns="http://www.w3.org/2000/svg">
  <g fill-rule="evenodd" clip-path="url(#clip0)" clip-rule="evenodd">
    <path d="M6.94.354a1.5 1.5 0 012.12 0l6.586 6.585a1.5 1.5 0 010 2.122l-6.585 6.585a1.5 1.5 0 01-2.122 0L.354 9.061a1.5 1.5 0 010-2.122L6.939.354zm1.414.707a.5.5 0 00-.708 0L1.061 7.646a.5.5 0 000 .708l6.585 6.585a.5.5 0 00.708 0l6.585-6.585a.5.5 0 000-.708L8.354 1.061z"/>
    <path d="M11.854 4.146a.5.5 0 010 .708l-7 7a.5.5 0 01-.708-.708l7-7a.5.5 0 01.708 0z"/>
    <path d="M4.146 4.146a.5.5 0 000 .708l7 7a.5.5 0 00.708-.708l-7-7a.5.5 0 00-.708 0z"/>
  </g>
  <defs>
    <clipPath id="clip0">
      <path d="M0 0h16v16H0z"/>
    </clipPath>
  </defs>
</svg>