<svg class="bi bi-x-diamond-fill" width="1em" height="1em" viewBox="0 0 16 16" fill="currentColor" xmlns="http://www.w3.org/2000/svg">
  <path fill-rule="evenodd" d="M10.06 1.354a1.5 1.5 0 00-2.12 0L1.353 7.939a1.5 1.5 0 000 2.122l6.585 6.585a1.5 1.5 0 002.122 0l6.585-6.585a1.5 1.5 0 000-2.122L10.06 1.354zm2.794 4.5a.5.5 0 00-.708-.708L9 8.293 5.854 5.146a.5.5 0 10-.708.708L8.293 9l-3.147 3.146a.5.5 0 10.708.707L9 9.707l3.146 3.146a.5.5 0 00.708-.707L9.707 9l3.147-3.146z" clip-rule="evenodd"/>
</svg>