<svg class="bi bi-x-diamond" width="1em" height="1em" viewBox="0 0 16 16" fill="currentColor" xmlns="http://www.w3.org/2000/svg">
  <path fill-rule="evenodd" d="M7.94 1.354a1.5 1.5 0 012.12 0l6.586 6.585a1.5 1.5 0 010 2.122l-6.585 6.585a1.5 1.5 0 01-2.122 0l-6.585-6.585a1.5 1.5 0 010-2.122l6.585-6.585zm1.414.707a.5.5 0 00-.708 0L2.061 8.646a.5.5 0 000 .708l6.585 6.585a.5.5 0 00.708 0l6.585-6.585a.5.5 0 000-.708L9.354 2.061z" clip-rule="evenodd"/>
  <path fill-rule="evenodd" d="M12.854 5.146a.5.5 0 010 .708l-7 7a.5.5 0 01-.708-.708l7-7a.5.5 0 01.708 0z" clip-rule="evenodd"/>
  <path fill-rule="evenodd" d="M5.146 5.146a.5.5 0 000 .708l7 7a.5.5 0 00.708-.708l-7-7a.5.5 0 00-.708 0z" clip-rule="evenodd"/>
</svg>