<svg class="bi bi-x-diamond-fill" width="1em" height="1em" viewBox="0 0 16 16" fill="currentColor" xmlns="http://www.w3.org/2000/svg">
  <g clip-path="url(#clip0)">
    <path fill-rule="evenodd" d="M9.06.354a1.5 1.5 0 00-2.12 0L.353 6.939a1.5 1.5 0 000 2.122l6.585 6.585a1.5 1.5 0 002.122 0l6.585-6.585a1.5 1.5 0 000-2.122L9.061.354zm2.794 4.5a.5.5 0 00-.708-.708L8 7.293 4.854 4.146a.5.5 0 10-.708.708L7.293 8l-3.147 3.146a.5.5 0 10.708.707L8 8.707l3.146 3.146a.5.5 0 00.708-.707L8.707 8l3.147-3.146z" clip-rule="evenodd"/>
  </g>
  <defs>
    <clipPath id="clip0">
      <path d="M0 0h16v16H0z"/>
    </clipPath>
  </defs>
</svg>