<svg class="bi bi-x-octagon-fill" width="1em" height="1em" viewBox="0 0 16 16" fill="currentColor" xmlns="http://www.w3.org/2000/svg">
  <path fill-rule="evenodd" d="M11.46.146A.5.5 0 0 0 11.107 0H4.893a.5.5 0 0 0-.353.146L.146 4.54A.5.5 0 0 0 0 4.893v6.214a.5.5 0 0 0 .146.353l4.394 4.394a.5.5 0 0 0 .353.146h6.214a.5.5 0 0 0 .353-.146l4.394-4.394a.5.5 0 0 0 .146-.353V4.893a.5.5 0 0 0-.146-.353L11.46.146zm.394 4.708a.5.5 0 0 0-.708-.708L8 7.293 4.854 4.146a.5.5 0 1 0-.708.708L7.293 8l-3.147 3.146a.5.5 0 0 0 .708.708L8 8.707l3.146 3.147a.5.5 0 0 0 .708-.708L8.707 8l3.147-3.146z"/>
</svg>