<svg class="bi bi-bootstrap" width="20" height="20" viewBox="0 0 20 20" fill="currentColor" xmlns="http://www.w3.org/2000/svg">
  <path fill-rule="evenodd" d="M6.002 2h8a4 4 0 014 4v8a4 4 0 01-4 4h-8a4 4 0 01-4-4V6a4 4 0 014-4zm0 1.5a2.5 2.5 0 00-2.5 2.5v8a2.5 2.5 0 002.5 2.5h8a2.5 2.5 0 002.5-2.5V6a2.5 2.5 0 00-2.5-2.5h-8zM7.062 14h3.475c1.804 0 2.888-.908 2.888-2.396 0-1.102-.761-1.916-1.904-2.034v-.1c.832-.14 1.482-.93 1.482-1.816 0-1.3-.955-2.11-2.543-2.11H7.063V14zm1.313-4.875V6.658h1.78c.974 0 1.542.457 1.542 1.237 0 .802-.604 1.23-1.764 1.23H8.375zm0 3.762h1.898c1.184 0 1.81-.48 1.81-1.377 0-.885-.65-1.348-1.886-1.348H8.375v2.725z"/>
</svg>
